{
.appVersion = "3137";
.formatVersion = 3;
axes = (
{
name = Weight;
tag = wght;
},
{
name = "Hyper Expansion";
tag = HEXP;
}
);
classes = (
{
automatic = 1;

glyphs = (
{
color = 6;
glyphname = A;
kernLeft = A;
kernRight = A;
layers = (
{
anchors = (
{
name = bottom;
pos = (350,0);
},
{
name = ogonek;
pos = (675,0);
},
{
name = top;
pos = (350,700);
}
);
layerId = "5A878C7E-547A-4951-B48F-676DBBC9B762";
shapes = (
{
closed = 1;
nodes = (
(135,0,l),
(294,418,ls),
(311,462,o),
(344,568,o),
(360,613,c),
(337,612,l),
(344.935,589.781,o),
(393,441,o),
(400,422,cs),
(560,0,l),
(675,0,l),
(406,700,l),
(296,700,l),
(25,0,l)
);
},
{
closed = 1;
nodes = (
(549,174,l),
(503,278,l),
(185,278,l),
(145,174,l)
);
}
);
width = 700;
},
{
anchors = (
{
name = bottom;
pos = (345,0);
},
{
name = ogonek;
pos = (631,0);
},
{
name = top;
pos = (345,700);
}
);
layerId = "554F9022-F5DF-470A-8852-5D1AD00D5051";
shapes = (
{
closed = 1;
nodes = (
(190,0,l),
(302,306,ls),
(332,388,o),
(343.667,412,o),
(361,496,c),
(327,496,l),
(344.333,412,o),
(354,389,o),
(384,306,cs),
(496,0,l),
(710,0,l),
(431,700,l),
(261,700,l),
(-20,0,l)
);
},
{
closed = 1;
nodes = (
(565,104,l),
(508,251,l),
(183,251,l),
(120,104,l)
);
}
);
width = 690;
},
{
anchors = (
{
name = bottom;
pos = (306,0);
},
{
name = ogonek;
pos = (565,0);
},
{
name = top;
pos = (306,700);
}
);
layerId = "CCD999A9-9CE8-4787-8FD2-D5D19514269E";
shapes = (
{
closed = 1;
nodes = (
(46,0,l),
(237,503,ls),
(247,530,o),
(292,646,o),
(309,694,c),
(298,695,l),
(328,620,o),
(365,522,o),
(372,504,cs),
(565,0,l),
(591,0,l),
(322,700,l),
(289,700,l),
(20,0,l)
);
},
{
closed = 1;
nodes = (
(493,230,l),
(485,253,l),
(128,253,l),
(120,230,l)
);
}
);
width = 611;
},
{
anchors = (
{
name = bottom;
pos = (496,0);
},
{
name = ogonek;
pos = (899,0);
},
{
name = top;
pos = (496,700);
}
);
layerId = "649E0662-786D-44F6-8E8D-A6782F19FFAA";
shapes = (
{
closed = 1;
nodes = (
(206,0,l),
(439,478,ls),
(464,529,o),
(486,573,o),
(510,638,c),
(478,637,l),
(499,573,o),
(521,533,o),
(546,482,cs),
(781,0,l),
(900,0,l),
(560,700,l),
(434,700,l),
(92,0,l)
);
},
{
closed = 1;
nodes = (
(716,164,l),
(699,268,l),
(284,268,l),
(241,164,l)
);
}
);
width = 992;
},
{
anchors = (
{
name = bottom;
pos = (452,0);
},
{
name = ogonek;
pos = (786,0);
},
{
name = top;
pos = (452,700);
}
);
layerId = "9FF8E21A-ED06-4F66-AEDE-2CE647DC4B08";
shapes = (
{
closed = 1;
nodes = (
(117,0,l),
(392,563,ls),
(412,603,o),
(432,644,o),
(452,684,c),
(449,684,l),
(469,647,o),
(491,602,o),
(510,564,cs),
(786,0,l),
(812,0,l),
(467,700,l),
(436,700,l),
(92,0,l)
);
},
{
closed = 1;
nodes = (
(691,221,l),
(681,243,l),
(226,243,l),
(215,221,l)
);
}
);
width = 903;
},
{
anchors = (
{
name = bottom;
pos = (491,0);
},
{
name = ogonek;
pos = (855,0);
},
{
name = top;
pos = (491,700);
}
);
layerId = "ED109265-B005-47B0-97BD-F1815082B32B";
shapes = (
{
closed = 1;
nodes = (
(261,0,l),
(447,366,ls),
(477,425,o),
(497,472,o),
(511,521,c),
(468,521,l),
(482,476,o),
(498,429,o),
(530,366,cs),
(717,0,l),
(935,0,l),
(585,700,l),
(399,700,l),
(47,0,l)
);
},
{
closed = 1;
nodes = (
(732,94,l),
(704,241,l),
(282,241,l),
(216,94,l)
);
}
);
width = 982;
},
{
anchors = (
{
name = bottom;
pos = (324,0);
},
{
name = ogonek;
pos = (622,0);
},
{
name = top;
pos = (324,700);
}
);
layerId = "2B3ECD2C-4B3A-40C3-8F2B-A5E41B85E4DD";
shapes = (
{
closed = 1;
nodes = (
(77,0,l),
(257,478,ls),
(289,563,o),
(303,600.333,o),
(331,687,c),
(314,687,l),
(340.667,603,o),
(354,567,o),
(385,484,cs),
(566,0,l),
(622,0,l),
(359,700,l),
(291,700,l),
(25,0,l)
);
},
{
closed = 1;
nodes = (
(515,211,l),
(496,261,l),
(153,261,l),
(134,211,l)
);
}
);
width = 647;
}
);
unicode = 65;
},
{
color = 6;
glyphname = AE;
kernLeft = AE;
kernRight = E;
layers = (
{
anchors = (
{
name = bottom;
pos = (485,0);
},
{
name = top;
pos = (645,700);
}
);
layerId = "5A878C7E-547A-4951-B48F-676DBBC9B762";
shapes = (
{
closed = 1;
nodes = (
(114,0,l),
(490,550,l),
(465,558,l),
(465,245,l),
(266,245,l),
(203,153,l),
(465,153,l),
(465,0,l),
(894,0,l),
(894,93,l),
(566,93,l),
(566,308,l),
(849,308,l),
(849,402,l),
(566,402,l),
(566,607,l),
(894,607,l),
(894,700,l),
(493,700,l),
(5,0,l)
);
}
);
width = 969;
},
{
anchors = (
{
name = bottom;
pos = (577,0);
},
{
name = top;
pos = (775,700);
}
);
layerId = "554F9022-F5DF-470A-8852-5D1AD00D5051";
shapes = (
{
closed = 1;
nodes = (
(221,0,l),
(597,550,l),
(572,558,l),
(572,299,l),
(409,299,l),
(297,135,l),
(572,135,l),
(572,0,l),
(1107,0,l),
(1107,175,l),
(779,175,l),
(779,272,l),
(1062,272,l),
(1062,436,l),
(779,436,l),
(779,525,l),
(1107,525,l),
(1107,700,l),
(468,700,l),
(-20,0,l)
);
}
);
width = 1154;
},
{
anchors = (
{
name = bottom;
pos = (463,0);
},
{
name = top;
pos = (635,700);
}
);
layerId = "CCD999A9-9CE8-4787-8FD2-D5D19514269E";
shapes = (
{
closed = 1;
nodes = (
(28,0,l),
(492,687,l),
(486,691,l),
(486,238,l),
(182,238,l),
(167,216,l),
(486,216,l),
(486,0,l),
(861,0,l),
(861,22,l),
(508,22,l),
(508,350,l),
(804,350,l),
(804,372,l),
(508,372,l),
(508,678,l),
(861,678,l),
(861,700,l),
(476,700,l),
(0,0,l)
);
}
);
userData = {
com.schriftgestaltung.Glyphs.glyph.rightMetricsKey = E;
};
width = 926;
},
{
anchors = (
{
name = bottom;
pos = (712,0);
},
{
name = top;
pos = (945,700);
}
);
layerId = "649E0662-786D-44F6-8E8D-A6782F19FFAA";
shapes = (
{
closed = 1;
nodes = (
(221,0,l),
(722,563,l),
(692,575,l),
(692,257,l),
(434,257,l),
(341,153,l),
(692,153,l),
(692,0,l),
(1261,0,l),
(1261,104,l),
(800,104,l),
(800,293,l),
(1216,293,l),
(1216,397,l),
(800,397,l),
(800,596,l),
(1261,596,l),
(1261,700,l),
(720,700,l),
(92,0,l)
);
}
);
width = 1421;
},
{
anchors = (
{
name = bottom;
pos = (690,0);
},
{
name = top;
pos = (918,700);
}
);
layerId = "9FF8E21A-ED06-4F66-AEDE-2CE647DC4B08";
shapes = (
{
closed = 1;
nodes = (
(121,0,l),
(722,677,l),
(716,682,l),
(716,238,l),
(325,238,l),
(305,216,l),
(716,216,l),
(716,0,l),
(1224,0,l),
(1224,22,l),
(738,22,l),
(738,340,l),
(1167,340,l),
(1167,362,l),
(738,362,l),
(738,678,l),
(1224,678,l),
(1224,700,l),
(711,700,l),
(90,0,l)
);
}
);
userData = {
com.schriftgestaltung.Glyphs.glyph.rightMetricsKey = E;
};
width = 1374;
},
{
anchors = (
{
name = bottom;
pos = (804,0);
},
{
name = top;
pos = (1085,700);
}
);
layerId = "ED109265-B005-47B0-97BD-F1815082B32B";
shapes = (
{
closed = 1;
nodes = (
(328,0,l),
(829,563,l),
(799,575,l),
(799,311,l),
(577,311,l),
(435,135,l),
(799,135,l),
(799,0,l),
(1474,0,l),
(1474,186,l),
(1013,186,l),
(1013,257,l),
(1429,257,l),
(1429,431,l),
(1013,431,l),
(1013,514,l),
(1474,514,l),
(1474,700,l),
(695,700,l),
(67,0,l)
);
}
);
width = 1606;
},
{
anchors = (
{
name = bottom;
pos = (471,0);
},
{
name = top;
pos = (638,700);
}
);
layerId = "2B3ECD2C-4B3A-40C3-8F2B-A5E41B85E4DD";
shapes = (
{
closed = 1;
nodes = (
(60,0,l),
(491,620,l),
(465,628,l),
(465,241,l),
(212,241,l),
(178,191,l),
(465,191,l),
(465,0,l),
(868,0,l),
(868,50,l),
(515,50,l),
(515,336,l),
(815,336,l),
(815,386,l),
(515,386,l),
(515,650,l),
(872,650,l),
(872,700,l),
(486,700,l),
(0,0,l)
);
}
);
userData = {
com.schriftgestaltung.Glyphs.glyph.rightMetricsKey = E;
};
width = 942;
}
);
metricRight = E;
unicode = 198;
},
{
color = 6;
glyphname = B;
kernLeft = H;
kernRight = B;
layers = (
{
anchors = (
{
name = bottom;
pos = (341,0);
},
{
name = top;
pos = (341,700);
}
);
layerId = "5A878C7E-547A-4951-B48F-676DBBC9B762";
shapes = (
{
closed = 1;
nodes = (
(400,0,ls),
(546.667,0,o),
(633,72.667,o),
(633,206,cs),
(633,304,o),
(570,371,o),
(477,392,c),
(477,372,l),
(552,392,o),
(596,448,o),
(596,524,cs),
(596,638.667,o),
(524.667,700,o),
(390,700,cs),
(98,700,l),
(98,0,l)
);
},
{
closed = 1;
nodes = (
(206,306,l),
(389,306,ls),
(470.333,306,o),
(523,270.667,o),
(523,208,cs),
(523,141.333,o),
(475.333,104,o),
(394,104,cs),
(206,104,l)
);
},
{
closed = 1;
nodes = (
(206,596,l),
(372,596,ls),
(446.667,596,o),
(488,563,o),
(488,503,cs),
(488,448.333,o),
(444,410,o),
(384,410,cs),
(206,410,l)
);
}
);
width = 681;
},
{
anchors = (
{
name = bottom;
pos = (358,0);
},
{
name = top;
pos = (358,700);
}
);
layerId = "554F9022-F5DF-470A-8852-5D1AD00D5051";
shapes = (
{
closed = 1;
nodes = (
(412,0,ls),
(558.667,0,o),
(675,69.333,o),
(675,216,cs),
(675,305,o),
(614,369,o),
(523,391,c),
(526,372,l),
(599,391,o),
(638,447,o),
(638,531,cs),
(638,633.667,o),
(554,700,o),
(402,700,cs),
(80,700,l),
(80,0,l)
);
},
{
closed = 1;
nodes = (
(280,282,l),
(401,282,ls),
(442.333,282,o),
(465,262.333,o),
(465,229,cs),
(465,190.333,o),
(443.333,170,o),
(406,170,cs),
(280,170,l)
);
},
{
closed = 1;
nodes = (
(280,530,l),
(363,530,ls),
(411,530,o),
(430,508.667,o),
(430,478,cs),
(430,444.667,o),
(411.667,426,o),
(365,426,cs),
(280,426,l)
);
}
);
width = 715;
},
{
anchors = (
{
name = bottom;
pos = (326,0);
},
{
name = top;
pos = (326,700);
}
);
layerId = "CCD999A9-9CE8-4787-8FD2-D5D19514269E";
shapes = (
{
closed = 1;
nodes = (
(371,0,ls),
(532.333,0,o),
(597,84,o),
(597,192,cs),
(597,289,o),
(529,365,o),
(395,374,c),
(401,361,l),
(497,376,o),
(560,446,o),
(560,531,cs),
(560,624.333,o),
(488.667,700,o),
(378,700,cs),
(110,700,l),
(110,0,l)
);
},
{
closed = 1;
nodes = (
(131,356,l),
(377,356,ls),
(502.333,356,o),
(574,286.667,o),
(574,188,cs),
(574,94.667,o),
(517.333,22,o),
(372,22,cs),
(131,22,l)
);
},
{
closed = 1;
nodes = (
(131,678,l),
(375,678,ls),
(475,678,o),
(537,613.333,o),
(537,532,cs),
(537,446.667,o),
(462.667,378,o),
(372,378,cs),
(131,378,l)
);
}
);
userData = {
com.schriftgestaltung.Glyphs.glyph.leftMetricsKey = H;
com.schriftgestaltung.Glyphs.glyph.rightMetricsKey = O;
};
width = 652;
},
{
anchors = (
{
name = bottom;
pos = (500,0);
},
{
name = top;
pos = (500,700);
}
);
layerId = "649E0662-786D-44F6-8E8D-A6782F19FFAA";
shapes = (
{
closed = 1;
nodes = (
(590,0,ls),
(721,0,o),
(867,43,o),
(867,206,cs),
(867,316,o),
(781,370,o),
(692,390,c),
(685,371,l),
(780,393,o),
(830,451,o),
(830,524,cs),
(830,637,o),
(739,700,o),
(564,700,cs),
(182,700,l),
(182,0,l)
);
},
{
closed = 1;
nodes = (
(290,311,l),
(589,311,ls),
(665,311,o),
(757,287,o),
(757,208,cs),
(757,137,o),
(689,104,o),
(594,104,cs),
(290,104,l)
);
},
{
closed = 1;
nodes = (
(290,596,l),
(572,596,ls),
(655,596,o),
(719,572,o),
(719,508,cs),
(719,451,o),
(656,416,o),
(584,416,cs),
(290,416,l)
);
}
);
width = 995;
},
{
anchors = (
{
name = bottom;
pos = (486,0);
},
{
name = top;
pos = (486,700);
}
);
layerId = "9FF8E21A-ED06-4F66-AEDE-2CE647DC4B08";
shapes = (
{
closed = 1;
nodes = (
(584,0,ls),
(743,0,o),
(832,67,o),
(832,190,cs),
(832,303,o),
(757,369,o),
(621,378,c),
(622,367,l),
(734,382,o),
(795,440,o),
(795,533,cs),
(795,640,o),
(714,700,o),
(569,700,cs),
(194,700,l),
(194,0,l)
);
},
{
closed = 1;
nodes = (
(216,362,l),
(578,362,ls),
(726,362,o),
(809,301,o),
(809,190,cs),
(808,77,o),
(724,17,o),
(573,22,c),
(216,22,l)
);
},
{
closed = 1;
nodes = (
(216,678,l),
(576,678,ls),
(701,678,o),
(772,626,o),
(772,534,cs),
(772,438,o),
(705,384,o),
(585,384,cs),
(216,384,l)
);
}
);
userData = {
com.schriftgestaltung.Glyphs.glyph.leftMetricsKey = H;
com.schriftgestaltung.Glyphs.glyph.rightMetricsKey = O;
};
width = 967;
},
{
anchors = (
{
name = bottom;
pos = (517,0);
},
{
name = top;
pos = (517,700);
}
);
layerId = "ED109265-B005-47B0-97BD-F1815082B32B";
shapes = (
{
closed = 1;
nodes = (
(602,0,ls),
(733,0,o),
(909,40,o),
(909,216,cs),
(909,317,o),
(825,368,o),
(738,389,c),
(734,371,l),
(827,392,o),
(872,450,o),
(872,531,cs),
(872,632,o),
(768,700,o),
(576,700,cs),
(164,700,l),
(164,0,l)
);
},
{
closed = 1;
nodes = (
(364,287,l),
(601,287,ls),
(637,287,o),
(699,278,o),
(699,229,cs),
(699,186,o),
(657,170,o),
(606,170,cs),
(364,170,l)
);
},
{
closed = 1;
nodes = (
(364,530,l),
(563,530,ls),
(619,530,o),
(661,518,o),
(661,483,cs),
(661,447,o),
(624,432,o),
(565,432,cs),
(364,432,l)
);
}
);
width = 1029;
},
{
anchors = (
{
name = bottom;
pos = (331,0);
},
{
name = top;
pos = (331,700);
}
);
layerId = "2B3ECD2C-4B3A-40C3-8F2B-A5E41B85E4DD";
shapes = (
{
closed = 1;
nodes = (
(394,0,ls),
(520.667,0,o),
(611,86,o),
(611,206,cs),
(611,294,o),
(544,362,o),
(445,381,c),
(448,362,l),
(524,384,o),
(574,446,o),
(574,524,cs),
(574,626.667,o),
(494.667,700,o),
(384,700,cs),
(108,700,l),
(108,0,l)
);
},
{
closed = 1;
nodes = (
(158,339,l),
(383,339,ls),
(483,339,o),
(556,280.667,o),
(556,198,cs),
(556,111.333,o),
(485.333,50,o),
(388,50,cs),
(158,50,l)
);
},
{
closed = 1;
nodes = (
(158,650,l),
(376,650,ls),
(466.667,650,o),
(521,595,o),
(521,519,cs),
(521,445.667,o),
(461,389,o),
(378,389,cs),
(158,389,l)
);
}
);
userData = {
com.schriftgestaltung.Glyphs.glyph.leftMetricsKey = H;
com.schriftgestaltung.Glyphs.glyph.rightMetricsKey = O;
};
width = 661;
}
);
metricLeft = H;
metricRight = O;
unicode = 66;
},
{
color = 6;
glyphname = C;
kernLeft = C;
kernRight = C;
layers = (
{
anchors = (
{
name = bottom;
pos = (376,0);
},
{
name = top;
pos = (390,700);
}
);
layerId = "5A878C7E-547A-4951-B48F-676DBBC9B762";
shapes = (
{
closed = 1;
nodes = (
(480.667,-10,o),
(583.333,31.333,o),
(630,86,c),
(576,174,l),
(530.667,127.333,o),
(466.667,99,o),
(400,99,cs),
(256,99,o),
(158,196.667,o),
(158,350,cs),
(158,494,o),
(260.333,598,o),
(391,598,cs),
(453.667,598,o),
(513.667,568.667,o),
(571,510,c),
(643,585,l),
(593.667,655.667,o),
(492.333,706,o),
(391,706,cs),
(200.333,706,o),
(48,550,o),
(48,350,cs),
(48,138,o),
(187.333,-10,o),
(382,-10,cs)
);
}
);
width = 679;
},
{
anchors = (
{
name = bottom;
pos = (413,0);
},
{
name = top;
pos = (426,700);
}
);
layerId = "554F9022-F5DF-470A-8852-5D1AD00D5051";
shapes = (
{
closed = 1;
nodes = (
(529.333,-10,o),
(641,31,o),
(693,87,c),
(590,249,l),
(558,213,o),
(506,184,o),
(446,184,cs),
(334,184,o),
(262,250.667,o),
(262,352,cs),
(262,462.667,o),
(336,525,o),
(428,525,cs),
(493.333,525,o),
(537,497.667,o),
(565,463,c),
(694,614,l),
(624.667,686,o),
(527.333,720,o),
(430,720,cs),
(200.667,720,o),
(40,568.333,o),
(40,355,cs),
(40,141.667,o),
(198.667,-10,o),
(424,-10,cs)
);
}
);
width = 705;
},
{
anchors = (
{
name = bottom;
pos = (387,0);
},
{
name = top;
pos = (399,700);
}
);
layerId = "CCD999A9-9CE8-4787-8FD2-D5D19514269E";
shapes = (
{
closed = 1;
nodes = (
(495,-10,o),
(579,23.667,o),
(639,81,c),
(624,99,l),
(568,44.333,o),
(489.667,12,o),
(399,12,cs),
(213.667,12,o),
(78,151.333,o),
(78,346,cs),
(78,543.333,o),
(213.667,688,o),
(399,688,cs),
(496.333,688,o),
(578.333,644.667,o),
(637,578,c),
(655,594,l),
(592.333,664.667,o),
(504.333,710,o),
(399,710,cs),
(197.667,710,o),
(55,558,o),
(55,346,cs),
(55,136.667,o),
(197.667,-10,o),
(399,-10,cs)
);
}
);
userData = {
com.schriftgestaltung.Glyphs.glyph.leftMetricsKey = O;
};
width = 690;
},
{
anchors = (
{
name = bottom;
pos = (526,0);
},
{
name = top;
pos = (532,700);
}
);
layerId = "649E0662-786D-44F6-8E8D-A6782F19FFAA";
shapes = (
{
closed = 1;
nodes = (
(671,-10,o),
(793,57,o),
(850,104,c),
(798,194,l),
(738,150,o),
(659,95,o),
(540,95,cs),
(385,95,o),
(238,183,o),
(238,350,cs),
(238,503,o),
(381,600,o),
(522,600,cs),
(633,600,o),
(719,557,o),
(791,498,c),
(855,589,l),
(794,646,o),
(667,706,o),
(532,706,cs),
(316,706,o),
(128,555,o),
(128,350,cs),
(128,133,o),
(307,-10,o),
(532,-10,cs)
);
}
);
width = 981;
},
{
anchors = (
{
name = bottom;
pos = (551,0);
},
{
name = top;
pos = (559,700);
}
);
layerId = "9FF8E21A-ED06-4F66-AEDE-2CE647DC4B08";
shapes = (
{
closed = 1;
nodes = (
(682,-10,o),
(787,32,o),
(860,97,c),
(849,116,l),
(777,52,o),
(678,12,o),
(559,12,cs),
(324,12,o),
(158,156,o),
(158,349,cs),
(158,542,o),
(324,688,o),
(559,688,cs),
(683,688,o),
(789,643,o),
(858,574,c),
(866,596,l),
(793,665,o),
(686,710,o),
(559,710,cs),
(308,710,o),
(135,554,o),
(135,349,cs),
(135,144,o),
(308,-10,o),
(559,-10,cs)
);
}
);
userData = {
com.schriftgestaltung.Glyphs.glyph.leftMetricsKey = O;
};
width = 992;
},
{
anchors = (
{
name = bottom;
pos = (573,0);
},
{
name = top;
pos = (567,700);
}
);
layerId = "ED109265-B005-47B0-97BD-F1815082B32B";
shapes = (
{
closed = 1;
nodes = (
(719,-10,o),
(850,57,o),
(913,105,c),
(812,269,l),
(765,236,o),
(698,180,o),
(586,180,cs),
(463,180,o),
(342,237,o),
(342,352,cs),
(342,472,o),
(456,527,o),
(559,527,cs),
(672,527,o),
(742,486,o),
(785,451,c),
(906,618,l),
(825,677,o),
(702,720,o),
(571,720,cs),
(316,720,o),
(120,574,o),
(120,355,cs),
(120,136,o),
(318,-10,o),
(574,-10,cs)
);
}
);
width = 1007;
},
{
anchors = (
{
name = bottom;
pos = (382,0);
},
{
name = top;
pos = (392,700);
}
);
layerId = "2B3ECD2C-4B3A-40C3-8F2B-A5E41B85E4DD";
shapes = (
{
closed = 1;
nodes = (
(488.333,-10,o),
(584,30,o),
(632,86,c),
(605,130,l),
(567.667,78,o),
(483,40,o),
(403,40,cs),
(228.333,40,o),
(103,170,o),
(103,350,cs),
(103,527.333,o),
(223.667,655,o),
(393,655,cs),
(474.333,655,o),
(564,610,o),
(608,546,c),
(645,585,l),
(591.667,654.333,o),
(486.333,705,o),
(393,705,cs),
(193,705,o),
(50,556.667,o),
(50,350,cs),
(50,140.667,o),
(197.667,-10,o),
(403,-10,cs)
);
}
);
userData = {
com.schriftgestaltung.Glyphs.glyph.leftMetricsKey = O;
};
width = 674;
}
);
metricLeft = O;
unicode = 67;
},
{
color = 6;
glyphname = D;
kernLeft = H;
kernRight = D;
layers = (
{
anchors = (
{
name = bottom;
pos = (374,0);
},
{
name = center;
pos = (188,350);
},
{
name = top;
pos = (374,700);
}
);
layerId = "5A878C7E-547A-4951-B48F-676DBBC9B762";
shapes = (
{
closed = 1;
nodes = (
(372,0,ls),
(573.333,0,o),
(700,140.667,o),
(700,350,cs),
(700,558,o),
(572,700,o),
(372,700,cs),
(98,700,l),
(98,0,l)
);
},
{
closed = 1;
nodes = (
(206,605,l),
(200,596,l),
(367,596,ls),
(507,596,o),
(590,502,o),
(590,350,cs),
(590,196.667,o),
(508.333,104,o),
(367,104,cs),
(203,104,l),
(206,93,l)
);
}
);
width = 748;
},
{
anchors = (
{
name = bottom;
pos = (395,0);
},
{
name = center;
pos = (209,350);
},
{
name = top;
pos = (395,700);
}
);
layerId = "554F9022-F5DF-470A-8852-5D1AD00D5051";
shapes = (
{
closed = 1;
nodes = (
(388,0,ls),
(598.667,0,o),
(750,146,o),
(750,350,cs),
(750,554,o),
(598.667,700,o),
(388,700,cs),
(80,700,l),
(80,0,l)
);
},
{
closed = 1;
nodes = (
(296,565,l),
(256,516,l),
(383,516,ls),
(469.667,516,o),
(532,446,o),
(532,350,cs),
(532,254,o),
(469.667,184,o),
(383,184,cs),
(259,184,l),
(296,133,l)
);
}
);
width = 790;
},
{
anchors = (
{
name = bottom;
pos = (369,0);
},
{
name = center;
pos = (158,350);
},
{
name = top;
pos = (369,700);
}
);
layerId = "CCD999A9-9CE8-4787-8FD2-D5D19514269E";
shapes = (
{
closed = 1;
nodes = (
(357,0,ls),
(527.667,0,o),
(682,148.667,o),
(682,350,cs),
(682,552.667,o),
(527.667,700,o),
(357,700,cs),
(110,700,l),
(110,0,l)
);
},
{
closed = 1;
nodes = (
(132,689,l),
(121,678,l),
(352,678,ls),
(513.333,678,o),
(659,536.667,o),
(659,350,cs),
(659,164.667,o),
(513.333,22,o),
(352,22,cs),
(122,22,l),
(132,13,l)
);
}
);
userData = {
com.schriftgestaltung.Glyphs.glyph.leftMetricsKey = H;
com.schriftgestaltung.Glyphs.glyph.rightMetricsKey = O;
};
width = 737;
},
{
anchors = (
{
name = bottom;
pos = (531,0);
},
{
name = center;
pos = (303,350);
},
{
name = top;
pos = (531,700);
}
);
layerId = "649E0662-786D-44F6-8E8D-A6782F19FFAA";
shapes = (
{
closed = 1;
nodes = (
(536,0,ls),
(793,0,o),
(929,158,o),
(929,350,cs),
(929,539,o),
(793,700,o),
(536,700,cs),
(182,700,l),
(182,0,l)
);
},
{
closed = 1;
nodes = (
(290,605,l),
(284,596,l),
(531,596,ls),
(730,596,o),
(814,482,o),
(814,350,cs),
(814,215,o),
(730,104,o),
(531,104,cs),
(287,104,l),
(290,93,l)
);
}
);
width = 1057;
},
{
anchors = (
{
name = bottom;
pos = (525,0);
},
{
name = center;
pos = (300,350);
},
{
name = top;
pos = (525,700);
}
);
layerId = "9FF8E21A-ED06-4F66-AEDE-2CE647DC4B08";
shapes = (
{
closed = 1;
nodes = (
(521,0,ls),
(748,0,o),
(911,146,o),
(911,350,cs),
(911,554,o),
(748,700,o),
(521,700,cs),
(194,700,l),
(194,0,l)
);
},
{
closed = 1;
nodes = (
(216,689,l),
(205,678,l),
(516,678,ls),
(732,678,o),
(888,541,o),
(888,350,cs),
(888,159,o),
(732,22,o),
(516,22,cs),
(206,22,l),
(216,13,l)
);
}
);
userData = {
com.schriftgestaltung.Glyphs.glyph.leftMetricsKey = H;
com.schriftgestaltung.Glyphs.glyph.rightMetricsKey = O;
};
width = 1046;
},
{
anchors = (
{
name = bottom;
pos = (552,0);
},
{
name = center;
pos = (324,350);
},
{
name = top;
pos = (552,700);
}
);
layerId = "ED109265-B005-47B0-97BD-F1815082B32B";
shapes = (
{
closed = 1;
nodes = (
(552,0,ls),
(819,0,o),
(979,163,o),
(979,350,cs),
(979,535,o),
(820,700,o),
(552,700,cs),
(164,700,l),
(164,0,l)
);
},
{
closed = 1;
nodes = (
(380,565,l),
(340,516,l),
(547,516,ls),
(692,516,o),
(756,426,o),
(756,350,cs),
(756,273,o),
(691,184,o),
(547,184,cs),
(343,184,l),
(380,133,l)
);
}
);
width = 1099;
},
{
anchors = (
{
name = bottom;
pos = (370,0);
},
{
name = center;
pos = (176,350);
},
{
name = top;
pos = (370,700);
}
);
layerId = "2B3ECD2C-4B3A-40C3-8F2B-A5E41B85E4DD";
shapes = (
{
closed = 1;
nodes = (
(363,0,ls),
(543,0,o),
(689,146,o),
(689,350,cs),
(689,554,o),
(543,700,o),
(363,700,cs),
(108,700,l),
(108,0,l)
);
},
{
closed = 1;
nodes = (
(158,665,l),
(141,650,l),
(358,650,ls),
(510,650,o),
(636,524.667,o),
(636,350,cs),
(636,175.333,o),
(510,50,o),
(358,50,cs),
(144,50,l),
(158,33,l)
);
}
);
userData = {
com.schriftgestaltung.Glyphs.glyph.leftMetricsKey = H;
com.schriftgestaltung.Glyphs.glyph.rightMetricsKey = O;
};
width = 739;
}
);
metricLeft = H;
metricRight = O;
unicode = 68;
},
{
color = 3;
glyphname = Eth;
kernLeft = H;
kernRight = D;
layers = (
{
layerId = "CCD999A9-9CE8-4787-8FD2-D5D19514269E";
shapes = (
{
closed = 1;
nodes = (
(292,339,l),
(292,360,l),
(24,360,l),
(24,339,l)
);
},
{
ref = D;
}
);
width = 737;
},
{
layerId = "5A878C7E-547A-4951-B48F-676DBBC9B762";
shapes = (
{
closed = 1;
nodes = (
(317,305,l),
(317,395,l),
(49,395,l),
(49,305,l)
);
},
{
ref = D;
}
);
width = 748;
},
{
layerId = "554F9022-F5DF-470A-8852-5D1AD00D5051";
shapes = (
{
closed = 1;
nodes = (
(393,280,l),
(393,420,l),
(25,420,l),
(25,280,l)
);
},
{
ref = D;
}
);
width = 790;
},
{
layerId = "649E0662-786D-44F6-8E8D-A6782F19FFAA";
shapes = (
{
closed = 1;
nodes = (
(507,307,l),
(507,393,l),
(99,393,l),
(99,307,l)
);
},
{
ref = D;
}
);
width = 1057;
},
{
layerId = "9FF8E21A-ED06-4F66-AEDE-2CE647DC4B08";
shapes = (
{
closed = 1;
nodes = (
(504,341,l),
(504,358,l),
(96,358,l),
(96,341,l)
);
},
{
ref = D;
}
);
width = 1046;
},
{
layerId = "ED109265-B005-47B0-97BD-F1815082B32B";
shapes = (
{
closed = 1;
nodes = (
(583,282,l),
(583,418,l),
(75,418,l),
(75,282,l)
);
},
{
ref = D;
}
);
userData = {
com.schriftgestaltung.Glyphs.glyph.rightMetricsKey = D;
};
width = 1099;
},
{
anchors = (
{
name = bottom;
pos = (552,0);
},
{
name = center;
pos = (324,350);
},
{
name = top;
pos = (552,700);
}
);
associatedMasterId = "ED109265-B005-47B0-97BD-F1815082B32B";
layerId = "3E59D328-E2FE-4C7E-8A09-4A8E4E6C4660";
name = foreground;
shapes = (
{
closed = 1;
nodes = (
(583,282,l),
(583,418,l),
(75,418,l),
(75,282,l)
);
},
{
ref = D;
}
);
userData = {
com.schriftgestaltung.Glyphs.glyph.rightMetricsKey = D;
};
width = 1099;
},
{
layerId = "2B3ECD2C-4B3A-40C3-8F2B-A5E41B85E4DD";
shapes = (
{
closed = 1;
nodes = (
(310,327,l),
(310,372,l),
(42,372,l),
(42,327,l)
);
},
{
ref = D;
}
);
width = 739;
}
);
unicode = 208;
},
{
color = 6;
glyphname = E;
kernLeft = H;
kernRight = E;
layers = (
{
anchors = (
{
name = bottom;
pos = (307,0);
},
{
name = ogonek;
pos = (509,0);
},
{
name = top;
pos = (327,700);
},
{
name = topleft;
pos = (20,700);
}
);
layerId = "5A878C7E-547A-4951-B48F-676DBBC9B762";
shapes = (
{
closed = 1;
nodes = (
(539,0,l),
(539,104,l),
(206,104,l),
(206,596,l),
(539,596,l),
(539,700,l),
(98,700,l),
(98,0,l)
);
},
{
closed = 1;
nodes = (
(484,307,l),
(484,411,l),
(147,411,l),
(147,307,l)
);
}
);
width = 614;
},
{
anchors = (
{
name = bottom;
pos = (334,0);
},
{
name = ogonek;
pos = (571,0);
},
{
name = top;
pos = (354,700);
},
{
name = topleft;
pos = (20,700);
}
);
layerId = "554F9022-F5DF-470A-8852-5D1AD00D5051";
shapes = (
{
closed = 1;
nodes = (
(621,0,l),
(621,175,l),
(287,175,l),
(287,525,l),
(603,525,l),
(603,700,l),
(80,700,l),
(80,0,l)
);
},
{
closed = 1;
nodes = (
(566,272,l),
(566,436,l),
(183,436,l),
(183,272,l)
);
}
);
width = 668;
},
{
anchors = (
{
name = bottom;
pos = (283,0);
},
{
name = ogonek;
pos = (475,0);
},
{
name = top;
pos = (313,700);
},
{
name = topleft;
pos = (20,700);
}
);
layerId = "CCD999A9-9CE8-4787-8FD2-D5D19514269E";
shapes = (
{
closed = 1;
nodes = (
(495,0,l),
(495,22,l),
(132,22,l),
(132,678,l),
(501,678,l),
(501,700,l),
(110,700,l),
(110,0,l)
);
},
{
closed = 1;
nodes = (
(443,351,l),
(443,373,l),
(123,373,l),
(123,351,l)
);
}
);
userData = {
com.schriftgestaltung.Glyphs.glyph.leftMetricsKey = H;
};
width = 566;
},
{
anchors = (
{
name = bottom;
pos = (461,0);
},
{
name = ogonek;
pos = (723,0);
},
{
name = top;
pos = (481,700);
},
{
name = topleft;
pos = (104,700);
}
);
layerId = "649E0662-786D-44F6-8E8D-A6782F19FFAA";
shapes = (
{
closed = 1;
nodes = (
(763,0,l),
(763,104,l),
(290,104,l),
(290,596,l),
(763,596,l),
(763,700,l),
(182,700,l),
(182,0,l)
);
},
{
closed = 1;
nodes = (
(708,307,l),
(708,411,l),
(241,411,l),
(241,307,l)
);
}
);
width = 923;
},
{
anchors = (
{
name = bottom;
pos = (437,0);
},
{
name = ogonek;
pos = (698,0);
},
{
name = top;
pos = (467,700);
},
{
name = topleft;
pos = (104,700);
}
);
layerId = "9FF8E21A-ED06-4F66-AEDE-2CE647DC4B08";
shapes = (
{
closed = 1;
nodes = (
(719,0,l),
(719,22,l),
(216,22,l),
(216,678,l),
(725,678,l),
(725,700,l),
(194,700,l),
(194,0,l)
);
},
{
closed = 1;
nodes = (
(667,351,l),
(667,373,l),
(206,373,l),
(206,351,l)
);
}
);
userData = {
com.schriftgestaltung.Glyphs.glyph.leftMetricsKey = H;
};
width = 875;
},
{
anchors = (
{
name = bottom;
pos = (488,0);
},
{
name = ogonek;
pos = (785,0);
},
{
name = top;
pos = (518,700);
},
{
name = topleft;
pos = (104,700);
}
);
layerId = "ED109265-B005-47B0-97BD-F1815082B32B";
shapes = (
{
closed = 1;
nodes = (
(845,0,l),
(845,175,l),
(371,175,l),
(371,525,l),
(827,525,l),
(827,700,l),
(164,700,l),
(164,0,l)
);
},
{
closed = 1;
nodes = (
(790,272,l),
(790,436,l),
(277,436,l),
(277,272,l)
);
}
);
width = 977;
},
{
anchors = (
{
name = bottom;
pos = (293,0);
},
{
name = ogonek;
pos = (471,0);
},
{
name = top;
pos = (323,700);
},
{
name = topleft;
pos = (20,700);
}
);
layerId = "2B3ECD2C-4B3A-40C3-8F2B-A5E41B85E4DD";
shapes = (
{
closed = 1;
nodes = (
(511,0,l),
(511,50,l),
(158,50,l),
(158,650,l),
(515,650,l),
(515,700,l),
(108,700,l),
(108,0,l)
);
},
{
closed = 1;
nodes = (
(458,336,l),
(458,386,l),
(132,386,l),
(132,336,l)
);
}
);
userData = {
com.schriftgestaltung.Glyphs.glyph.leftMetricsKey = H;
};
width = 585;
}
);
metricLeft = H;
unicode = 69;
},
{
color = 6;
glyphname = F;
kernLeft = H;
kernRight = F;
layers = (
{
anchors = (
{
name = bottom;
pos = (301,0);
},
{
name = top;
pos = (301,700);
}
);
layerId = "5A878C7E-547A-4951-B48F-676DBBC9B762";
shapes = (
{
closed = 1;
nodes = (
(206,0,l),
(206,700,l),
(98,700,l),
(98,0,l)
);
},
{
closed = 1;
nodes = (
(507,298,l),
(507,402,l),
(146,402,l),
(146,298,l)
);
},
{
closed = 1;
nodes = (
(552,596,l),
(552,700,l),
(146,700,l),
(146,596,l)
);
}
);
width = 602;
},
{
anchors = (
{
name = bottom;
pos = (315,0);
},
{
name = top;
pos = (315,700);
}
);
layerId = "554F9022-F5DF-470A-8852-5D1AD00D5051";
shapes = (
{
closed = 1;
nodes = (
(296,0,l),
(296,700,l),
(80,700,l),
(80,0,l)
);
},
{
closed = 1;
nodes = (
(546,246,l),
(546,416,l),
(183,416,l),
(183,246,l)
);
},
{
closed = 1;
nodes = (
(583,516,l),
(583,700,l),
(183,700,l),
(183,516,l)
);
}
);
width = 630;
},
{
anchors = (
{
name = bottom;
pos = (288,0);
},
{
name = top;
pos = (288,700);
}
);
layerId = "CCD999A9-9CE8-4787-8FD2-D5D19514269E";
shapes = (
{
closed = 1;
nodes = (
(132,0,l),
(132,700,l),
(110,700,l),
(110,0,l)
);
},
{
closed = 1;
nodes = (
(444,341,l),
(444,363,l),
(122,363,l),
(122,341,l)
);
},
{
closed = 1;
nodes = (
(501,678,l),
(501,700,l),
(123,700,l),
(123,678,l)
);
}
);
userData = {
com.schriftgestaltung.Glyphs.glyph.leftMetricsKey = H;
};
width = 575;
},
{
anchors = (
{
name = bottom;
pos = (445,0);
},
{
name = top;
pos = (445,700);
}
);
layerId = "649E0662-786D-44F6-8E8D-A6782F19FFAA";
shapes = (
{
closed = 1;
nodes = (
(290,0,l),
(290,700,l),
(182,700,l),
(182,0,l)
);
},
{
closed = 1;
nodes = (
(711,288,l),
(711,392,l),
(218,392,l),
(218,288,l)
);
},
{
closed = 1;
nodes = (
(756,596,l),
(756,700,l),
(232,700,l),
(232,596,l)
);
}
);
width = 896;
},
{
anchors = (
{
name = bottom;
pos = (432,0);
},
{
name = top;
pos = (432,700);
}
);
layerId = "9FF8E21A-ED06-4F66-AEDE-2CE647DC4B08";
shapes = (
{
closed = 1;
nodes = (
(216,0,l),
(216,700,l),
(194,700,l),
(194,0,l)
);
},
{
closed = 1;
nodes = (
(648,331,l),
(648,353,l),
(204,353,l),
(204,331,l)
);
},
{
closed = 1;
nodes = (
(705,678,l),
(705,700,l),
(209,700,l),
(209,678,l)
);
}
);
userData = {
com.schriftgestaltung.Glyphs.glyph.leftMetricsKey = H;
};
width = 869;
},
{
anchors = (
{
name = bottom;
pos = (459,0);
},
{
name = top;
pos = (459,700);
}
);
layerId = "ED109265-B005-47B0-97BD-F1815082B32B";
shapes = (
{
closed = 1;
nodes = (
(380,0,l),
(380,700,l),
(164,700,l),
(164,0,l)
);
},
{
closed = 1;
nodes = (
(750,236,l),
(750,406,l),
(255,406,l),
(255,236,l)
);
},
{
closed = 1;
nodes = (
(787,516,l),
(787,700,l),
(269,700,l),
(269,516,l)
);
}
);
width = 924;
},
{
anchors = (
{
name = bottom;
pos = (293,0);
},
{
name = top;
pos = (293,700);
}
);
layerId = "2B3ECD2C-4B3A-40C3-8F2B-A5E41B85E4DD";
shapes = (
{
closed = 1;
nodes = (
(158,0,l),
(158,700,l),
(108,700,l),
(108,0,l)
);
},
{
closed = 1;
nodes = (
(486,326,l),
(486,376,l),
(139,376,l),
(139,326,l)
);
},
{
closed = 1;
nodes = (
(535,650,l),
(535,700,l),
(138,700,l),
(138,650,l)
);
}
);
userData = {
com.schriftgestaltung.Glyphs.glyph.leftMetricsKey = H;
};
width = 585;
}
);
metricLeft = H;
unicode = 70;
},
{
color = 6;
glyphname = G;
kernLeft = C;
kernRight = G;
layers = (
{
anchors = (
{
name = bottom;
pos = (383,0);
},
{
name = top;
pos = (403,700);
}
);
layerId = "5A878C7E-547A-4951-B48F-676DBBC9B762";
shapes = (
{
closed = 1;
nodes = (
(585.869,-10,o),
(723,115.261,o),
(723,299,cs),
(723,317.667,o),
(722,336.333,o),
(718,359,c),
(408,359,l),
(408,252,l),
(622,252,l),
(607,266,l),
(607,246,ls),
(607,162,o),
(519.333,95,o),
(414,95,cs),
(274,95,o),
(158,210,o),
(158,350,cs),
(158,492.667,o),
(267.333,601,o),
(410,601,cs),
(476.667,601,o),
(542,571.333,o),
(602,514,c),
(672,587,l),
(620,657.667,o),
(516.667,706,o),
(410,706,cs),
(206,706,o),
(48,551.333,o),
(48,350,cs),
(48,147.333,o),
(207,-10,o),
(411,-10,cs)
);
}
);
width = 766;
},
{
anchors = (
{
name = bottom;
pos = (397,0);
},
{
name = top;
pos = (418,700);
}
);
layerId = "554F9022-F5DF-470A-8852-5D1AD00D5051";
shapes = (
{
closed = 1;
nodes = (
(611.333,-10,o),
(753,119,o),
(753,299,cs),
(753,317.667,o),
(750.667,395.333,o),
(748,418,c),
(404,418,l),
(404,266,l),
(582,266,l),
(554,314,l),
(554,285,ls),
(554,221,o),
(504,174,o),
(436,174,cs),
(334.667,174,o),
(262,249.667,o),
(262,355,cs),
(262,460.333,o),
(332.333,536,o),
(427,536,cs),
(497.667,536,o),
(544,508.333,o),
(584,471,c),
(712,607,l),
(650.667,671,o),
(551.333,720,o),
(430,720,cs),
(195.333,720,o),
(40,567,o),
(40,355,cs),
(40,143,o),
(174,-10,o),
(414,-10,cs)
);
}
);
width = 793;
},
{
anchors = (
{
name = bottom;
pos = (384,0);
},
{
name = top;
pos = (397,700);
}
);
layerId = "CCD999A9-9CE8-4787-8FD2-D5D19514269E";
shapes = (
{
closed = 1;
nodes = (
(598.667,-10,o),
(722,111,o),
(722,339,cs),
(722,343,o),
(722,346.167,o),
(722,358,c),
(409,358,l),
(409,336,l),
(705,336,l),
(699,341,l),
(699,322,ls),
(699,138,o),
(592,12,o),
(400,12,cs),
(214.667,12,o),
(78,151.333,o),
(78,346,cs),
(78,543.333,o),
(213.667,688,o),
(399,688,cs),
(504.333,688,o),
(593.667,640,o),
(651,564,c),
(668,580,l),
(604,658.667,o),
(512.333,710,o),
(399,710,cs),
(197.667,710,o),
(55,558,o),
(55,346,cs),
(55,136.667,o),
(198.667,-10,o),
(400,-10,cs)
);
}
);
userData = {
com.schriftgestaltung.Glyphs.glyph.leftMetricsKey = O;
};
width = 767;
},
{
anchors = (
{
name = bottom;
pos = (543,0);
},
{
name = top;
pos = (559,700);
}
);
layerId = "649E0662-786D-44F6-8E8D-A6782F19FFAA";
shapes = (
{
closed = 1;
nodes = (
(791,-10,o),
(962,92,o),
(962,303,cs),
(962,310,o),
(962,318,o),
(958,349,c),
(558,349,l),
(558,244,l),
(857,244,l),
(841,266,l),
(842,253,ls),
(849,161,o),
(716,95,o),
(553,95,cs),
(394,95,o),
(243,173,o),
(243,350,cs),
(243,493,o),
(381,601,o),
(560,601,cs),
(660,601,o),
(750,563,o),
(822,508,c),
(892,587,l),
(835,648,o),
(711,706,o),
(560,706,cs),
(319,706,o),
(128,551,o),
(128,350,cs),
(128,113,o),
(323,-10,o),
(544,-10,cs)
);
}
);
width = 1082;
},
{
anchors = (
{
name = bottom;
pos = (543,0);
},
{
name = top;
pos = (558,700);
}
);
layerId = "9FF8E21A-ED06-4F66-AEDE-2CE647DC4B08";
shapes = (
{
closed = 1;
nodes = (
(794,-10,o),
(961,149,o),
(961,337,cs),
(961,339,o),
(961,341,o),
(961,348,c),
(559,348,l),
(559,326,l),
(950,326,l),
(939,337,l),
(939,329,ls),
(939,165,o),
(778,12,o),
(559,12,cs),
(324,12,o),
(158,156,o),
(158,349,cs),
(158,542,o),
(324,688,o),
(559,688,cs),
(683,688,o),
(789,643,o),
(858,574,c),
(866,596,l),
(793,665,o),
(686,710,o),
(559,710,cs),
(308,710,o),
(135,554,o),
(135,349,cs),
(135,144,o),
(308,-10,o),
(559,-10,cs)
);
}
);
userData = {
com.schriftgestaltung.Glyphs.glyph.leftMetricsKey = O;
};
width = 1083;
},
{
anchors = (
{
name = bottom;
pos = (557,0);
},
{
name = top;
pos = (576,700);
}
);
layerId = "ED109265-B005-47B0-97BD-F1815082B32B";
shapes = (
{
closed = 1;
nodes = (
(816,-10,o),
(992,96,o),
(992,303,cs),
(992,310,o),
(990,377,o),
(988,408,c),
(554,408,l),
(554,258,l),
(817,258,l),
(788,314,l),
(788,292,ls),
(788,220,o),
(700,174,o),
(575,174,cs),
(455,174,o),
(347,212,o),
(347,355,cs),
(347,460,o),
(446,536,o),
(577,536,cs),
(681,536,o),
(752,500,o),
(804,465,c),
(932,607,l),
(865,662,o),
(745,720,o),
(580,720,cs),
(308,720,o),
(120,567,o),
(120,355,cs),
(120,108,o),
(290,-10,o),
(547,-10,cs)
);
}
);
width = 1109;
},
{
anchors = (
{
name = bottom;
pos = (381,0);
},
{
name = top;
pos = (404,700);
}
);
layerId = "2B3ECD2C-4B3A-40C3-8F2B-A5E41B85E4DD";
shapes = (
{
closed = 1;
nodes = (
(588.333,-10,o),
(724,109,o),
(724,273,cs),
(724,291.667,o),
(722.333,321.333,o),
(721,332,c),
(416,332,l),
(416,282,l),
(692,282,l),
(674,308,l),
(674,260,ls),
(674,134.667,o),
(566.333,40,o),
(417,40,cs),
(238.333,40,o),
(103,168.333,o),
(103,347,cs),
(103,525.667,o),
(235,655,o),
(407,655,cs),
(489.667,655,o),
(587,612,o),
(639,552,c),
(673,587,l),
(622.333,655,o),
(510.333,705,o),
(405,705,cs),
(203.667,705,o),
(50,555,o),
(50,347,cs),
(50,139,o),
(207,-10,o),
(415,-10,cs)
);
}
);
userData = {
com.schriftgestaltung.Glyphs.glyph.leftMetricsKey = O;
};
width = 762;
}
);
metricLeft = O;
unicode = 71;
},
{
color = 6;
glyphname = H;
kernLeft = H;
kernRight = H;
layers = (
{
anchors = (
{
name = bottom;
pos = (381,0);
},
{
name = center;
pos = (381,350);
},
{
name = top;
pos = (381,700);
},
{
name = topleft;
pos = (20,700);
}
);
layerId = "5A878C7E-547A-4951-B48F-676DBBC9B762";
shapes = (
{
closed = 1;
nodes = (
(663,0,l),
(663,700,l),
(555,700,l),
(555,0,l)
);
},
{
closed = 1;
nodes = (
(206,0,l),
(206,700,l),
(98,700,l),
(98,0,l)
);
},
{
closed = 1;
nodes = (
(603,297,l),
(603,401,l),
(145,401,l),
(145,297,l)
);
}
);
width = 761;
},
{
anchors = (
{
name = bottom;
pos = (397,0);
},
{
name = center;
pos = (397,350);
},
{
name = top;
pos = (397,700);
},
{
name = topleft;
pos = (20,700);
}
);
layerId = "554F9022-F5DF-470A-8852-5D1AD00D5051";
shapes = (
{
closed = 1;
nodes = (
(713,0,l),
(713,700,l),
(497,700,l),
(497,0,l)
);
},
{
closed = 1;
nodes = (
(296,0,l),
(296,700,l),
(80,700,l),
(80,0,l)
);
},
{
closed = 1;
nodes = (
(619,255,l),
(619,443,l),
(162,443,l),
(161,255,l)
);
}
);
width = 793;
},
{
anchors = (
{
name = bottom;
pos = (366,0);
},
{
name = center;
pos = (366,350);
},
{
name = top;
pos = (366,700);
},
{
name = topleft;
pos = (20,700);
}
);
layerId = "CCD999A9-9CE8-4787-8FD2-D5D19514269E";
shapes = (
{
closed = 1;
nodes = (
(621,0,l),
(621,700,l),
(599,700,l),
(599,0,l)
);
},
{
closed = 1;
nodes = (
(132,0,l),
(132,700,l),
(110,700,l),
(110,0,l)
);
},
{
closed = 1;
nodes = (
(610,338,l),
(610,360,l),
(121,360,l),
(121,338,l)
);
}
);
width = 732;
},
{
anchors = (
{
name = bottom;
pos = (535,0);
},
{
name = center;
pos = (535,350);
},
{
name = top;
pos = (535,700);
},
{
name = topleft;
pos = (104,700);
}
);
layerId = "649E0662-786D-44F6-8E8D-A6782F19FFAA";
shapes = (
{
closed = 1;
nodes = (
(887,0,l),
(887,700,l),
(779,700,l),
(779,0,l)
);
},
{
closed = 1;
nodes = (
(290,0,l),
(290,700,l),
(182,700,l),
(182,0,l)
);
},
{
closed = 1;
nodes = (
(827,293,l),
(827,397,l),
(230,397,l),
(229,293,l)
);
}
);
width = 1069;
},
{
anchors = (
{
name = bottom;
pos = (520,0);
},
{
name = center;
pos = (520,350);
},
{
name = top;
pos = (520,700);
},
{
name = topleft;
pos = (104,700);
}
);
layerId = "9FF8E21A-ED06-4F66-AEDE-2CE647DC4B08";
shapes = (
{
closed = 1;
nodes = (
(845,0,l),
(845,700,l),
(823,700,l),
(823,0,l)
);
},
{
closed = 1;
nodes = (
(216,0,l),
(216,700,l),
(194,700,l),
(194,0,l)
);
},
{
closed = 1;
nodes = (
(834,334,l),
(834,356,l),
(206,356,l),
(205,334,l)
);
}
);
width = 1040;
},
{
anchors = (
{
name = bottom;
pos = (551,0);
},
{
name = center;
pos = (551,350);
},
{
name = top;
pos = (551,700);
},
{
name = topleft;
pos = (104,700);
}
);
layerId = "ED109265-B005-47B0-97BD-F1815082B32B";
shapes = (
{
closed = 1;
nodes = (
(937,0,l),
(937,700,l),
(721,700,l),
(721,0,l)
);
},
{
closed = 1;
nodes = (
(380,0,l),
(380,700,l),
(164,700,l),
(164,0,l)
);
},
{
closed = 1;
nodes = (
(843,251,l),
(843,439,l),
(247,439,l),
(245,251,l)
);
}
);
width = 1101;
},
{
anchors = (
{
name = bottom;
pos = (372,0);
},
{
name = center;
pos = (372,350);
},
{
name = top;
pos = (372,700);
},
{
name = topleft;
pos = (20,700);
}
);
layerId = "2B3ECD2C-4B3A-40C3-8F2B-A5E41B85E4DD";
shapes = (
{
closed = 1;
nodes = (
(636,0,l),
(636,700,l),
(586,700,l),
(586,0,l)
);
},
{
closed = 1;
nodes = (
(158,0,l),
(158,700,l),
(108,700,l),
(108,0,l)
);
},
{
closed = 1;
nodes = (
(604,324,l),
(604,374,l),
(137,374,l),
(137,324,l)
);
}
);
width = 744;
}
);
unicode = 72;
},
{
color = 3;
glyphname = Hbar;
layers = (
{
layerId = "5A878C7E-547A-4951-B48F-676DBBC9B762";
shapes = (
{
closed = 1;
nodes = (
(163,468,l),
(209,478,l),
(625,478,l),
(656,468,l),
(800,468,l),
(800,572,l),
(649,572,l),
(613,562,l),
(219,562,l),
(173,572,l),
(57,572,l),
(57,468,l)
);
},
{
pos = (48,0);
ref = H;
}
);
width = 857;
},
{
layerId = "554F9022-F5DF-470A-8852-5D1AD00D5051";
shapes = (
{
closed = 1;
nodes = (
(90,488,l),
(179,498,l),
(595,498,l),
(703,488,l),
(780,488,l),
(780,652,l),
(703,652,l),
(583,642,l),
(189,642,l),
(90,652,l),
(17,652,l),
(17,488,l)
);
},
{
pos = (2,0);
ref = H;
}
);
width = 793;
},
{
layerId = "CCD999A9-9CE8-4787-8FD2-D5D19514269E";
shapes = (
{
closed = 1;
nodes = (
(116,541,l),
(126,541,l),
(609,541,l),
(614,541,l),
(706,541,l),
(706,562,l),
(614,562,l),
(608,562,l),
(126,562,l),
(118,562,l),
(24,562,l),
(24,541,l)
);
},
{
ref = H;
}
);
width = 731;
},
{
layerId = "649E0662-786D-44F6-8E8D-A6782F19FFAA";
shapes = (
{
closed = 1;
nodes = (
(301,468,l),
(337,478,l),
(964,478,l),
(985,468,l),
(1144,468,l),
(1144,572,l),
(988,572,l),
(952,562,l),
(347,562,l),
(301,572,l),
(145,572,l),
(145,468,l)
);
},
{
pos = (110,0);
ref = H;
}
);
width = 1289;
},
{
layerId = "9FF8E21A-ED06-4F66-AEDE-2CE647DC4B08";
shapes = (
{
closed = 1;
nodes = (
(184,541,l),
(196,541,l),
(815,541,l),
(824,541,l),
(985,541,l),
(985,562,l),
(824,562,l),
(815,562,l),
(196,562,l),
(185,562,l),
(24,562,l),
(24,541,l)
);
},
{
pos = (-15,0);
ref = H;
}
);
width = 1010;
},
{
layerId = "ED109265-B005-47B0-97BD-F1815082B32B";
shapes = (
{
closed = 1;
nodes = (
(296,488,l),
(375,498,l),
(854,498,l),
(949,488,l),
(1121,488,l),
(1121,652,l),
(959,652,l),
(842,642,l),
(385,642,l),
(286,652,l),
(105,652,l),
(105,488,l)
);
},
{
pos = (64,0);
ref = H;
}
);
width = 1225;
},
{
anchors = (
{
name = bottom;
pos = (615,0);
},
{
name = center;
pos = (615,350);
},
{
name = top;
pos = (615,700);
},
{
name = topleft;
pos = (168,700);
}
);
associatedMasterId = "ED109265-B005-47B0-97BD-F1815082B32B";
layerId = "5649F0CE-E671-40A5-9A69-936009EE2009";
name = foreground;
shapes = (
{
closed = 1;
nodes = (
(296,488,l),
(375,498,l),
(854,498,l),
(949,488,l),
(1121,488,l),
(1121,652,l),
(959,652,l),
(842,642,l),
(385,642,l),
(286,652,l),
(105,652,l),
(105,488,l)
);
},
{
pos = (64,0);
ref = H;
}
);
width = 1225;
},
{
layerId = "2B3ECD2C-4B3A-40C3-8F2B-A5E41B85E4DD";
shapes = (
{
closed = 1;
nodes = (
(117,536,l),
(148,536,l),
(600,536,l),
(623,536,l),
(716,536,l),
(716,582,l),
(618,582,l),
(601,582,l),
(143,582,l),
(117,582,l),
(28,582,l),
(28,536,l)
);
},
{
ref = H;
}
);
width = 744;
}
);
unicode = 294;
},
{
color = 6;
glyphname = I;
kernLeft = I;
kernRight = I;
layers = (
{
anchors = (
{
name = bottom;
pos = (239,0);
},
{
name = ogonek;
pos = (343,0);
},
{
name = top;
pos = (239,700);
},
{
name = topleft;
pos = (20,700);
}
);
layerId = "5A878C7E-547A-4951-B48F-676DBBC9B762";
shapes = (
{
closed = 1;
nodes = (
(406,0,l),
(406,100,l),
(293,100,l),
(293,600,l),
(406,600,l),
(406,700,l),
(72,700,l),
(72,600,l),
(185,600,l),
(185,100,l),
(72,100,l),
(72,0,l)
);
}
);
width = 478;
},
{
anchors = (
{
name = bottom;
pos = (306,0);
},
{
name = ogonek;
pos = (437,0);
},
{
name = top;
pos = (306,700);
},
{
name = topleft;
pos = (20,700);
}
);
layerId = "554F9022-F5DF-470A-8852-5D1AD00D5051";
shapes = (
{
closed = 1;
nodes = (
(537,0,l),
(537,175,l),
(414,175,l),
(414,525,l),
(537,525,l),
(537,700,l),
(75,700,l),
(75,525,l),
(198,525,l),
(198,175,l),
(75,175,l),
(75,0,l)
);
}
);
width = 612;
},
{
anchors = (
{
name = bottom;
pos = (193,0);
},
{
name = ogonek;
pos = (259,0);
},
{
name = top;
pos = (193,700);
},
{
name = topleft;
pos = (20,700);
}
);
layerId = "CCD999A9-9CE8-4787-8FD2-D5D19514269E";
shapes = (
{
closed = 1;
nodes = (
(336,0,l),
(336,22,l),
(204,22,l),
(204,678,l),
(336,678,l),
(336,700,l),
(50,700,l),
(50,678,l),
(182,678,l),
(182,22,l),
(50,22,l),
(50,0,l)
);
}
);
width = 386;
},
{
anchors = (
{
name = bottom;
pos = (427,0);
},
{
name = ogonek;
pos = (520,0);
},
{
name = top;
pos = (427,700);
},
{
name = topleft;
pos = (138,700);
}
);
layerId = "649E0662-786D-44F6-8E8D-A6782F19FFAA";
shapes = (
{
closed = 1;
nodes = (
(664,0,l),
(664,107,l),
(481,107,l),
(481,593,l),
(664,593,l),
(664,700,l),
(190,700,l),
(190,593,l),
(373,593,l),
(373,107,l),
(190,107,l),
(190,0,l)
);
}
);
width = 854;
},
{
anchors = (
{
name = bottom;
pos = (381,0);
},
{
name = ogonek;
pos = (455,0);
},
{
name = top;
pos = (381,700);
},
{
name = topleft;
pos = (138,700);
}
);
layerId = "9FF8E21A-ED06-4F66-AEDE-2CE647DC4B08";
shapes = (
{
closed = 1;
nodes = (
(594,0,l),
(594,22,l),
(392,22,l),
(392,678,l),
(594,678,l),
(594,700,l),
(168,700,l),
(168,678,l),
(370,678,l),
(370,22,l),
(168,22,l),
(168,0,l)
);
}
);
width = 762;
},
{
anchors = (
{
name = bottom;
pos = (494,0);
},
{
name = ogonek;
pos = (614,0);
},
{
name = top;
pos = (494,700);
},
{
name = topleft;
pos = (138,700);
}
);
layerId = "ED109265-B005-47B0-97BD-F1815082B32B";
shapes = (
{
closed = 1;
nodes = (
(795,0,l),
(795,182,l),
(602,182,l),
(602,518,l),
(795,518,l),
(795,700,l),
(193,700,l),
(193,518,l),
(386,518,l),
(386,182,l),
(193,182,l),
(193,0,l)
);
}
);
width = 988;
},
{
anchors = (
{
name = bottom;
pos = (206,0);
},
{
name = ogonek;
pos = (272,0);
},
{
name = top;
pos = (206,700);
},
{
name = topleft;
pos = (20,700);
}
);
layerId = "2B3ECD2C-4B3A-40C3-8F2B-A5E41B85E4DD";
shapes = (
{
closed = 1;
nodes = (
(344,0,l),
(344,50,l),
(231,50,l),
(231,650,l),
(344,650,l),
(344,700,l),
(68,700,l),
(68,650,l),
(181,650,l),
(181,50,l),
(68,50,l),
(68,0,l)
);
}
);
width = 412;
}
);
unicode = 73;
},
{
color = 6;
glyphname = J;
kernLeft = J;
kernRight = J;
layers = (
{
anchors = (
{
name = bottom;
pos = (321,0);
},
{
name = top;
pos = (426,700);
}
);
layerId = "5A878C7E-547A-4951-B48F-676DBBC9B762";
shapes = (
{
closed = 1;
nodes = (
(390.667,-10,o),
(484,86.333,o),
(484,213,cs),
(484,600,l),
(592,600,l),
(592,700,l),
(248,700,l),
(248,600,l),
(376,600,l),
(376,223,ls),
(376,148.333,o),
(328,95,o),
(256,95,cs),
(206.667,95,o),
(175.333,109.333,o),
(118,188,c),
(50,117,l),
(88.667,41,o),
(165.333,-10,o),
(256,-10,cs)
);
}
);
width = 642;
},
{
anchors = (
{
name = bottom;
pos = (341,0);
},
{
name = top;
pos = (391,700);
}
);
layerId = "554F9022-F5DF-470A-8852-5D1AD00D5051";
shapes = (
{
closed = 1;
nodes = (
(391.667,-10,o),
(494,70.333,o),
(494,213,cs),
(494,516,l),
(602,516,l),
(602,700,l),
(157,700,l),
(157,516,l),
(286,516,l),
(286,240,ls),
(286,202.667,o),
(265,179,o),
(233,179,cs),
(201,179,o),
(172.667,203.333,o),
(150,238,c),
(31,115,l),
(75,35,o),
(151.667,-10,o),
(265,-10,cs)
);
}
);
width = 682;
},
{
anchors = (
{
name = bottom;
pos = (280,0);
},
{
name = top;
pos = (385,700);
}
);
layerId = "CCD999A9-9CE8-4787-8FD2-D5D19514269E";
shapes = (
{
closed = 1;
nodes = (
(322.333,-10,o),
(403,58.333,o),
(403,213,cs),
(403,678,l),
(509,678,l),
(509,700,l),
(252,700,l),
(252,678,l),
(381,678,l),
(381,213,ls),
(381,71.667,o),
(311,12,o),
(211,12,cs),
(131,12,o),
(73.333,51,o),
(36,135,c),
(20,120,l),
(52,40,o),
(117,-10,o),
(209,-10,cs)
);
}
);
width = 559;
},
{
anchors = (
{
name = bottom;
pos = (478,0);
},
{
name = top;
pos = (635,700);
}
);
layerId = "649E0662-786D-44F6-8E8D-A6782F19FFAA";
shapes = (
{
closed = 1;
nodes = (
(592,-10,o),
(699,129,o),
(699,273,cs),
(699,593,l),
(831,593,l),
(831,700,l),
(417,700,l),
(417,593,l),
(591,593,l),
(591,283,ls),
(591,176,o),
(518,90,o),
(401,90,cs),
(296,90,o),
(246,156,o),
(197,223,c),
(125,147,l),
(146,110,o),
(230,-10,o),
(401,-10,cs)
);
}
);
width = 881;
},
{
anchors = (
{
name = bottom;
pos = (442,0);
},
{
name = top;
pos = (594,700);
}
);
layerId = "9FF8E21A-ED06-4F66-AEDE-2CE647DC4B08";
shapes = (
{
closed = 1;
nodes = (
(522,-10,o),
(618,94,o),
(618,273,cs),
(618,678,l),
(748,678,l),
(748,700,l),
(421,700,l),
(421,678,l),
(596,678,l),
(596,273,ls),
(596,104,o),
(499,13,o),
(356,13,cs),
(251,13,o),
(161,80,o),
(124,167,c),
(105,150,l),
(140,67,o),
(237,-10,o),
(354,-10,cs)
);
}
);
width = 798;
},
{
anchors = (
{
name = bottom;
pos = (498,0);
},
{
name = top;
pos = (600,700);
}
);
layerId = "ED109265-B005-47B0-97BD-F1815082B32B";
shapes = (
{
closed = 1;
nodes = (
(593,-10,o),
(709,113,o),
(709,273,cs),
(709,509,l),
(841,509,l),
(841,700,l),
(326,700,l),
(326,509,l),
(501,509,l),
(501,300,ls),
(501,231,o),
(455,174,o),
(378,174,cs),
(290,174,o),
(244,250,o),
(229,273,c),
(106,145,l),
(133,104,o),
(217,-10,o),
(410,-10,cs)
);
}
);
width = 921;
},
{
anchors = (
{
name = bottom;
pos = (312,0);
},
{
name = top;
pos = (441,700);
}
);
layerId = "2B3ECD2C-4B3A-40C3-8F2B-A5E41B85E4DD";
shapes = (
{
closed = 1;
nodes = (
(393,-10,o),
(481,83.667,o),
(481,213,cs),
(481,650,l),
(579,650,l),
(579,700,l),
(300,700,l),
(300,650,l),
(427,650,l),
(427,216,ls),
(427,113.333,o),
(362,40,o),
(270,40,cs),
(207.333,40,o),
(146.667,73.667,o),
(104,155,c),
(68,117,l),
(110.667,35.667,o),
(182.333,-10,o),
(269,-10,cs)
);
}
);
width = 623;
}
);
unicode = 74;
},
{
color = 6;
glyphname = K;
kernLeft = H;
kernRight = K;
layers = (
{
anchors = (
{
name = bottom;
pos = (366,0);
},
{
name = top;
pos = (366,700);
}
);
layerId = "5A878C7E-547A-4951-B48F-676DBBC9B762";
shapes = (
{
closed = 1;
nodes = (
(691,700,l),
(549,700,l),
(182,333,l),
(188,212,l)
);
},
{
closed = 1;
nodes = (
(206,0,l),
(206,700,l),
(98,700,l),
(98,0,l)
);
},
{
closed = 1;
nodes = (
(697,0,l),
(374,427,l),
(294,358,l),
(562,0,l)
);
}
);
width = 732;
},
{
anchors = (
{
name = bottom;
pos = (372,0);
},
{
name = top;
pos = (372,700);
}
);
layerId = "554F9022-F5DF-470A-8852-5D1AD00D5051";
shapes = (
{
closed = 1;
nodes = (
(735,700,l),
(490,700,l),
(157,359,l),
(230,199,l)
);
},
{
closed = 1;
nodes = (
(296,0,l),
(296,700,l),
(80,700,l),
(80,0,l)
);
},
{
closed = 1;
nodes = (
(764,0,l),
(405,452,l),
(265,331,l),
(519,0,l)
);
}
);
width = 744;
},
{
anchors = (
{
name = bottom;
pos = (318,0);
},
{
name = top;
pos = (318,700);
}
);
layerId = "CCD999A9-9CE8-4787-8FD2-D5D19514269E";
shapes = (
{
closed = 1;
nodes = (
(598,700,l),
(566,700,l),
(120,265,l),
(120,234,l)
);
},
{
closed = 1;
nodes = (
(132,0,l),
(132,700,l),
(110,700,l),
(110,0,l)
);
},
{
closed = 1;
nodes = (
(616,0,l),
(299,420,l),
(282,404,l),
(587,0,l)
);
}
);
userData = {
com.schriftgestaltung.Glyphs.glyph.leftMetricsKey = H;
};
width = 636;
},
{
anchors = (
{
name = bottom;
pos = (527,0);
},
{
name = top;
pos = (527,700);
}
);
layerId = "649E0662-786D-44F6-8E8D-A6782F19FFAA";
shapes = (
{
closed = 1;
nodes = (
(935,700,l),
(775,700,l),
(259,297,l),
(259,174,l)
);
},
{
closed = 1;
nodes = (
(290,0,l),
(290,700,l),
(182,700,l),
(182,0,l)
);
},
{
closed = 1;
nodes = (
(921,0,l),
(537,465,l),
(470,379,l),
(777,0,l)
);
}
);
width = 1071;
},
{
anchors = (
{
name = bottom;
pos = (472,0);
},
{
name = top;
pos = (472,700);
}
);
layerId = "9FF8E21A-ED06-4F66-AEDE-2CE647DC4B08";
shapes = (
{
closed = 1;
nodes = (
(827,700,l),
(792,700,l),
(206,236,l),
(206,208,l)
);
},
{
closed = 1;
nodes = (
(216,0,l),
(216,700,l),
(194,700,l),
(194,0,l)
);
},
{
closed = 1;
nodes = (
(840,0,l),
(479,435,l),
(461,421,l),
(810,0,l)
);
}
);
userData = {
com.schriftgestaltung.Glyphs.glyph.leftMetricsKey = H;
};
width = 975;
},
{
anchors = (
{
name = bottom;
pos = (533,0);
},
{
name = top;
pos = (533,700);
}
);
layerId = "ED109265-B005-47B0-97BD-F1815082B32B";
shapes = (
{
closed = 1;
nodes = (
(979,700,l),
(716,700,l),
(234,323,l),
(301,161,l)
);
},
{
closed = 1;
nodes = (
(380,0,l),
(380,700,l),
(164,700,l),
(164,0,l)
);
},
{
closed = 1;
nodes = (
(988,0,l),
(568,490,l),
(441,352,l),
(734,0,l)
);
}
);
width = 1083;
},
{
anchors = (
{
name = bottom;
pos = (335,0);
},
{
name = top;
pos = (335,700);
}
);
layerId = "2B3ECD2C-4B3A-40C3-8F2B-A5E41B85E4DD";
shapes = (
{
closed = 1;
nodes = (
(631,700,l),
(561,700,l),
(137,284,l),
(137,217,l)
);
},
{
closed = 1;
nodes = (
(158,0,l),
(158,700,l),
(108,700,l),
(108,0,l)
);
},
{
closed = 1;
nodes = (
(644,0,l),
(324,422,l),
(288,388,l),
(581,0,l)
);
}
);
userData = {
com.schriftgestaltung.Glyphs.glyph.leftMetricsKey = H;
};
width = 669;
}
);
metricLeft = H;
unicode = 75;
},
{
color = 6;
glyphname = L;
kernLeft = H;
kernRight = L;
layers = (
{
anchors = (
{
name = bottom;
pos = (300,0);
},
{
name = center;
pos = (153,350);
},
{
name = top;
pos = (153,700);
},
{
name = topright;
pos = (293,700);
}
);
layerId = "5A878C7E-547A-4951-B48F-676DBBC9B762";
shapes = (
{
closed = 1;
nodes = (
(534,0,l),
(534,104,l),
(206,104,l),
(206,700,l),
(98,700,l),
(98,0,l)
);
}
);
width = 599;
},
{
anchors = (
{
name = bottom;
pos = (308,0);
},
{
name = center;
pos = (191,350);
},
{
name = top;
pos = (190,700);
},
{
name = topright;
pos = (369,700);
}
);
layerId = "554F9022-F5DF-470A-8852-5D1AD00D5051";
shapes = (
{
closed = 1;
nodes = (
(596,0,l),
(596,184,l),
(296,184,l),
(296,700,l),
(80,700,l),
(80,0,l)
);
}
);
width = 616;
},
{
anchors = (
{
name = bottom;
pos = (267,0);
},
{
name = center;
pos = (121,350);
},
{
name = top;
pos = (121,700);
},
{
name = topright;
pos = (298,700);
}
);
layerId = "CCD999A9-9CE8-4787-8FD2-D5D19514269E";
shapes = (
{
closed = 1;
nodes = (
(483,0,l),
(483,22,l),
(132,22,l),
(132,700,l),
(110,700,l),
(110,0,l)
);
}
);
userData = {
com.schriftgestaltung.Glyphs.glyph.leftMetricsKey = H;
};
width = 533;
},
{
anchors = (
{
name = bottom;
pos = (454,0);
},
{
name = center;
pos = (238,350);
},
{
name = top;
pos = (237,700);
},
{
name = topright;
pos = (454,700);
}
);
layerId = "649E0662-786D-44F6-8E8D-A6782F19FFAA";
shapes = (
{
closed = 1;
nodes = (
(758,0,l),
(758,104,l),
(290,104,l),
(290,700,l),
(182,700,l),
(182,0,l)
);
}
);
width = 898;
},
{
anchors = (
{
name = bottom;
pos = (401,0);
},
{
name = center;
pos = (205,350);
},
{
name = top;
pos = (205,700);
},
{
name = topright;
pos = (441,700);
}
);
layerId = "9FF8E21A-ED06-4F66-AEDE-2CE647DC4B08";
shapes = (
{
closed = 1;
nodes = (
(707,0,l),
(707,22,l),
(216,22,l),
(216,700,l),
(194,700,l),
(194,0,l)
);
}
);
userData = {
com.schriftgestaltung.Glyphs.glyph.leftMetricsKey = H;
};
width = 792;
},
{
anchors = (
{
name = bottom;
pos = (462,0);
},
{
name = center;
pos = (276,350);
},
{
name = top;
pos = (274,700);
},
{
name = topright;
pos = (530,700);
}
);
layerId = "ED109265-B005-47B0-97BD-F1815082B32B";
shapes = (
{
closed = 1;
nodes = (
(820,0,l),
(820,184,l),
(380,184,l),
(380,700,l),
(164,700,l),
(164,0,l)
);
}
);
width = 915;
},
{
anchors = (
{
name = bottom;
pos = (268,0);
},
{
name = center;
pos = (135,350);
},
{
name = top;
pos = (134,700);
},
{
name = topright;
pos = (285,700);
}
);
layerId = "2B3ECD2C-4B3A-40C3-8F2B-A5E41B85E4DD";
shapes = (
{
closed = 1;
nodes = (
(501,0,l),
(501,50,l),
(158,50,l),
(158,700,l),
(108,700,l),
(108,0,l)
);
}
);
userData = {
com.schriftgestaltung.Glyphs.glyph.leftMetricsKey = H;
};
width = 536;
}
);
metricLeft = H;
unicode = 76;
},
{
color = 3;
glyphname = Lslash;
kernLeft = H;
kernRight = L;
layers = (
{
layerId = "5A878C7E-547A-4951-B48F-676DBBC9B762";
shapes = (
{
closed = 1;
nodes = (
(363,382,l),
(331,459,l),
(40,328,l),
(69,256,l)
);
},
{
pos = (39,0);
ref = L;
}
);
width = 638;
},
{
layerId = "554F9022-F5DF-470A-8852-5D1AD00D5051";
shapes = (
{
closed = 1;
nodes = (
(425,401,l),
(363,564,l),
(-44,387,l),
(18,224,l)
);
},
{
ref = L;
}
);
width = 616;
},
{
layerId = "CCD999A9-9CE8-4787-8FD2-D5D19514269E";
shapes = (
{
closed = 1;
nodes = (
(264,433,l),
(256,454,l),
(-9,333,l),
(-1,312,l)
);
},
{
pos = (-16,0);
ref = L;
}
);
userData = {
com.schriftgestaltung.Glyphs.glyph.rightMetricsKey = L;
};
width = 517;
},
{
layerId = "649E0662-786D-44F6-8E8D-A6782F19FFAA";
shapes = (
{
closed = 1;
nodes = (
(633,439,l),
(601,536,l),
(40,318,l),
(69,226,l)
);
},
{
pos = (30,0);
ref = L;
}
);
width = 928;
},
{
layerId = "9FF8E21A-ED06-4F66-AEDE-2CE647DC4B08";
shapes = (
{
closed = 1;
nodes = (
(541,475,l),
(536,496,l),
(1,288,l),
(6,267,l)
);
},
{
ref = L;
}
);
userData = {
com.schriftgestaltung.Glyphs.glyph.rightMetricsKey = L;
};
width = 792;
},
{
layerId = "ED109265-B005-47B0-97BD-F1815082B32B";
shapes = (
{
closed = 1;
nodes = (
(695,458,l),
(633,641,l),
(-44,377,l),
(18,194,l)
);
},
{
pos = (-9,0);
ref = L;
}
);
userData = {
com.schriftgestaltung.Glyphs.glyph.rightMetricsKey = L;
};
width = 906;
},
{
anchors = (
{
name = bottom;
pos = (453,0);
},
{
name = center;
pos = (267,350);
},
{
name = top;
pos = (265,700);
},
{
name = topright;
pos = (521,700);
}
);
associatedMasterId = "ED109265-B005-47B0-97BD-F1815082B32B";
layerId = "6C0F154F-362F-4AB8-88A0-DB9FA471229F";
name = foreground;
shapes = (
{
closed = 1;
nodes = (
(695,458,l),
(633,641,l),
(-44,377,l),
(18,194,l)
);
},
{
pos = (-9,0);
ref = L;
}
);
userData = {
com.schriftgestaltung.Glyphs.glyph.rightMetricsKey = L;
};
width = 906;
},
{
layerId = "2B3ECD2C-4B3A-40C3-8F2B-A5E41B85E4DD";
shapes = (
{
closed = 1;
nodes = (
(298,414,l),
(281,456,l),
(7,332,l),
(24,291,l)
);
},
{
ref = L;
}
);
userData = {
com.schriftgestaltung.Glyphs.glyph.rightMetricsKey = L;
};
width = 536;
}
);
unicode = 321;
},
{
color = 6;
glyphname = M;
kernLeft = H;
kernRight = H;
layers = (
{
anchors = (
{
name = bottom;
pos = (432,0);
},
{
name = top;
pos = (432,700);
}
);
layerId = "5A878C7E-547A-4951-B48F-676DBBC9B762";
shapes = (
{
closed = 1;
nodes = (
(206,0,l),
(206,287,ls),
(206,416.333,o),
(200.667,502.667,o),
(186,592,c),
(175,551,l),
(397,201,l),
(463,201,l),
(692,555,l),
(678,592,l),
(663.333,497.333,o),
(658,407,o),
(658,287,cs),
(658,0,l),
(766,0,l),
(766,700,l),
(666,700,l),
(408,286,l),
(459,285,l),
(204,700,l),
(98,700,l),
(98,0,l)
);
}
);
width = 864;
},
{
anchors = (
{
name = bottom;
pos = (444,0);
},
{
name = top;
pos = (444,700);
}
);
layerId = "554F9022-F5DF-470A-8852-5D1AD00D5051";
shapes = (
{
closed = 1;
nodes = (
(288,0,l),
(288,167,ls),
(288,296.333,o),
(282.667,382.667,o),
(268,472,c),
(243,409,l),
(409,147,l),
(475,147,l),
(644,409,l),
(620,472,l),
(605.333,377.333,o),
(600,287,o),
(600,167,cs),
(600,0,l),
(808,0,l),
(808,700,l),
(628,700,l),
(370,286,l),
(521,285,l),
(266,700,l),
(80,700,l),
(80,0,l)
);
}
);
width = 888;
},
{
anchors = (
{
name = bottom;
pos = (420,0);
},
{
name = top;
pos = (420,700);
}
);
layerId = "CCD999A9-9CE8-4787-8FD2-D5D19514269E";
shapes = (
{
closed = 1;
nodes = (
(132,0,l),
(132,545,ls),
(132,593.667,o),
(131,640,o),
(129,684,c),
(119,672,l),
(412,204,l),
(427,204,l),
(725,679,l),
(709,684,l),
(707,637.333,o),
(706,590.333,o),
(706,543,cs),
(706,0,l),
(728,0,l),
(728,700,l),
(711,700,l),
(418,232,l),
(421,232,l),
(127,700,l),
(110,700,l),
(110,0,l)
);
}
);
userData = {
com.schriftgestaltung.Glyphs.glyph.leftMetricsKey = H;
com.schriftgestaltung.Glyphs.glyph.rightMetricsKey = H;
};
width = 839;
},
{
anchors = (
{
name = bottom;
pos = (588,0);
},
{
name = top;
pos = (588,700);
}
);
layerId = "649E0662-786D-44F6-8E8D-A6782F19FFAA";
shapes = (
{
closed = 1;
nodes = (
(290,0,l),
(290,297,ls),
(290,408,o),
(286,501,o),
(270,602,c),
(259,561,l),
(555,201,l),
(621,201,l),
(917,561,l),
(906,602,l),
(890,501,o),
(886,408,o),
(886,297,cs),
(886,0,l),
(994,0,l),
(994,700,l),
(888,700,l),
(569,305,l),
(607,305,l),
(288,700,l),
(182,700,l),
(182,0,l)
);
}
);
width = 1176;
},
{
anchors = (
{
name = bottom;
pos = (576,0);
},
{
name = top;
pos = (576,700);
}
);
layerId = "9FF8E21A-ED06-4F66-AEDE-2CE647DC4B08";
shapes = (
{
closed = 1;
nodes = (
(216,0,l),
(217,544,ls),
(217,594,o),
(216,640,o),
(213,682,c),
(198,685,l),
(567,217,l),
(582,217,l),
(950,683,l),
(937,683,l),
(934,635,o),
(933,588,o),
(934,542,cs),
(934,0,l),
(956,0,l),
(956,700,l),
(936,700,l),
(569,235,l),
(581,235,l),
(214,700,l),
(194,700,l),
(194,0,l)
);
}
);
userData = {
com.schriftgestaltung.Glyphs.glyph.leftMetricsKey = H;
com.schriftgestaltung.Glyphs.glyph.rightMetricsKey = H;
};
width = 1151;
},
{
anchors = (
{
name = bottom;
pos = (600,0);
},
{
name = top;
pos = (600,700);
}
);
layerId = "ED109265-B005-47B0-97BD-F1815082B32B";
shapes = (
{
closed = 1;
nodes = (
(372,0,l),
(372,177,ls),
(372,288,o),
(368,381,o),
(352,482,c),
(327,419,l),
(567,147,l),
(633,147,l),
(869,415,l),
(848,482,l),
(832,381,o),
(828,288,o),
(828,177,cs),
(828,0,l),
(1036,0,l),
(1036,700,l),
(850,700,l),
(531,305,l),
(669,305,l),
(350,700,l),
(164,700,l),
(164,0,l)
);
}
);
width = 1200;
},
{
anchors = (
{
name = bottom;
pos = (426,0);
},
{
name = top;
pos = (426,700);
}
);
layerId = "2B3ECD2C-4B3A-40C3-8F2B-A5E41B85E4DD";
shapes = (
{
closed = 1;
nodes = (
(158,0,l),
(158,351,ls),
(158,480.333,o),
(157,566.667,o),
(149,656,c),
(139,631,l),
(403,205,l),
(445,205,l),
(718,637,l),
(703,656,l),
(695,561.333,o),
(694,471,o),
(694,351,cs),
(694,0,l),
(744,0,l),
(744,700,l),
(701,700,l),
(416,243,l),
(437,243,l),
(156,700,l),
(108,700,l),
(108,0,l)
);
}
);
userData = {
com.schriftgestaltung.Glyphs.glyph.leftMetricsKey = H;
com.schriftgestaltung.Glyphs.glyph.rightMetricsKey = H;
};
width = 852;
}
);
metricLeft = H;
metricRight = H;
unicode = 77;
},
{
color = 6;
glyphname = N;
kernLeft = H;
kernRight = H;
layers = (
{
anchors = (
{
name = bottom;
pos = (397,0);
},
{
name = top;
pos = (397,700);
}
);
layerId = "5A878C7E-547A-4951-B48F-676DBBC9B762";
shapes = (
{
closed = 1;
nodes = (
(206,0,l),
(206,291,ls),
(206,321.169,o),
(203.595,363.871,o),
(186,566,c),
(175,552,l),
(596,0,l),
(695,0,l),
(695,700,l),
(587,700,l),
(587,470,ls),
(587,323.333,o),
(593.667,200.667,o),
(607,118,c),
(623,127,l),
(195,700,l),
(98,700,l),
(98,0,l)
);
}
);
width = 793;
},
{
anchors = (
{
name = bottom;
pos = (409,0);
},
{
name = top;
pos = (409,700);
}
);
layerId = "554F9022-F5DF-470A-8852-5D1AD00D5051";
shapes = (
{
closed = 1;
nodes = (
(288,0,l),
(288,191,ls),
(288,313.667,o),
(284,343.333,o),
(268,466,c),
(187,490,l),
(542,0,l),
(737,0,l),
(737,700,l),
(529,700,l),
(529,570,ls),
(527.667,436.667,o),
(533,402.333,o),
(549,269,c),
(595,255,l),
(273,700,l),
(80,700,l),
(80,0,l)
);
}
);
width = 817;
},
{
anchors = (
{
name = bottom;
pos = (366,0);
},
{
name = top;
pos = (366,700);
}
);
layerId = "CCD999A9-9CE8-4787-8FD2-D5D19514269E";
shapes = (
{
closed = 1;
nodes = (
(132,0,l),
(132,470,ls),
(132,543,o),
(131.333,652.667,o),
(130,686,c),
(115,686,l),
(600,0,l),
(620,0,l),
(620,700,l),
(598,700,l),
(598,241,ls),
(598,92,o),
(599,60,o),
(601,31,c),
(605,31,l),
(132,700,l),
(110,700,l),
(110,0,l)
);
}
);
userData = {
com.schriftgestaltung.Glyphs.glyph.leftMetricsKey = H;
com.schriftgestaltung.Glyphs.glyph.rightMetricsKey = H;
};
width = 731;
},
{
anchors = (
{
name = bottom;
pos = (561,0);
},
{
name = top;
pos = (561,700);
}
);
layerId = "649E0662-786D-44F6-8E8D-A6782F19FFAA";
shapes = (
{
closed = 1;
nodes = (
(290,0,l),
(290,291,ls),
(290,382,o),
(275,505,o),
(270,566,c),
(269,552,l),
(830,0,l),
(939,0,l),
(939,700,l),
(831,700,l),
(831,470,ls),
(831,361,o),
(835,218,o),
(851,118,c),
(857,127,l),
(289,700,l),
(182,700,l),
(182,0,l)
);
}
);
width = 1121;
},
{
anchors = (
{
name = bottom;
pos = (530,0);
},
{
name = top;
pos = (530,700);
}
);
layerId = "9FF8E21A-ED06-4F66-AEDE-2CE647DC4B08";
shapes = (
{
closed = 1;
nodes = (
(216,0,l),
(216,470,ls),
(217,575,o),
(215,646,o),
(214,685,c),
(209,685,l),
(834,0,l),
(864,0,l),
(864,700,l),
(842,700,l),
(842,241,ls),
(844,181,o),
(842,77,o),
(844,17,c),
(849,18,l),
(224,700,l),
(194,700,l),
(194,0,l)
);
}
);
userData = {
com.schriftgestaltung.Glyphs.glyph.leftMetricsKey = H;
com.schriftgestaltung.Glyphs.glyph.rightMetricsKey = H;
};
width = 1059;
},
{
anchors = (
{
name = bottom;
pos = (573,0);
},
{
name = top;
pos = (573,700);
}
);
layerId = "ED109265-B005-47B0-97BD-F1815082B32B";
shapes = (
{
closed = 1;
nodes = (
(372,0,l),
(372,191,ls),
(372,374,o),
(362,427,o),
(352,466,c),
(281,490,l),
(776,0,l),
(981,0,l),
(981,700,l),
(773,700,l),
(773,570,ls),
(773,474,o),
(774,420,o),
(793,269,c),
(829,255,l),
(367,700,l),
(164,700,l),
(164,0,l)
);
}
);
width = 1145;
},
{
anchors = (
{
name = bottom;
pos = (391,0);
},
{
name = top;
pos = (391,700);
}
);
layerId = "2B3ECD2C-4B3A-40C3-8F2B-A5E41B85E4DD";
shapes = (
{
closed = 1;
nodes = (
(158,0,l),
(158,344,ls),
(158,372,o),
(152.667,603.667,o),
(150,669,c),
(136,641,l),
(625,0,l),
(673,0,l),
(673,700,l),
(623,700,l),
(623,417,ls),
(623.667,339.667,o),
(625.333,65,o),
(628,37,c),
(640,63,l),
(154,700,l),
(108,700,l),
(108,0,l)
);
}
);
userData = {
com.schriftgestaltung.Glyphs.glyph.leftMetricsKey = H;
com.schriftgestaltung.Glyphs.glyph.rightMetricsKey = H;
};
width = 781;
}
);
metricLeft = H;
metricRight = H;
unicode = 78;
},
{
color = 6;
glyphname = Nhookleft;
kernLeft = H;
kernRight = H;
layers = (
{
layerId = "5A878C7E-547A-4951-B48F-676DBBC9B762";
shapes = (
{
closed = 1;
nodes = (
(115.667,-197,o),
(190,-128,o),
(190,-24,cs),
(190,291,ls),
(190,341,o),
(181,455,o),
(170,566,c),
(159,552,l),
(580,0,l),
(679,0,l),
(679,700,l),
(571,700,l),
(571,470,ls),
(571,323.333,o),
(577.667,200.667,o),
(591,118,c),
(607,127,l),
(179,700,l),
(82,700,l),
(82,1,ls),
(82,-77.667,o),
(43.333,-118,o),
(-34,-118,c),
(5,-197,l)
);
}
);
width = 777;
},
{
layerId = "554F9022-F5DF-470A-8852-5D1AD00D5051";
shapes = (
{
closed = 1;
nodes = (
(198.667,-207,o),
(283,-146.333,o),
(283,23,cs),
(283,145,ls),
(283,277,o),
(283,315,o),
(263,466,c),
(182,490,l),
(537,0,l),
(732,0,l),
(732,700,l),
(524,700,l),
(524,570,ls),
(524,437,o),
(528,402.333,o),
(544,269,c),
(590,255,l),
(268,700,l),
(75,700,l),
(75,71,ls),
(75,-9,o),
(30.667,-48,o),
(-60,-48,c),
(28,-207,l)
);
}
);
width = 812;
},
{
layerId = "CCD999A9-9CE8-4787-8FD2-D5D19514269E";
shapes = (
{
closed = 1;
nodes = (
(86,-194,o),
(132,-146.667,o),
(132,-60,cs),
(132,470,ls),
(132,495,o),
(132,661,o),
(130,686,c),
(115,686,l),
(600,0,l),
(620,0,l),
(620,700,l),
(598,700,l),
(598,241,ls),
(598,92,o),
(600,60,o),
(601,31,c),
(605,31,l),
(132,700,l),
(110,700,l),
(110,-56,ls),
(110,-125.333,o),
(80.667,-173,o),
(-2,-173,c),
(6,-194,l)
);
}
);
userData = {
com.schriftgestaltung.Glyphs.glyph.rightMetricsKey = N;
};
width = 731;
},
{
layerId = "649E0662-786D-44F6-8E8D-A6782F19FFAA";
shapes = (
{
closed = 1;
nodes = (
(192,-197,o),
(310,-81,o),
(310,106,cs),
(310,291,ls),
(310,346,o),
(301,453,o),
(290,566,c),
(269,532,l),
(830,0,l),
(939,0,l),
(939,700,l),
(811,700,l),
(811,470,ls),
(811,361,o),
(815,218,o),
(831,118,c),
(857,147,l),
(289,700,l),
(182,700,l),
(182,131,ls),
(182,-9,o),
(130,-95,o),
(1,-95,c),
(40,-197,l)
);
}
);
width = 1121;
},
{
layerId = "9FF8E21A-ED06-4F66-AEDE-2CE647DC4B08";
shapes = (
{
closed = 1;
nodes = (
(144,-189,o),
(233,-101,o),
(233,70,cs),
(233,470,ls),
(233,500,o),
(232,655,o),
(231,685,c),
(226,685,l),
(851,0,l),
(881,0,l),
(881,700,l),
(859,700,l),
(859,241,ls),
(861,181,o),
(859,77,o),
(861,17,c),
(866,18,l),
(241,700,l),
(211,700,l),
(211,74,ls),
(211,-69,o),
(148,-157,o),
(23,-172,c),
(27,-194,l)
);
}
);
userData = {
com.schriftgestaltung.Glyphs.glyph.rightMetricsKey = N;
};
width = 1076;
},
{
layerId = "ED109265-B005-47B0-97BD-F1815082B32B";
shapes = (
{
closed = 1;
nodes = (
(275,-207,o),
(403,-99,o),
(403,153,cs),
(403,145,ls),
(403,282,o),
(403,313,o),
(383,466,c),
(292,470,l),
(787,0,l),
(992,0,l),
(992,700,l),
(764,700,l),
(764,570,ls),
(764,474,o),
(765,420,o),
(784,269,c),
(840,275,l),
(378,700,l),
(175,700,l),
(175,201,ls),
(175,60,o),
(118,-25,o),
(-25,-25,c),
(63,-207,l)
);
}
);
width = 1156;
},
{
layerId = "2B3ECD2C-4B3A-40C3-8F2B-A5E41B85E4DD";
shapes = (
{
closed = 1;
nodes = (
(100.667,-195,o),
(158,-136,o),
(158,-48,cs),
(158,344,ls),
(158,450,o),
(152,616,o),
(150,669,c),
(136,641,l),
(625,0,l),
(673,0,l),
(673,700,l),
(623,700,l),
(623,417,ls),
(623,340,o),
(624,128,o),
(628,37,c),
(640,63,l),
(154,700,l),
(108,700,l),
(108,-28,ls),
(108,-110.667,o),
(78.333,-152,o),
(-7,-152,c),
(14,-195,l)
);
}
);
userData = {
com.schriftgestaltung.Glyphs.glyph.rightMetricsKey = N;
};
width = 781;
}
);
metricRight = N;
unicode = 413;
},
{
color = 6;
glyphname = Eng;
kernLeft = H;
kernRight = H;
layers = (
{
layerId = "5A878C7E-547A-4951-B48F-676DBBC9B762";
shapes = (
{
closed = 1;
nodes = (
(620.667,-197,o),
(695,-128,o),
(695,-24,cs),
(695,700,l),
(587,700,l),
(587,470,ls),
(587,323.333,o),
(593.667,200.667,o),
(607,118,c),
(623,127,l),
(195,700,l),
(98,700,l),
(98,0,l),
(206,0,l),
(206,291,ls),
(206,341,o),
(197,455,o),
(186,566,c),
(175,552,l),
(596,0,l),
(587,76,l),
(587,1,ls),
(587,-77.667,o),
(548.333,-118,o),
(471,-118,c),
(510,-197,l)
);
}
);
width = 793;
},
{
layerId = "554F9022-F5DF-470A-8852-5D1AD00D5051";
shapes = (
{
closed = 1;
nodes = (
(644.667,-207,o),
(737,-152,o),
(737,0,cs),
(737,700,l),
(529,700,l),
(529,570,ls),
(527.667,459.333,o),
(530,426,o),
(546,298,c),
(560,304,l),
(273,700,l),
(80,700,l),
(80,0,l),
(288,0,l),
(288,233.5,ls),
(288,276,o),
(282,347,o),
(278,390,c),
(263,384,l),
(545,-3,l),
(537,49,l),
(537,0,ls),
(537,-34.667,o),
(451.333,-48,o),
(394,-48,c),
(482,-207,l)
);
}
);
width = 817;
},
{
layerId = "CCD999A9-9CE8-4787-8FD2-D5D19514269E";
shapes = (
{
closed = 1;
nodes = (
(574,-194,o),
(620,-146.667,o),
(620,-60,cs),
(620,700,l),
(598,700,l),
(598,241,ls),
(598,92,o),
(601,60.333,o),
(601,31,c),
(605,31,l),
(132,700,l),
(110,700,l),
(110,0,l),
(132,0,l),
(132,470,ls),
(132,493,o),
(132,663,o),
(130,686,c),
(115,686,l),
(607,-10,l),
(598,19,l),
(598,-56,ls),
(598,-125.333,o),
(568.667,-173,o),
(486,-173,c),
(494,-194,l)
);
}
);
userData = {
com.schriftgestaltung.Glyphs.glyph.leftMetricsKey = N;
com.schriftgestaltung.Glyphs.glyph.rightMetricsKey = N;
};
width = 731;
},
{
layerId = "649E0662-786D-44F6-8E8D-A6782F19FFAA";
shapes = (
{
closed = 1;
nodes = (
(821,-197,o),
(939,-81,o),
(939,106,cs),
(939,700,l),
(831,700,l),
(831,470,ls),
(831,361,o),
(835,218,o),
(851,118,c),
(857,127,l),
(289,700,l),
(182,700,l),
(182,0,l),
(290,0,l),
(290,291,ls),
(290,346,o),
(281,455,o),
(270,566,c),
(269,552,l),
(830,0,l),
(826,71,l),
(826,50,ls),
(826,-32,o),
(747,-95,o),
(630,-95,c),
(669,-197,l)
);
}
);
width = 1121;
},
{
layerId = "9FF8E21A-ED06-4F66-AEDE-2CE647DC4B08";
shapes = (
{
closed = 1;
nodes = (
(791,-194,o),
(864,-106,o),
(864,0,cs),
(864,700,l),
(842,700,l),
(842,241,ls),
(842,184,o),
(843,79,o),
(845,22,c),
(849,26,l),
(226,700,l),
(194,700,l),
(194,0,l),
(216,0,l),
(216,532,ls),
(215,567,o),
(217,651,o),
(214,686,c),
(209,686,l),
(849,-5,l),
(845,15,l),
(845,-3,ls),
(845,-101,o),
(774,-177,o),
(648,-177,c),
(653,-194,l)
);
}
);
userData = {
com.schriftgestaltung.Glyphs.glyph.leftMetricsKey = N;
com.schriftgestaltung.Glyphs.glyph.rightMetricsKey = N;
};
width = 1059;
},
{
layerId = "ED109265-B005-47B0-97BD-F1815082B32B";
shapes = (
{
closed = 1;
nodes = (
(845,-207,o),
(981,-105,o),
(981,130,cs),
(981,700,l),
(773,700,l),
(773,570,ls),
(772,497,o),
(771,443,o),
(790,298,c),
(794,304,l),
(367,700,l),
(164,700,l),
(164,0,l),
(372,0,l),
(372,234,ls),
(372,281,o),
(366,347,o),
(362,390,c),
(357,384,l),
(779,-3,l),
(776,44,l),
(776,49,ls),
(776,11,o),
(650,-25,o),
(553,-25,c),
(641,-207,l)
);
}
);
width = 1145;
},
{
layerId = "2B3ECD2C-4B3A-40C3-8F2B-A5E41B85E4DD";
shapes = (
{
closed = 1;
nodes = (
(615.667,-195,o),
(673,-130,o),
(673,-42,cs),
(673,700,l),
(623,700,l),
(623,417,ls),
(624,325,o),
(624,144,o),
(627,52,c),
(644,58,l),
(154,700,l),
(108,700,l),
(108,0,l),
(158,0,l),
(157.5,377.5,ls),
(157,412,o),
(152,616,o),
(151,651,c),
(134,645,l),
(641,-21,l),
(623,33,l),
(623,-28,ls),
(623,-110.667,o),
(593.333,-152,o),
(508,-152,c),
(529,-195,l)
);
}
);
userData = {
com.schriftgestaltung.Glyphs.glyph.leftMetricsKey = N;
com.schriftgestaltung.Glyphs.glyph.rightMetricsKey = N;
};
width = 781;
}
);
metricLeft = N;
metricRight = N;
unicode = 330;
},
{
color = 6;
glyphname = O;
kernLeft = C;
kernRight = D;
layers = (
{
anchors = (
{
name = bottom;
pos = (391,0);
},
{
name = center;
pos = (391,350);
},
{
name = ogonek;
pos = (563,0);
},
{
name = top;
pos = (391,700);
},
{
name = topleft;
pos = (20,700);
},
{
name = topright;
pos = (762,700);
}
);
layerId = "5A878C7E-547A-4951-B48F-676DBBC9B762";
shapes = (
{
closed = 1;
nodes = (
(588.333,-10,o),
(734,144.667,o),
(734,350,cs),
(734,555.333,o),
(588.333,710,o),
(391,710,cs),
(193.667,710,o),
(48,556.667,o),
(48,350,cs),
(48,143.333,o),
(193.667,-10,o),
(391,-10,cs)
);
},
{
closed = 1;
nodes = (
(255,95,o),
(158,202,o),
(158,350,cs),
(158,498,o),
(255,605,o),
(391,605,cs),
(525.667,605,o),
(624,496.667,o),
(624,350,cs),
(624,203.333,o),
(525.667,95,o),
(391,95,cs)
);
}
);
width = 782;
},
{
anchors = (
{
name = bottom;
pos = (417,0);
},
{
name = center;
pos = (417,350);
},
{
name = ogonek;
pos = (751,10);
},
{
name = top;
pos = (417,700);
},
{
name = topleft;
pos = (20,700);
},
{
name = topright;
pos = (814,700);
}
);
layerId = "554F9022-F5DF-470A-8852-5D1AD00D5051";
shapes = (
{
closed = 1;
nodes = (
(637,-10,o),
(794,143,o),
(794,355,cs),
(794,567,o),
(637,720,o),
(417,720,cs),
(197,720,o),
(40,567,o),
(40,355,cs),
(40,143,o),
(197,-10,o),
(417,-10,cs)
);
},
{
closed = 1;
nodes = (
(326.333,190,o),
(260,259,o),
(260,355,cs),
(260,451,o),
(326.333,520,o),
(417,520,cs),
(507.667,520,o),
(574,451,o),
(574,355,cs),
(574,259,o),
(507.667,190,o),
(417,190,cs)
);
}
);
width = 834;
},
{
anchors = (
{
name = bottom;
pos = (399,0);
},
{
name = center;
pos = (399,350);
},
{
name = ogonek;
pos = (486,0);
},
{
name = top;
pos = (399,700);
},
{
name = topleft;
pos = (20,700);
},
{
name = topright;
pos = (778,700);
}
);
layerId = "CCD999A9-9CE8-4787-8FD2-D5D19514269E";
shapes = (
{
closed = 1;
nodes = (
(600.333,-10,o),
(743,138.333,o),
(743,349,cs),
(743,561,o),
(600.333,710,o),
(399,710,cs),
(197.667,710,o),
(55,559.667,o),
(55,349,cs),
(55,138.333,o),
(197.667,-10,o),
(399,-10,cs)
);
},
{
closed = 1;
nodes = (
(213.667,12,o),
(78,153,o),
(78,349,cs),
(78,545,o),
(213.667,688,o),
(399,688,cs),
(585.667,688,o),
(720,545,o),
(720,349,cs),
(720,153,o),
(585.667,12,o),
(399,12,cs)
);
}
);
width = 798;
},
{
anchors = (
{
name = bottom;
pos = (551,0);
},
{
name = center;
pos = (551,350);
},
{
name = ogonek;
pos = (768,0);
},
{
name = top;
pos = (551,700);
},
{
name = topleft;
pos = (100,700);
},
{
name = topright;
pos = (1002,700);
}
);
layerId = "649E0662-786D-44F6-8E8D-A6782F19FFAA";
shapes = (
{
closed = 1;
nodes = (
(796,-10,o),
(974,149,o),
(974,350,cs),
(974,551,o),
(796,710,o),
(551,710,cs),
(304,710,o),
(128,551,o),
(128,350,cs),
(128,149,o),
(304,-10,o),
(551,-10,cs)
);
},
{
closed = 1;
nodes = (
(366,95,o),
(238,205,o),
(238,350,cs),
(238,495,o),
(366,605,o),
(551,605,cs),
(734,605,o),
(864,494,o),
(864,350,cs),
(864,206,o),
(734,95,o),
(551,95,cs)
);
}
);
width = 1102;
},
{
anchors = (
{
name = bottom;
pos = (559,0);
},
{
name = center;
pos = (559,350);
},
{
name = ogonek;
pos = (696,0);
},
{
name = top;
pos = (559,700);
},
{
name = topleft;
pos = (100,700);
},
{
name = topright;
pos = (662,700);
}
);
layerId = "9FF8E21A-ED06-4F66-AEDE-2CE647DC4B08";
shapes = (
{
closed = 1;
nodes = (
(808,-10,o),
(983,142,o),
(983,349,cs),
(983,557,o),
(808,710,o),
(559,710,cs),
(308,710,o),
(135,554,o),
(135,349,cs),
(135,144,o),
(308,-10,o),
(559,-10,cs)
);
},
{
closed = 1;
nodes = (
(324,12,o),
(158,156,o),
(158,349,cs),
(158,542,o),
(324,688,o),
(559,688,cs),
(794,688,o),
(960,542,o),
(960,349,cs),
(960,156,o),
(794,12,o),
(559,12,cs)
);
}
);
width = 1118;
},
{
anchors = (
{
name = bottom;
pos = (577,0);
},
{
name = center;
pos = (577,350);
},
{
name = ogonek;
pos = (956,10);
},
{
name = top;
pos = (577,700);
},
{
name = topleft;
pos = (100,700);
},
{
name = topright;
pos = (1054,700);
}
);
layerId = "ED109265-B005-47B0-97BD-F1815082B32B";
shapes = (
{
closed = 1;
nodes = (
(845,-10,o),
(1034,147,o),
(1034,355,cs),
(1034,563,o),
(845,720,o),
(577,720,cs),
(308,720,o),
(120,562,o),
(120,355,cs),
(120,148,o),
(307,-10,o),
(577,-10,cs)
);
},
{
closed = 1;
nodes = (
(437,190,o),
(340,262,o),
(340,355,cs),
(340,448,o),
(437,520,o),
(577,520,cs),
(716,520,o),
(814,448,o),
(814,355,cs),
(814,262,o),
(716,190,o),
(577,190,cs)
);
}
);
width = 1154;
},
{
anchors = (
{
name = bottom;
pos = (394,0);
},
{
name = center;
pos = (394,350);
},
{
name = ogonek;
pos = (551,0);
},
{
name = top;
pos = (394,700);
},
{
name = topleft;
pos = (20,700);
},
{
name = topright;
pos = (767,700);
}
);
layerId = "2B3ECD2C-4B3A-40C3-8F2B-A5E41B85E4DD";
shapes = (
{
closed = 1;
nodes = (
(593,-10,o),
(737,139,o),
(737,347,cs),
(737,555,o),
(593,705,o),
(393,705,cs),
(193,705,o),
(50,555,o),
(50,347,cs),
(50,139,o),
(193,-10,o),
(393,-10,cs)
);
},
{
closed = 1;
nodes = (
(223.667,40,o),
(103,168.333,o),
(103,347,cs),
(103,525.667,o),
(223.667,655,o),
(393,655,cs),
(562.333,655,o),
(684,525.667,o),
(684,347,cs),
(684,168.333,o),
(562.333,40,o),
(393,40,cs)
);
}
);
width = 787;
}
);
unicode = 79;
},
{
color = 6;
glyphname = Ohorn;
kernLeft = C;
kernRight = D;
layers = (
{
anchors = (
{
name = bottom;
pos = (399,0);
},
{
name = top;
pos = (399,700);
}
);
layerId = "CCD999A9-9CE8-4787-8FD2-D5D19514269E";
shapes = (
{
closed = 1;
nodes = (
(600.333,-10,o),
(743,138.333,o),
(743,349,cs),
(743,512,o),
(659,637,o),
(529,687,c),
(517,676,l),
(619,667,o),
(671,710,o),
(671,799,c),
(649,799,l),
(649,729,o),
(611,696,o),
(543,696,cs),
(526,696,o),
(500,698,o),
(473,703,cs),
(449,707,o),
(425,710,o),
(399,710,cs),
(197.667,710,o),
(55,559.667,o),
(55,349,cs),
(55,138.333,o),
(197.667,-10,o),
(399,-10,cs)
);
},
{
closed = 1;
nodes = (
(213.667,12,o),
(78,153,o),
(78,349,cs),
(78,545,o),
(213.667,688,o),
(399,688,cs),
(585.667,688,o),
(720,545,o),
(720,349,cs),
(720,153,o),
(585.667,12,o),
(399,12,cs)
);
}
);
width = 798;
},
{
anchors = (
{
name = bottom;
pos = (391,0);
},
{
name = top;
pos = (391,700);
}
);
layerId = "5A878C7E-547A-4951-B48F-676DBBC9B762";
shapes = (
{
closed = 1;
nodes = (
(588.333,-10,o),
(734,144.667,o),
(734,350,cs),
(734,481,o),
(675,591,o),
(581,654,c),
(574,630,l),
(662,642,o),
(700,713,o),
(700,814,c),
(608,814,l),
(608,735,o),
(579,695,o),
(519,695,cs),
(503,695,o),
(488,697,o),
(471,701,cs),
(449,706,o),
(424,710,o),
(391,710,cs),
(193.667,710,o),
(48,556.667,o),
(48,350,cs),
(48,143.333,o),
(193.667,-10,o),
(391,-10,cs)
);
},
{
closed = 1;
nodes = (
(255,95,o),
(158,202,o),
(158,350,cs),
(158,498,o),
(255,605,o),
(391,605,cs),
(525.667,605,o),
(624,496.667,o),
(624,350,cs),
(624,203.333,o),
(525.667,95,o),
(391,95,cs)
);
}
);
width = 782;
},
{
anchors = (
{
name = bottom;
pos = (417,0);
},
{
name = top;
pos = (417,700);
}
);
layerId = "554F9022-F5DF-470A-8852-5D1AD00D5051";
shapes = (
{
closed = 1;
nodes = (
(637,-10,o),
(794,143,o),
(794,355,cs),
(794,466,o),
(751,561,o),
(678,627,c),
(642,605,l),
(791,605,o),
(818,721,o),
(818,834,c),
(666,834,l),
(666,742,o),
(637,696,o),
(585,696,cs),
(558,696,o),
(534,704,o),
(509,709,cs),
(476,716,o),
(442,720,o),
(417,720,cs),
(197,720,o),
(40,567,o),
(40,355,cs),
(40,143,o),
(197,-10,o),
(417,-10,cs)
);
},
{
closed = 1;
nodes = (
(326.333,190,o),
(260,259,o),
(260,355,cs),
(260,451,o),
(326.333,520,o),
(417,520,cs),
(507.667,520,o),
(574,451,o),
(574,355,cs),
(574,259,o),
(507.667,190,o),
(417,190,cs)
);
}
);
width = 834;
},
{
anchors = (
{
name = bottom;
pos = (551,0);
},
{
name = top;
pos = (551,700);
}
);
layerId = "649E0662-786D-44F6-8E8D-A6782F19FFAA";
shapes = (
{
closed = 1;
nodes = (
(796,-10,o),
(974,149,o),
(974,350,cs),
(974,477,o),
(903,587,o),
(790,651,c),
(782,631,l),
(894,632,o),
(944,708,o),
(944,814,c),
(852,814,l),
(852,724,o),
(808,694,o),
(733,694,cs),
(704,694,o),
(674,697,o),
(644,702,cs),
(614,707,o),
(583,710,o),
(551,710,cs),
(304,710,o),
(128,551,o),
(128,350,cs),
(128,149,o),
(304,-10,o),
(551,-10,cs)
);
},
{
closed = 1;
nodes = (
(366,95,o),
(238,205,o),
(238,350,cs),
(238,495,o),
(366,605,o),
(551,605,cs),
(734,605,o),
(864,494,o),
(864,350,cs),
(864,206,o),
(734,95,o),
(551,95,cs)
);
}
);
width = 1102;
},
{
anchors = (
{
name = bottom;
pos = (559,0);
},
{
name = top;
pos = (559,700);
}
);
layerId = "9FF8E21A-ED06-4F66-AEDE-2CE647DC4B08";
shapes = (
{
closed = 1;
nodes = (
(808,-10,o),
(983,142,o),
(983,349,cs),
(983,509,o),
(880,636,o),
(720,686,c),
(749,669,l),
(874,669,o),
(920,700,o),
(920,799,c),
(898,799,l),
(898,727,o),
(871,690,o),
(756,690,cs),
(729,690,o),
(702,696,o),
(649,703,cs),
(620,707,o),
(590,710,o),
(559,710,cs),
(308,710,o),
(135,554,o),
(135,349,cs),
(135,144,o),
(308,-10,o),
(559,-10,cs)
);
},
{
closed = 1;
nodes = (
(324,12,o),
(158,156,o),
(158,349,cs),
(158,542,o),
(324,688,o),
(559,688,cs),
(776,688,o),
(960,542,o),
(960,349,cs),
(960,156,o),
(794,12,o),
(559,12,cs)
);
}
);
width = 1118;
},
{
anchors = (
{
name = bottom;
pos = (577,0);
},
{
name = top;
pos = (577,700);
}
);
layerId = "ED109265-B005-47B0-97BD-F1815082B32B";
shapes = (
{
closed = 1;
nodes = (
(845,-10,o),
(1034,147,o),
(1034,355,cs),
(1034,462,o),
(979,557,o),
(887,624,c),
(850,606,l),
(1023,595,o),
(1062,716,o),
(1062,834,c),
(910,834,l),
(910,731,o),
(866,695,o),
(799,695,cs),
(759,695,o),
(720,704,o),
(682,710,cs),
(641,717,o),
(601,720,o),
(577,720,cs),
(308,720,o),
(120,562,o),
(120,355,cs),
(120,148,o),
(307,-10,o),
(577,-10,cs)
);
},
{
closed = 1;
nodes = (
(437,190,o),
(340,262,o),
(340,355,cs),
(340,448,o),
(437,520,o),
(577,520,cs),
(716,520,o),
(814,448,o),
(814,355,cs),
(814,262,o),
(716,190,o),
(577,190,cs)
);
}
);
width = 1154;
},
{
anchors = (
{
name = bottom;
pos = (394,0);
},
{
name = top;
pos = (394,700);
}
);
layerId = "2B3ECD2C-4B3A-40C3-8F2B-A5E41B85E4DD";
shapes = (
{
closed = 1;
nodes = (
(593,-10,o),
(737,139,o),
(737,347,cs),
(737,502,o),
(658,624,o),
(535,677,c),
(525,660,l),
(625,664,o),
(684,721,o),
(684,809,c),
(636,809,l),
(636,734,o),
(595,696,o),
(513,696,cs),
(490.355,696,o),
(467.709,698.671,o),
(445.064,701.493,cs),
(428.195,703.809,o),
(410.82,705,o),
(393,705,cs),
(193,705,o),
(50,555,o),
(50,347,cs),
(50,139,o),
(193,-10,o),
(393,-10,cs)
);
},
{
closed = 1;
nodes = (
(223.667,40,o),
(103,168.333,o),
(103,347,cs),
(103,525.667,o),
(223.667,655,o),
(393,655,cs),
(562.333,655,o),
(684,525.667,o),
(684,347,cs),
(684,168.333,o),
(562.333,40,o),
(393,40,cs)
);
}
);
width = 787;
}
);
unicode = 416;
},
{
color = 3;
glyphname = Oogonek;
kernLeft = C;
kernRight = D;
layers = (
{
anchors = (
{
name = top;
pos = (399,700);
}
);
layerId = "CCD999A9-9CE8-4787-8FD2-D5D19514269E";
shapes = (
{
closed = 1;
nodes = (
(558,-236,o),
(592,-214,o),
(608,-182,c),
(593,-169,l),
(578,-196,o),
(553,-214,o),
(518,-214,cs),
(474,-214,o),
(440,-180,o),
(440,-129,cs),
(440,-63,o),
(498,-13,o),
(571,33,c),
(566,51,l),
(491,5,o),
(418,-47,o),
(418,-132,cs),
(418,-192,o),
(462,-236,o),
(518,-236,cs)
);
},
{
ref = O;
}
);
width = 798;
},
{
anchors = (
{
name = top;
pos = (391,700);
}
);
layerId = "5A878C7E-547A-4951-B48F-676DBBC9B762";
shapes = (
{
closed = 1;
nodes = (
(520,-200,o),
(567,-171,o),
(581,-138,c),
(525,-98,l),
(514,-114,o),
(502,-123,o),
(488,-123,cs),
(466,-123,o),
(454,-108,o),
(454,-84,cs),
(454,-44,o),
(493,-3,o),
(570,40,c),
(532,85,l),
(442,38,o),
(363,-16,o),
(363,-97,cs),
(363,-164,o),
(414,-200,o),
(472,-200,cs)
);
},
{
ref = O;
}
);
width = 782;
},
{
anchors = (
{
name = top;
pos = (417,700);
}
);
layerId = "554F9022-F5DF-470A-8852-5D1AD00D5051";
shapes = (
{
closed = 1;
nodes = (
(587,-220,o),
(634,-179,o),
(659,-133,c),
(579,-74,l),
(570,-90,o),
(562,-97,o),
(549,-97,cs),
(535,-97,o),
(525,-84,o),
(525,-67,cs),
(525,-15,o),
(589,23,o),
(640,55,c),
(608,104,l),
(488,48,o),
(399,-9,o),
(399,-103,cs),
(399,-170,o),
(447,-220,o),
(521,-220,cs)
);
},
{
ref = O;
}
);
width = 834;
},
{
anchors = (
{
name = top;
pos = (551,700);
}
);
layerId = "649E0662-786D-44F6-8E8D-A6782F19FFAA";
shapes = (
{
closed = 1;
nodes = (
(681,-200,o),
(725,-166,o),
(736,-138,c),
(680,-98,l),
(672,-111,o),
(660,-123,o),
(643,-123,cs),
(622,-123,o),
(609,-108,o),
(609,-86,cs),
(609,-21,o),
(725,16,o),
(765,37,c),
(744,91,l),
(665,61,o),
(518,0,o),
(518,-99,cs),
(518,-158,o),
(565,-200,o),
(627,-200,cs)
);
},
{
ref = O;
}
);
width = 1102;
},
{
anchors = (
{
name = top;
pos = (559,700);
}
);
layerId = "9FF8E21A-ED06-4F66-AEDE-2CE647DC4B08";
shapes = (
{
closed = 1;
nodes = (
(734,-236,o),
(768,-214,o),
(784,-182,c),
(769,-169,l),
(754,-196,o),
(729,-214,o),
(694,-214,cs),
(650,-214,o),
(616,-180,o),
(616,-135,cs),
(616,-83,o),
(650,-23,o),
(792,44,c),
(787,62,l),
(644,-5,o),
(594,-67,o),
(594,-138,cs),
(594,-192,o),
(638,-236,o),
(694,-236,cs)
);
},
{
ref = O;
}
);
width = 1118;
},
{
anchors = (
{
name = top;
pos = (577,700);
}
);
layerId = "ED109265-B005-47B0-97BD-F1815082B32B";
shapes = (
{
closed = 1;
nodes = (
(748,-220,o),
(792,-174,o),
(814,-133,c),
(734,-74,l),
(728,-87,o),
(720,-97,o),
(704,-97,cs),
(691,-97,o),
(680,-84,o),
(680,-69,cs),
(680,8,o),
(821,42,o),
(835,52,c),
(820,110,l),
(711,71,o),
(554,7,o),
(554,-105,cs),
(554,-164,o),
(598,-220,o),
(676,-220,cs)
);
},
{
ref = O;
}
);
width = 1154;
},
{
anchors = (
{
name = bottom;
pos = (577,0);
},
{
name = center;
pos = (577,350);
},
{
name = ogonek;
pos = (956,10);
},
{
name = top;
pos = (577,700);
},
{
name = topleft;
pos = (100,700);
},
{
name = topright;
pos = (1054,700);
}
);
associatedMasterId = "ED109265-B005-47B0-97BD-F1815082B32B";
layerId = "A0B7E063-9F1E-4A43-B4A9-D70B94D6735C";
name = foreground;
shapes = (
{
closed = 1;
nodes = (
(748,-220,o),
(792,-174,o),
(814,-133,c),
(734,-74,l),
(728,-87,o),
(720,-97,o),
(704,-97,cs),
(691,-97,o),
(680,-84,o),
(680,-69,cs),
(680,8,o),
(821,42,o),
(835,52,c),
(820,110,l),
(711,71,o),
(554,7,o),
(554,-105,cs),
(554,-164,o),
(598,-220,o),
(676,-220,cs)
);
},
{
ref = O;
}
);
width = 1154;
},
{
anchors = (
{
name = top;
pos = (394,700);
}
);
layerId = "2B3ECD2C-4B3A-40C3-8F2B-A5E41B85E4DD";
shapes = (
{
closed = 1;
nodes = (
(564,-221,o),
(597,-203,o),
(623,-170,c),
(590,-146,l),
(574,-165,o),
(550,-178,o),
(521,-178,cs),
(482,-178,o),
(452,-152,o),
(452,-107,cs),
(452,-39,o),
(524,6,o),
(592,51,c),
(564,76,l),
(482,22,o),
(404,-24,o),
(404,-111,cs),
(404,-177,o),
(455,-221,o),
(519,-221,cs)
);
},
{
ref = O;
}
);
width = 787;
}
);
unicode = 490;
},
{
color = 3;
glyphname = Oslash;
kernLeft = C;
kernRight = D;
layers = (
{
anchors = (
{
name = bottom;
pos = (385,0);
},
{
name = top;
pos = (385,700);
}
);
layerId = "5A878C7E-547A-4951-B48F-676DBBC9B762";
shapes = (
{
closed = 1;
nodes = (
(717,694,l),
(649,741,l),
(60,20,l),
(123,-33,l)
);
},
{
pos = (-1,0);
ref = O;
}
);
width = 770;
},
{
anchors = (
{
name = bottom;
pos = (417,0);
},
{
name = top;
pos = (417,700);
}
);
layerId = "554F9022-F5DF-470A-8852-5D1AD00D5051";
shapes = (
{
closed = 1;
nodes = (
(745,694,l),
(677,741,l),
(88,20,l),
(151,-33,l)
);
},
{
ref = O;
}
);
width = 834;
},
{
anchors = (
{
name = bottom;
pos = (399,0);
},
{
name = top;
pos = (399,700);
}
);
layerId = "CCD999A9-9CE8-4787-8FD2-D5D19514269E";
shapes = (
{
closed = 1;
nodes = (
(703,704,l),
(684,718,l),
(95,-4,l),
(114,-18,l)
);
},
{
pos = (-1,0);
ref = O;
}
);
width = 798;
},
{
anchors = (
{
name = bottom;
pos = (565,0);
},
{
name = top;
pos = (565,700);
}
);
layerId = "649E0662-786D-44F6-8E8D-A6782F19FFAA";
shapes = (
{
closed = 1;
nodes = (
(1002,669,l),
(936,737,l),
(128,39,l),
(188,-34,l)
);
},
{
pos = (14,0);
ref = O;
}
);
width = 1130;
},
{
anchors = (
{
name = bottom;
pos = (560,0);
},
{
name = top;
pos = (560,700);
}
);
layerId = "9FF8E21A-ED06-4F66-AEDE-2CE647DC4B08";
shapes = (
{
closed = 1;
nodes = (
(972,699,l),
(953,714,l),
(147,-5,l),
(165,-19,l)
);
},
{
pos = (1,0);
ref = O;
}
);
width = 1119;
},
{
anchors = (
{
name = bottom;
pos = (597,0);
},
{
name = top;
pos = (597,700);
}
);
layerId = "ED109265-B005-47B0-97BD-F1815082B32B";
shapes = (
{
closed = 1;
nodes = (
(1030,669,l),
(964,737,l),
(156,39,l),
(216,-34,l)
);
},
{
pos = (15,0);
ref = O;
}
);
width = 1194;
},
{
anchors = (
{
name = bottom;
pos = (597,0);
},
{
name = center;
pos = (592,350);
},
{
name = ogonek;
pos = (971,10);
},
{
name = top;
pos = (597,700);
},
{
name = topleft;
pos = (115,700);
},
{
name = topright;
pos = (1069,700);
}
);
associatedMasterId = "ED109265-B005-47B0-97BD-F1815082B32B";
layerId = "4E434925-454A-4624-916D-8C3010F924AE";
name = foreground;
shapes = (
{
closed = 1;
nodes = (
(1030,669,l),
(964,737,l),
(156,39,l),
(216,-34,l)
);
},
{
pos = (15,0);
ref = O;
}
);
width = 1194;
},
{
anchors = (
{
name = bottom;
pos = (394,0);
},
{
name = top;
pos = (394,700);
}
);
layerId = "2B3ECD2C-4B3A-40C3-8F2B-A5E41B85E4DD";
shapes = (
{
closed = 1;
nodes = (
(705,693,l),
(671,725,l),
(80,2,l),
(114,-30,l)
);
},
{
pos = (-1,0);
ref = O;
}
);
width = 787;
}
);
unicode = 216;
},
{
color = 6;
glyphname = OE;
kernLeft = C;
kernRight = E;
layers = (
{
anchors = (
{
name = bottom;
pos = (514,0);
},
{
name = top;
pos = (514,700);
}
);
layerId = "5A878C7E-547A-4951-B48F-676DBBC9B762";
shapes = (
{
closed = 1;
nodes = (
(952,0,l),
(952,104,l),
(619,104,l),
(619,307,l),
(897,307,l),
(897,411,l),
(619,411,l),
(619,596,l),
(952,596,l),
(952,700,l),
(395,700,ls),
(184.333,700,o),
(48,558,o),
(48,350,cs),
(48,140.667,o),
(175,0,o),
(375,0,cs)
);
},
{
closed = 1;
nodes = (
(158,502,o),
(246,596,o),
(398,596,cs),
(511,596,l),
(511,104,l),
(378,104,ls),
(238,104,o),
(158,196.667,o),
(158,350,cs)
);
}
);
width = 1027;
},
{
anchors = (
{
name = bottom;
pos = (559,0);
},
{
name = top;
pos = (559,700);
}
);
layerId = "554F9022-F5DF-470A-8852-5D1AD00D5051";
shapes = (
{
closed = 1;
nodes = (
(1070,0,l),
(1070,175,l),
(737,175,l),
(737,277,l),
(1015,277,l),
(1015,441,l),
(737,441,l),
(737,525,l),
(1070,525,l),
(1070,700,l),
(395,700,ls),
(179,700,o),
(40,558,o),
(40,350,cs),
(40,140.667,o),
(169.667,0,o),
(375,0,cs)
);
},
{
closed = 1;
nodes = (
(258,452.667,o),
(312.333,516,o),
(407,516,cs),
(530,516,l),
(530,184,l),
(407,184,ls),
(312.333,184,o),
(258,246,o),
(258,350,cs)
);
}
);
width = 1117;
},
{
anchors = (
{
name = bottom;
pos = (501,0);
},
{
name = top;
pos = (501,700);
}
);
layerId = "CCD999A9-9CE8-4787-8FD2-D5D19514269E";
shapes = (
{
closed = 1;
nodes = (
(931,0,l),
(931,22,l),
(568,22,l),
(568,351,l),
(879,351,l),
(879,373,l),
(568,373,l),
(568,678,l),
(937,678,l),
(937,700,l),
(371,700,ls),
(205.667,700,o),
(55,552.667,o),
(55,350,cs),
(55,148.667,o),
(210.667,0,o),
(380,0,cs)
);
},
{
closed = 1;
nodes = (
(78,536.667,o),
(223.667,678,o),
(377,678,cs),
(546,678,l),
(546,22,l),
(386,22,ls),
(227.333,22,o),
(78,164.667,o),
(78,350,cs)
);
}
);
userData = {
com.schriftgestaltung.Glyphs.glyph.leftMetricsKey = O;
com.schriftgestaltung.Glyphs.glyph.rightMetricsKey = E;
};
width = 1002;
},
{
anchors = (
{
name = bottom;
pos = (734,0);
},
{
name = top;
pos = (734,700);
}
);
layerId = "649E0662-786D-44F6-8E8D-A6782F19FFAA";
shapes = (
{
closed = 1;
nodes = (
(1312,0,l),
(1312,104,l),
(839,104,l),
(839,307,l),
(1257,307,l),
(1257,411,l),
(839,411,l),
(839,596,l),
(1312,596,l),
(1312,700,l),
(545,700,ls),
(273,700,o),
(128,539,o),
(128,350,cs),
(128,158,o),
(265,0,o),
(525,0,cs)
);
},
{
closed = 1;
nodes = (
(238,478,o),
(345,596,o),
(548,596,cs),
(731,596,l),
(731,104,l),
(528,104,ls),
(339,104,o),
(238,221,o),
(238,350,cs)
);
}
);
width = 1472;
},
{
anchors = (
{
name = bottom;
pos = (721,0);
},
{
name = top;
pos = (721,700);
}
);
layerId = "9FF8E21A-ED06-4F66-AEDE-2CE647DC4B08";
shapes = (
{
closed = 1;
nodes = (
(1291,0,l),
(1291,22,l),
(788,22,l),
(788,351,l),
(1239,351,l),
(1239,373,l),
(788,373,l),
(788,678,l),
(1297,678,l),
(1297,700,l),
(521,700,ls),
(297,700,o),
(135,554,o),
(135,350,cs),
(135,146,o),
(301,0,o),
(530,0,cs)
);
},
{
closed = 1;
nodes = (
(158,541,o),
(310,678,o),
(521,678,cs),
(766,678,l),
(766,22,l),
(530,22,ls),
(314,22,o),
(158,159,o),
(158,350,cs)
);
}
);
userData = {
com.schriftgestaltung.Glyphs.glyph.leftMetricsKey = O;
com.schriftgestaltung.Glyphs.glyph.rightMetricsKey = E;
};
width = 1447;
},
{
anchors = (
{
name = bottom;
pos = (779,0);
},
{
name = top;
pos = (779,700);
}
);
layerId = "ED109265-B005-47B0-97BD-F1815082B32B";
shapes = (
{
closed = 1;
nodes = (
(1430,0,l),
(1430,175,l),
(957,175,l),
(957,277,l),
(1375,277,l),
(1375,441,l),
(957,441,l),
(957,525,l),
(1430,525,l),
(1430,700,l),
(545,700,ls),
(268,700,o),
(120,539,o),
(120,350,cs),
(120,158,o),
(260,0,o),
(525,0,cs)
);
},
{
closed = 1;
nodes = (
(338,429,o),
(412,516,o),
(557,516,cs),
(750,516,l),
(750,184,l),
(557,184,ls),
(413,184,o),
(338,270,o),
(338,350,cs)
);
}
);
width = 1562;
},
{
anchors = (
{
name = bottom;
pos = (505,0);
},
{
name = top;
pos = (505,700);
}
);
layerId = "2B3ECD2C-4B3A-40C3-8F2B-A5E41B85E4DD";
shapes = (
{
closed = 1;
nodes = (
(935,0,l),
(935,50,l),
(582,50,l),
(582,336,l),
(882,336,l),
(882,386,l),
(582,386,l),
(582,650,l),
(939,650,l),
(939,700,l),
(376,700,ls),
(196,700,o),
(50,554,o),
(50,350,cs),
(50,146,o),
(196,0,o),
(376,0,cs)
);
},
{
closed = 1;
nodes = (
(103,524.667,o),
(229,650,o),
(381,650,cs),
(532,650,l),
(532,50,l),
(381,50,ls),
(229,50,o),
(103,175.333,o),
(103,350,cs)
);
}
);
userData = {
com.schriftgestaltung.Glyphs.glyph.leftMetricsKey = O;
com.schriftgestaltung.Glyphs.glyph.rightMetricsKey = E;
};
width = 1009;
}
);
metricLeft = O;
metricRight = E;
unicode = 338;
},
{
color = 6;
glyphname = P;
kernLeft = H;
kernRight = P;
layers = (
{
anchors = (
{
name = bottom;
pos = (317,0);
},
{
name = top;
pos = (317,700);
}
);
layerId = "5A878C7E-547A-4951-B48F-676DBBC9B762";
shapes = (
{
closed = 1;
nodes = (
(206,0,l),
(206,268,l),
(383,268,ls),
(496.333,268,o),
(589,365,o),
(589,485,cs),
(589,605,o),
(496.333,700,o),
(383,700,cs),
(98,700,l),
(98,0,l)
);
},
{
closed = 1;
nodes = (
(206,596,l),
(381,596,ls),
(434.333,596,o),
(479,546.333,o),
(479,485,cs),
(479,423.667,o),
(434.333,372,o),
(381,372,cs),
(206,372,l)
);
}
);
width = 634;
},
{
anchors = (
{
name = bottom;
pos = (342,0);
},
{
name = top;
pos = (342,700);
}
);
layerId = "554F9022-F5DF-470A-8852-5D1AD00D5051";
shapes = (
{
closed = 1;
nodes = (
(296,0,l),
(296,208,l),
(395,208,ls),
(539,208,o),
(643,313.333,o),
(643,460,cs),
(643,600,o),
(539,700,o),
(395,700,cs),
(80,700,l),
(80,0,l)
);
},
{
closed = 1;
nodes = (
(292,516,l),
(355,516,ls),
(393.667,516,o),
(421,497.333,o),
(421,456,cs),
(421,414.667,o),
(393.667,392,o),
(355,392,cs),
(292,392,l)
);
}
);
width = 683;
},
{
anchors = (
{
name = bottom;
pos = (300,0);
},
{
name = top;
pos = (300,700);
}
);
layerId = "CCD999A9-9CE8-4787-8FD2-D5D19514269E";
shapes = (
{
closed = 1;
nodes = (
(132,0,l),
(132,291,l),
(361,291,ls),
(471.667,291,o),
(545,379,o),
(545,507,cs),
(545,621.667,o),
(471.667,700,o),
(361,700,cs),
(110,700,l),
(110,0,l)
);
},
{
closed = 1;
nodes = (
(132,678,l),
(367,678,ls),
(460.333,678,o),
(522,607,o),
(522,507,cs),
(522,392.333,o),
(460.333,313,o),
(367,313,cs),
(132,313,l)
);
}
);
userData = {
com.schriftgestaltung.Glyphs.glyph.leftMetricsKey = H;
};
width = 600;
},
{
anchors = (
{
name = bottom;
pos = (474,0);
},
{
name = top;
pos = (474,700);
}
);
layerId = "649E0662-786D-44F6-8E8D-A6782F19FFAA";
shapes = (
{
closed = 1;
nodes = (
(290,0,l),
(290,258,l),
(571,258,ls),
(704,258,o),
(818,358,o),
(818,485,cs),
(818,605,o),
(714,700,o),
(591,700,cs),
(182,700,l),
(182,0,l)
);
},
{
closed = 1;
nodes = (
(290,596,l),
(561,596,ls),
(637,596,o),
(703,546,o),
(703,485,cs),
(703,418,o),
(637,362,o),
(561,362,cs),
(290,362,l)
);
}
);
width = 953;
},
{
anchors = (
{
name = bottom;
pos = (457,0);
},
{
name = top;
pos = (457,700);
}
);
layerId = "9FF8E21A-ED06-4F66-AEDE-2CE647DC4B08";
shapes = (
{
closed = 1;
nodes = (
(216,0,l),
(216,281,l),
(553,281,ls),
(694,281,o),
(774,372,o),
(774,507,cs),
(774,622,o),
(694,700,o),
(554,700,cs),
(194,700,l),
(194,0,l)
);
},
{
closed = 1;
nodes = (
(216,678,l),
(547,678,ls),
(684,678,o),
(751,615,o),
(751,507,cs),
(751,382,o),
(683,303,o),
(547,303,cs),
(216,303,l)
);
}
);
userData = {
com.schriftgestaltung.Glyphs.glyph.leftMetricsKey = H;
};
width = 919;
},
{
anchors = (
{
name = bottom;
pos = (499,0);
},
{
name = top;
pos = (499,700);
}
);
layerId = "ED109265-B005-47B0-97BD-F1815082B32B";
shapes = (
{
closed = 1;
nodes = (
(380,0,l),
(380,198,l),
(583,198,ls),
(747,198,o),
(872,307,o),
(872,460,cs),
(872,600,o),
(756,700,o),
(603,700,cs),
(164,700,l),
(164,0,l)
);
},
{
closed = 1;
nodes = (
(376,516,l),
(535,516,ls),
(596,516,o),
(645,497,o),
(645,456,cs),
(645,409,o),
(596,382,o),
(535,382,cs),
(376,382,l)
);
}
);
width = 1002;
},
{
anchors = (
{
name = bottom;
pos = (306,0);
},
{
name = top;
pos = (306,700);
}
);
layerId = "2B3ECD2C-4B3A-40C3-8F2B-A5E41B85E4DD";
shapes = (
{
closed = 1;
nodes = (
(158,0,l),
(158,283,l),
(377,283,ls),
(483.667,283,o),
(561,372.667,o),
(561,498,cs),
(561,615.333,o),
(483.667,700,o),
(377,700,cs),
(108,700,l),
(108,0,l)
);
},
{
closed = 1;
nodes = (
(158,650,l),
(386,650,ls),
(456.667,650,o),
(508,586.667,o),
(508,500,cs),
(508,402.667,o),
(456.667,333,o),
(386,333,cs),
(158,333,l)
);
}
);
userData = {
com.schriftgestaltung.Glyphs.glyph.leftMetricsKey = H;
};
width = 611;
}
);
metricLeft = H;
unicode = 80;
},
{
color = 6;
glyphname = Thorn;
kernLeft = H;
kernRight = P;
layers = (
{
anchors = (
{
name = bottom;
pos = (317,0);
},
{
name = top;
pos = (317,700);
}
);
layerId = "5A878C7E-547A-4951-B48F-676DBBC9B762";
shapes = (
{
closed = 1;
nodes = (
(206,0,l),
(206,141,l),
(383,141,ls),
(496.333,141,o),
(589,238,o),
(589,358,cs),
(589,478,o),
(496.333,573,o),
(383,573,cs),
(206,573,l),
(206,700,l),
(98,700,l),
(98,0,l)
);
},
{
closed = 1;
nodes = (
(206,469,l),
(381,469,ls),
(434.333,469,o),
(479,419.333,o),
(479,358,cs),
(479,296.667,o),
(434.333,245,o),
(381,245,cs),
(206,245,l)
);
}
);
width = 634;
},
{
anchors = (
{
name = bottom;
pos = (342,0);
},
{
name = top;
pos = (342,700);
}
);
layerId = "554F9022-F5DF-470A-8852-5D1AD00D5051";
shapes = (
{
closed = 1;
nodes = (
(296,0,l),
(296,108,l),
(395,108,ls),
(539,108,o),
(643,213.333,o),
(643,360,cs),
(643,500,o),
(539,600,o),
(395,600,cs),
(296,600,l),
(296,700,l),
(80,700,l),
(80,0,l)
);
},
{
closed = 1;
nodes = (
(296,416,l),
(355,416,ls),
(393.667,416,o),
(421,397.333,o),
(421,356,cs),
(421,314.667,o),
(393.667,292,o),
(355,292,cs),
(296,292,l)
);
}
);
width = 683;
},
{
anchors = (
{
name = bottom;
pos = (283,0);
},
{
name = top;
pos = (283,700);
}
);
layerId = "CCD999A9-9CE8-4787-8FD2-D5D19514269E";
shapes = (
{
closed = 1;
nodes = (
(132,0,l),
(132,171,l),
(328,171,ls),
(434.667,171,o),
(511,254,o),
(511,358,cs),
(511,470,o),
(435.667,543,o),
(329,543,cs),
(132,543,l),
(132,700,l),
(110,700,l),
(110,0,l)
);
},
{
closed = 1;
nodes = (
(132,521,l),
(327,521,ls),
(433.667,521,o),
(489,454,o),
(489,358,cs),
(489,272.667,o),
(429.667,193,o),
(327,193,cs),
(132,193,l)
);
}
);
userData = {
com.schriftgestaltung.Glyphs.glyph.leftMetricsKey = H;
com.schriftgestaltung.Glyphs.glyph.rightMetricsKey = P;
};
width = 566;
},
{
anchors = (
{
name = bottom;
pos = (481,0);
},
{
name = top;
pos = (481,700);
}
);
layerId = "649E0662-786D-44F6-8E8D-A6782F19FFAA";
shapes = (
{
closed = 1;
nodes = (
(290,0,l),
(290,141,l),
(588,141,ls),
(739,141,o),
(833,238,o),
(833,358,cs),
(833,498,o),
(739,573,o),
(588,573,cs),
(290,573,l),
(290,700,l),
(182,700,l),
(182,0,l)
);
},
{
closed = 1;
nodes = (
(290,469,l),
(601,469,ls),
(664,469,o),
(718,419,o),
(718,358,cs),
(718,295,o),
(664,245,o),
(601,245,cs),
(290,245,l)
);
}
);
width = 968;
},
{
anchors = (
{
name = bottom;
pos = (447,0);
},
{
name = top;
pos = (447,700);
}
);
layerId = "9FF8E21A-ED06-4F66-AEDE-2CE647DC4B08";
shapes = (
{
closed = 1;
nodes = (
(216,0,l),
(216,171,l),
(533,171,ls),
(676,171,o),
(755,238,o),
(755,358,cs),
(755,477,o),
(675,543,o),
(534,543,cs),
(216,543,l),
(216,700,l),
(194,700,l),
(194,0,l)
);
},
{
closed = 1;
nodes = (
(216,521,l),
(547,521,ls),
(666,521,o),
(732,463,o),
(732,358,cs),
(732,251,o),
(666,193,o),
(547,193,cs),
(216,193,l)
);
}
);
userData = {
com.schriftgestaltung.Glyphs.glyph.leftMetricsKey = H;
com.schriftgestaltung.Glyphs.glyph.rightMetricsKey = P;
};
width = 900;
},
{
anchors = (
{
name = bottom;
pos = (506,0);
},
{
name = top;
pos = (506,700);
}
);
layerId = "ED109265-B005-47B0-97BD-F1815082B32B";
shapes = (
{
closed = 1;
nodes = (
(380,0,l),
(380,108,l),
(600,108,ls),
(781,108,o),
(887,213,o),
(887,360,cs),
(887,520,o),
(781,600,o),
(600,600,cs),
(380,600,l),
(380,700,l),
(164,700,l),
(164,0,l)
);
},
{
closed = 1;
nodes = (
(380,416,l),
(575,416,ls),
(623,416,o),
(660,397,o),
(660,356,cs),
(660,313,o),
(623,292,o),
(575,292,cs),
(380,292,l)
);
}
);
width = 1017;
},
{
anchors = (
{
name = bottom;
pos = (295,0);
},
{
name = top;
pos = (295,700);
}
);
layerId = "2B3ECD2C-4B3A-40C3-8F2B-A5E41B85E4DD";
shapes = (
{
closed = 1;
nodes = (
(158,0,l),
(158,161,l),
(348,161,ls),
(457.333,161,o),
(539,248.667,o),
(539,358,cs),
(539,467.333,o),
(457,553,o),
(349,553,cs),
(158,553,l),
(158,700,l),
(108,700,l),
(108,0,l)
);
},
{
closed = 1;
nodes = (
(158,499,l),
(347,499,ls),
(432.333,499,o),
(486,436.667,o),
(486,358,cs),
(486,280.667,o),
(435,215,o),
(347,215,cs),
(158,215,l)
);
}
);
userData = {
com.schriftgestaltung.Glyphs.glyph.leftMetricsKey = H;
com.schriftgestaltung.Glyphs.glyph.rightMetricsKey = P;
};
width = 589;
}
);
metricLeft = H;
metricRight = P;
unicode = 222;
},
{
color = 3;
glyphname = Q;
kernLeft = C;
kernRight = D;
layers = (
{
anchors = (
{
name = bottom;
pos = (391,0);
},
{
name = top;
pos = (391,700);
}
);
layerId = "5A878C7E-547A-4951-B48F-676DBBC9B762";
shapes = (
{
closed = 1;
nodes = (
(699,-48,l),
(437,296,l),
(348,237,l),
(613,-110,l)
);
},
{
ref = O;
}
);
width = 782;
},
{
anchors = (
{
name = bottom;
pos = (417,0);
},
{
name = top;
pos = (417,700);
}
);
layerId = "554F9022-F5DF-470A-8852-5D1AD00D5051";
shapes = (
{
closed = 1;
nodes = (
(765,1,l),
(498,372,l),
(347,264,l),
(617,-110,l)
);
},
{
ref = O;
}
);
width = 834;
},
{
anchors = (
{
name = bottom;
pos = (399,0);
},
{
name = top;
pos = (399,700);
}
);
layerId = "CCD999A9-9CE8-4787-8FD2-D5D19514269E";
shapes = (
{
closed = 1;
nodes = (
(669,-65,l),
(416,272,l),
(398,260,l),
(652,-78,l)
);
},
{
ref = O;
}
);
userData = {
com.schriftgestaltung.Glyphs.glyph.leftMetricsKey = O;
com.schriftgestaltung.Glyphs.glyph.rightMetricsKey = O;
};
width = 798;
},
{
anchors = (
{
name = bottom;
pos = (551,0);
},
{
name = top;
pos = (551,700);
}
);
layerId = "649E0662-786D-44F6-8E8D-A6782F19FFAA";
shapes = (
{
closed = 1;
nodes = (
(882,-58,l),
(620,286,l),
(531,237,l),
(796,-110,l)
);
},
{
ref = O;
}
);
width = 1102;
},
{
anchors = (
{
name = bottom;
pos = (559,0);
},
{
name = top;
pos = (559,700);
}
);
layerId = "9FF8E21A-ED06-4F66-AEDE-2CE647DC4B08";
shapes = (
{
closed = 1;
nodes = (
(860,-74,l),
(607,265,l),
(581,260,l),
(835,-78,l)
);
},
{
ref = O;
}
);
userData = {
com.schriftgestaltung.Glyphs.glyph.leftMetricsKey = O;
com.schriftgestaltung.Glyphs.glyph.rightMetricsKey = O;
};
width = 1118;
},
{
anchors = (
{
name = bottom;
pos = (577,0);
},
{
name = top;
pos = (577,700);
}
);
layerId = "ED109265-B005-47B0-97BD-F1815082B32B";
shapes = (
{
closed = 1;
nodes = (
(948,-9,l),
(681,362,l),
(530,264,l),
(800,-110,l)
);
},
{
ref = O;
}
);
userData = {
com.schriftgestaltung.Glyphs.glyph.leftMetricsKey = O;
com.schriftgestaltung.Glyphs.glyph.rightMetricsKey = O;
};
width = 1154;
},
{
anchors = (
{
name = bottom;
pos = (577,0);
},
{
name = center;
pos = (577,350);
},
{
name = ogonek;
pos = (956,10);
},
{
name = top;
pos = (577,700);
},
{
name = topleft;
pos = (100,700);
},
{
name = topright;
pos = (1054,700);
}
);
associatedMasterId = "ED109265-B005-47B0-97BD-F1815082B32B";
layerId = "9FB227B1-0BF0-4403-8E76-32280D322162";
name = foreground;
shapes = (
{
closed = 1;
nodes = (
(948,-9,l),
(681,362,l),
(530,264,l),
(800,-110,l)
);
},
{
ref = O;
}
);
userData = {
com.schriftgestaltung.Glyphs.glyph.leftMetricsKey = O;
com.schriftgestaltung.Glyphs.glyph.rightMetricsKey = O;
};
width = 1154;
},
{
anchors = (
{
name = bottom;
pos = (394,0);
},
{
name = top;
pos = (394,700);
}
);
layerId = "2B3ECD2C-4B3A-40C3-8F2B-A5E41B85E4DD";
shapes = (
{
closed = 1;
nodes = (
(699,-67,l),
(450,258,l),
(411,231,l),
(659,-96,l)
);
},
{
ref = O;
}
);
userData = {
com.schriftgestaltung.Glyphs.glyph.leftMetricsKey = O;
com.schriftgestaltung.Glyphs.glyph.rightMetricsKey = O;
};
width = 787;
}
);
unicode = 81;
},
{
color = 6;
glyphname = R;
kernLeft = H;
kernRight = R;
layers = (
{
anchors = (
{
name = bottom;
pos = (348,0);
},
{
name = top;
pos = (318,700);
}
);
layerId = "5A878C7E-547A-4951-B48F-676DBBC9B762";
shapes = (
{
closed = 1;
nodes = (
(206,0,l),
(206,263,l),
(396,263,ls),
(517.333,263,o),
(617,362.333,o),
(617,477,cs),
(617,603.667,o),
(516,700,o),
(396,700,cs),
(98,700,l),
(98,0,l)
);
},
{
closed = 1;
nodes = (
(645,-1,l),
(447,341,l),
(336,316,l),
(514,0,l)
);
},
{
closed = 1;
nodes = (
(206,596,l),
(378,596,ls),
(452.667,596,o),
(507,547.333,o),
(507,478,cs),
(507,415.333,o),
(464.667,367,o),
(406,367,cs),
(206,367,l)
);
}
);
width = 695;
},
{
anchors = (
{
name = bottom;
pos = (354,0);
},
{
name = top;
pos = (344,700);
}
);
layerId = "554F9022-F5DF-470A-8852-5D1AD00D5051";
shapes = (
{
closed = 1;
nodes = (
(282,0,l),
(282,233,l),
(408,233,ls),
(554.667,233,o),
(659,331.667,o),
(659,477,cs),
(659,606.333,o),
(554.667,700,o),
(408,700,cs),
(80,700,l),
(80,0,l)
);
},
{
closed = 1;
nodes = (
(688,0,l),
(490,341,l),
(269,316,l),
(447,0,l)
);
},
{
closed = 1;
nodes = (
(282,530,l),
(370,530,ls),
(423.333,530,o),
(449,504,o),
(449,460,cs),
(449,412,o),
(423.333,383,o),
(374,383,cs),
(282,383,l)
);
}
);
width = 707;
},
{
anchors = (
{
name = bottom;
pos = (305,0);
},
{
name = top;
pos = (295,700);
}
);
layerId = "CCD999A9-9CE8-4787-8FD2-D5D19514269E";
shapes = (
{
closed = 1;
nodes = (
(132,0,l),
(132,291,l),
(361,291,ls),
(471.667,291,o),
(545,379,o),
(545,507,cs),
(545,621.667,o),
(471.667,700,o),
(361,700,cs),
(110,700,l),
(110,0,l)
);
},
{
closed = 1;
nodes = (
(569,0,l),
(391,305,l),
(368,298,l),
(543,0,l)
);
},
{
closed = 1;
nodes = (
(132,678,l),
(367,678,ls),
(460.333,678,o),
(522,607,o),
(522,507,cs),
(522,392.333,o),
(460.333,313,o),
(367,313,cs),
(132,313,l)
);
}
);
userData = {
com.schriftgestaltung.Glyphs.glyph.leftMetricsKey = H;
};
width = 609;
},
{
anchors = (
{
name = bottom;
pos = (497,0);
},
{
name = top;
pos = (467,690);
}
);
layerId = "649E0662-786D-44F6-8E8D-A6782F19FFAA";
shapes = (
{
closed = 1;
nodes = (
(290,0,l),
(290,258,l),
(571,258,ls),
(704,258,o),
(818,358,o),
(818,485,cs),
(818,605,o),
(714,700,o),
(591,700,cs),
(182,700,l),
(182,0,l)
);
},
{
closed = 1;
nodes = (
(859,-1,l),
(601,341,l),
(486,316,l),
(724,0,l)
);
},
{
closed = 1;
nodes = (
(290,596,l),
(561,596,ls),
(637,596,o),
(703,546,o),
(703,485,cs),
(703,418,o),
(637,362,o),
(561,362,cs),
(290,362,l)
);
}
);
width = 1011;
},
{
anchors = (
{
name = bottom;
pos = (454,0);
},
{
name = top;
pos = (444,700);
}
);
layerId = "9FF8E21A-ED06-4F66-AEDE-2CE647DC4B08";
shapes = (
{
closed = 1;
nodes = (
(216,0,l),
(216,286,l),
(528,286,ls),
(661,286,o),
(746,374,o),
(746,514,cs),
(746,622,o),
(667,700,o),
(556,700,cs),
(194,700,l),
(194,0,l)
);
},
{
closed = 1;
nodes = (
(783,0,l),
(545,301,l),
(518,298,l),
(754,0,l)
);
},
{
closed = 1;
nodes = (
(216,678,l),
(550,678,ls),
(653,678,o),
(723,606,o),
(723,513,cs),
(723,389,o),
(647,308,o),
(522,308,cs),
(216,308,l)
);
}
);
userData = {
com.schriftgestaltung.Glyphs.glyph.leftMetricsKey = H;
};
width = 925;
},
{
anchors = (
{
name = bottom;
pos = (503,0);
},
{
name = top;
pos = (493,700);
}
);
layerId = "ED109265-B005-47B0-97BD-F1815082B32B";
shapes = (
{
closed = 1;
nodes = (
(366,0,l),
(366,228,l),
(583,228,ls),
(742,228,o),
(860,328,o),
(860,470,cs),
(860,618,o),
(767,700,o),
(568,700,cs),
(164,700,l),
(164,0,l)
);
},
{
closed = 1;
nodes = (
(902,0,l),
(644,341,l),
(419,316,l),
(657,0,l)
);
},
{
closed = 1;
nodes = (
(366,530,l),
(553,530,ls),
(603,530,o),
(645,507,o),
(645,454,cs),
(645,401,o),
(603,378,o),
(556,378,cs),
(366,378,l)
);
}
);
width = 1023;
},
{
anchors = (
{
name = bottom;
pos = (314,0);
},
{
name = top;
pos = (304,700);
}
);
layerId = "2B3ECD2C-4B3A-40C3-8F2B-A5E41B85E4DD";
shapes = (
{
closed = 1;
nodes = (
(158,0,l),
(158,288,l),
(370,288,ls),
(488.667,288,o),
(575,369,o),
(575,489,cs),
(575,609,o),
(484,700,o),
(360,700,cs),
(108,700,l),
(108,0,l)
);
},
{
closed = 1;
nodes = (
(602,0,l),
(412,327,l),
(370,301,l),
(544,0,l)
);
},
{
closed = 1;
nodes = (
(158,650,l),
(357,650,ls),
(453,650,o),
(522,581.667,o),
(522,487,cs),
(522,400.333,o),
(461.333,338,o),
(376,338,cs),
(158,338,l)
);
}
);
userData = {
com.schriftgestaltung.Glyphs.glyph.leftMetricsKey = H;
};
width = 627;
}
);
metricLeft = H;
unicode = 82;
},
{
color = 6;
glyphname = S;
kernLeft = S;
kernRight = S;
layers = (
{
anchors = (
{
name = bottom;
pos = (332,0);
},
{
name = top;
pos = (332,700);
}
);
layerId = "5A878C7E-547A-4951-B48F-676DBBC9B762";
shapes = (
{
closed = 1;
nodes = (
(471.333,-10,o),
(569,74.667,o),
(569,208,cs),
(569,304,o),
(483.667,374.333,o),
(337,405,cs),
(231.667,426.333,o),
(193,459.667,o),
(193,517,cs),
(193,574.333,o),
(245.667,613,o),
(323,613,cs),
(391,613,o),
(447,577.333,o),
(487,512,c),
(563,587,l),
(516.333,667,o),
(434,710,o),
(326,710,cs),
(190,710,o),
(85,627.333,o),
(85,514,cs),
(85,399.333,o),
(155,329,o),
(299,301,cs),
(411,279.667,o),
(461,241.333,o),
(461,180,cs),
(461,125.333,o),
(401,87,o),
(325,87,cs),
(242.333,87,o),
(189.333,117.667,o),
(124,211,c),
(50,126,l),
(112.667,35.333,o),
(199.333,-10,o),
(314,-10,cs)
);
}
);
width = 624;
},
{
anchors = (
{
name = bottom;
pos = (341,0);
},
{
name = top;
pos = (331,700);
}
);
layerId = "554F9022-F5DF-470A-8852-5D1AD00D5051";
shapes = (
{
closed = 1;
nodes = (
(485,-10,o),
(612,70.667,o),
(612,224,cs),
(612,369.333,o),
(505.667,427,o),
(359,455,cs),
(327,461,o),
(254,472,o),
(254,506,cs),
(254,531.333,o),
(281.413,541,o),
(327,541,cs),
(377.057,541,o),
(429.38,522.256,o),
(473,480,c),
(599,601,l),
(547,673,o),
(473.333,720,o),
(316,720,cs),
(172,720,o),
(35,630.333,o),
(35,493,cs),
(35,371.667,o),
(112.667,303.333,o),
(274,266,cs),
(313,257,o),
(395,246,o),
(395,204,cs),
(395,175.809,o),
(368.667,167,o),
(330,167,cs),
(266,167,o),
(189.667,186.667,o),
(123,272,c),
(-2,132,l),
(70,45.333,o),
(166.333,-10,o),
(325,-10,cs)
);
}
);
width = 641;
},
{
anchors = (
{
name = bottom;
pos = (306,0);
},
{
name = top;
pos = (294,700);
}
);
layerId = "CCD999A9-9CE8-4787-8FD2-D5D19514269E";
shapes = (
{
closed = 1;
nodes = (
(429.667,-10,o),
(527,68,o),
(527,172,cs),
(527,277.333,o),
(430.667,323,o),
(272,363,cs),
(160,392.333,o),
(88,435.333,o),
(88,526,cs),
(88,620.667,o),
(177.333,688,o),
(292,688,cs),
(390.667,688,o),
(450,654.667,o),
(494,596,c),
(511,611,l),
(465.667,673.667,o),
(400,710,o),
(292,710,cs),
(164,710,o),
(65,631.143,o),
(65,526,cs),
(65,425.948,o),
(138.397,376.741,o),
(264,342,cs),
(405.333,302,o),
(504,268,o),
(504,172,cs),
(504,78.667,o),
(415,12,o),
(303,12,cs),
(193.667,12,o),
(111.667,52.333,o),
(61,131,c),
(43,115,l),
(96.333,35,o),
(184.333,-10,o),
(303,-10,cs)
);
}
);
width = 567;
},
{
anchors = (
{
name = bottom;
pos = (510,0);
},
{
name = top;
pos = (480,700);
}
);
layerId = "649E0662-786D-44F6-8E8D-A6782F19FFAA";
shapes = (
{
closed = 1;
nodes = (
(677,-10,o),
(807,80,o),
(807,216,cs),
(807,356,o),
(655,384,o),
(495,403,cs),
(367,419,o),
(281,442,o),
(281,515,cs),
(281,576,o),
(363,613,o),
(471,613,cs),
(568,613,o),
(652,576,o),
(709,508,c),
(781,587,l),
(720,667,o),
(613,710,o),
(474,710,cs),
(299,710,o),
(163,634,o),
(163,503,cs),
(163,379,o),
(278,322,o),
(457,299,cs),
(525,291,o),
(689,284,o),
(689,202,cs),
(689,123,o),
(582,87,o),
(479,87,cs),
(368,87,o),
(283,126,o),
(196,216,c),
(128,126,l),
(213,34,o),
(327,-10,o),
(478,-10,cs)
);
}
);
width = 935;
},
{
anchors = (
{
name = bottom;
pos = (482,0);
},
{
name = top;
pos = (462,700);
}
);
layerId = "9FF8E21A-ED06-4F66-AEDE-2CE647DC4B08";
shapes = (
{
closed = 1;
nodes = (
(653,-10,o),
(765,67,o),
(765,180,cs),
(765,321,o),
(589,342,o),
(449,360,cs),
(327,376,o),
(166,393,o),
(166,524,cs),
(166,623,o),
(289,688,o),
(440,688,cs),
(559,688,o),
(651,656,o),
(716,593,c),
(729,611,l),
(667,676,o),
(568,710,o),
(440,710,cs),
(273,710,o),
(143,639,o),
(143,518,cs),
(143,377,o),
(308,355,o),
(448,337,cs),
(557,322,o),
(742,303,o),
(742,184,cs),
(745,79,o),
(633,12,o),
(457,12,cs),
(318,12,o),
(205,55,o),
(133,136,c),
(121,115,l),
(199,32,o),
(311,-10,o),
(457,-10,cs)
);
}
);
width = 878;
},
{
anchors = (
{
name = bottom;
pos = (524,0);
},
{
name = top;
pos = (494,700);
}
);
layerId = "ED109265-B005-47B0-97BD-F1815082B32B";
shapes = (
{
closed = 1;
nodes = (
(696,-10,o),
(855,76,o),
(855,232,cs),
(855,421,o),
(682,437,o),
(521,450,cs),
(467,454,o),
(347,454,o),
(347,497,cs),
(347,533,o),
(404,541,o),
(480,541,cs),
(559,541,o),
(663,521,o),
(730,490,c),
(819,637,l),
(756,673,o),
(646,720,o),
(489,720,cs),
(286,720,o),
(118,637,o),
(118,482,cs),
(118,351,o),
(246,278,o),
(437,264,cs),
(570,254,o),
(628,250,o),
(628,213,cs),
(628,167,o),
(555,167,o),
(515,167,cs),
(420,167,o),
(288,195,o),
(161,265,c),
(76,94,l),
(175,44,o),
(309,-10,o),
(494,-10,cs)
);
}
);
width = 957;
},
{
anchors = (
{
name = bottom;
pos = (317,0);
},
{
name = top;
pos = (307,700);
}
);
layerId = "2B3ECD2C-4B3A-40C3-8F2B-A5E41B85E4DD";
shapes = (
{
closed = 1;
nodes = (
(439.667,-10,o),
(540,74,o),
(540,186,cs),
(540,302,o),
(451.667,346.667,o),
(321,380,cs),
(193,412,o),
(138,442,o),
(138,518,cs),
(138,598,o),
(209,655,o),
(305,655,cs),
(389,655,o),
(446,612,o),
(490,544,c),
(527,580,l),
(477.667,656,o),
(413,705,o),
(305,705,cs),
(182.333,705,o),
(87,627,o),
(87,519,cs),
(87,408.333,o),
(162,369,o),
(290,333,cs),
(407.333,299.667,o),
(489,275,o),
(489,183,cs),
(489,100.333,o),
(409.667,40,o),
(303,40,cs),
(221.667,40,o),
(148.667,73.667,o),
(90,159,c),
(54,122,l),
(112.667,36.667,o),
(201,-10,o),
(301,-10,cs)
);
}
);
width = 593;
}
);
unicode = 83;
},
{
color = 6;
glyphname = Germandbls;
kernLeft = f;
kernRight = S;
layers = (
{
anchors = (
{
name = bottom;
pos = (381,0);
},
{
name = top;
pos = (381,700);
}
);
layerId = "5A878C7E-547A-4951-B48F-676DBBC9B762";
shapes = (
{
closed = 1;
nodes = (
(607.333,-10,o),
(707,78.667,o),
(707,184,cs),
(707,297,o),
(651,335,o),
(545,384,cs),
(478,415,o),
(445,446,o),
(445,486,cs),
(445,543.333,o),
(515.667,589,o),
(641,609,c),
(636,682,l),
(568,711.333,o),
(489.667,726,o),
(407,726,cs),
(221.667,726,o),
(100,575,o),
(99,350,cs),
(98,1,l),
(206,1,l),
(208,343,ls),
(209,523,o),
(290.333,634.667,o),
(417,632,cs),
(474.333,632,o),
(548.333,621,o),
(591,605,c),
(541,643,l),
(419.667,632.333,o),
(338,564,o),
(338,460,cs),
(338,385.333,o),
(373,343,o),
(469,291,cs),
(569,237,o),
(602,219,o),
(602,171,cs),
(602,119,o),
(558,87,o),
(489,87,cs),
(446.333,87,o),
(395.333,115,o),
(362,155,c),
(295,75,l),
(335,23,o),
(412.667,-10,o),
(490,-10,cs)
);
}
);
width = 762;
},
{
anchors = (
{
name = bottom;
pos = (424,0);
},
{
name = top;
pos = (424,700);
}
);
layerId = "554F9022-F5DF-470A-8852-5D1AD00D5051";
shapes = (
{
closed = 1;
nodes = (
(699,-10,o),
(819,83,o),
(819,199,cs),
(819,303,o),
(763,338,o),
(679,380,cs),
(627,406.667,o),
(597,427.667,o),
(597,461,cs),
(597,493,o),
(633,522,o),
(728,529,c),
(728,682,l),
(652,714,o),
(563,726,o),
(471,726,cs),
(236.333,726,o),
(80,575.333,o),
(80,350,cs),
(80,0,l),
(296,0,l),
(296,343,ls),
(296,486,o),
(367,573.333,o),
(479,572,cs),
(533.667,572,o),
(603,559.667,o),
(643,545,c),
(586,584,l),
(491.333,584,o),
(380,515.333,o),
(380,430,cs),
(380,370,o),
(405,334,o),
(481,291,cs),
(554,250,o),
(584,228,o),
(584,199,cs),
(584,176,o),
(566,157,o),
(534,157,cs),
(503.333,157,o),
(472,173,o),
(436,205,c),
(327,75,l),
(368,31,o),
(460,-10,o),
(554,-10,cs)
);
}
);
width = 848;
},
{
anchors = (
{
name = bottom;
pos = (354,0);
},
{
name = top;
pos = (354,700);
}
);
layerId = "CCD999A9-9CE8-4787-8FD2-D5D19514269E";
shapes = (
{
closed = 1;
nodes = (
(577.333,-10,o),
(667,57.333,o),
(667,188,cs),
(667,293,o),
(595,324,o),
(524,369,cs),
(445,419,o),
(394,442,o),
(394,492,cs),
(394,551,o),
(483,589,o),
(606,609,c),
(604,634,l),
(553.333,678,o),
(483.333,710,o),
(386,710,cs),
(186,710,o),
(110,608.667,o),
(110,402,cs),
(110,0,l),
(133,0,l),
(133,391,ls),
(133,607,o),
(205,688,o),
(385,688,cs),
(478.333,688,o),
(546,654.667,o),
(590,620,c),
(590,625,l),
(460,601,o),
(372,559,o),
(372,492,cs),
(372,443,o),
(402,418,o),
(508,354,cs),
(579,311,o),
(644,283,o),
(644,183,cs),
(644,76.333,o),
(565,12,o),
(441,12,cs),
(375.667,12,o),
(310,38.333,o),
(262,93,c),
(245,78,l),
(286.333,24.667,o),
(362.667,-10,o),
(440,-10,cs)
);
}
);
userData = {
com.schriftgestaltung.Glyphs.glyph.leftMetricsKey = H;
com.schriftgestaltung.Glyphs.glyph.rightMetricsKey = S;
};
width = 707;
},
{
anchors = (
{
name = bottom;
pos = (550,0);
},
{
name = top;
pos = (550,700);
}
);
layerId = "649E0662-786D-44F6-8E8D-A6782F19FFAA";
shapes = (
{
closed = 1;
nodes = (
(866,-10,o),
(961,77,o),
(961,184,cs),
(961,300,o),
(882,334,o),
(769,373,cs),
(678,404,o),
(618,433,o),
(618,486,cs),
(618,567,o),
(735,593,o),
(885,609,c),
(875,686,l),
(779,714,o),
(702,726,o),
(605,726,cs),
(345,726,o),
(184,572,o),
(183,257,cs),
(182,0,l),
(290,0,l),
(292,263,ls),
(294,531,o),
(444,637,o),
(605,637,cs),
(685,637,o),
(753,622,o),
(785,613,c),
(785,653,l),
(648,662,o),
(512,597,o),
(512,469,cs),
(512,372,o),
(595,314,o),
(693,283,cs),
(795,251,o),
(857,227,o),
(857,173,cs),
(857,116,o),
(797,87,o),
(721,87,cs),
(638,87,o),
(578,127,o),
(526,163,c),
(459,83,l),
(535,24,o),
(614,-10,o),
(721,-10,cs)
);
}
);
width = 1089;
},
{
anchors = (
{
name = bottom;
pos = (523,0);
},
{
name = top;
pos = (523,700);
}
);
background = {
shapes = (
{
closed = 1;
nodes = (
(831,-10,o),
(921,61,o),
(921,188,cs),
(921,232,o),
(905,268,o),
(869,299,cs),
(837,327,o),
(786,352,o),
(717,373,cs),
(660,391,o),
(620,408,o),
(599,424,cs),
(578,440,o),
(567,461,o),
(567,486,cs),
(567,522,o),
(589,550,o),
(633,569,cs),
(677,588,o),
(748,602,o),
(847,609,c),
(843,638,l),
(750,689,o),
(673,710,o),
(584,710,cs),
(309,710,o),
(194,590,o),
(194,309,cs),
(194,0,l),
(216,0,l),
(216,311,ls),
(216,574,o),
(322,685,o),
(573,688,cs),
(674,688,o),
(751,667,o),
(835,620,c),
(835,626,l),
(734,620,o),
(660,606,o),
(615,584,cs),
(569,561,o),
(546,528,o),
(546,484,cs),
(546,424,o),
(585,393,o),
(709,354,cs),
(772,334,o),
(818,311,o),
(849,286,cs),
(884,258,o),
(899,225,o),
(899,185,cs),
(899,74,o),
(818,12,o),
(673,12,cs),
(589,12,o),
(501,44,o),
(426,101,c),
(412,84,l),
(489,24,o),
(582,-10,o),
(671,-10,cs)
);
}
);
};
layerId = "9FF8E21A-ED06-4F66-AEDE-2CE647DC4B08";
shapes = (
{
closed = 1;
nodes = (
(831,-10,o),
(921,61,o),
(921,188,cs),
(921,292,o),
(836,333,o),
(709,376,cs),
(591,417,o),
(567,447,o),
(567,489,cs),
(567,553,o),
(648,599,o),
(847,609,c),
(843,638,l),
(750,689,o),
(673,710,o),
(584,710,cs),
(309,710,o),
(194,590,o),
(194,309,cs),
(194,0,l),
(216,0,l),
(216,311,ls),
(216,574,o),
(322,685,o),
(573,688,cs),
(674,688,o),
(751,667,o),
(835,620,c),
(835,626,l),
(655,616,o),
(545,575,o),
(545,489,cs),
(545,428,o),
(585,396,o),
(709,354,cs),
(817,317,o),
(899,282,o),
(899,185,cs),
(899,74,o),
(818,12,o),
(673,12,cs),
(589,12,o),
(501,44,o),
(426,101,c),
(412,84,l),
(489,24,o),
(582,-10,o),
(671,-10,cs)
);
}
);
userData = {
com.schriftgestaltung.Glyphs.glyph.leftMetricsKey = H;
com.schriftgestaltung.Glyphs.glyph.rightMetricsKey = S;
};
width = 1034;
},
{
anchors = (
{
name = bottom;
pos = (593,0);
},
{
name = top;
pos = (593,700);
}
);
layerId = "ED109265-B005-47B0-97BD-F1815082B32B";
shapes = (
{
closed = 1;
nodes = (
(958,-10,o),
(1073,82,o),
(1073,199,cs),
(1073,306,o),
(994,337,o),
(903,369,cs),
(827,396,o),
(770,414,o),
(770,461,cs),
(770,517,o),
(852,526,o),
(972,529,c),
(967,686,l),
(863,717,o),
(776,726,o),
(669,726,cs),
(360,726,o),
(164,572,o),
(164,257,cs),
(164,-1,l),
(380,-1,l),
(380,263,ls),
(381,494,o),
(520,576,o),
(667,577,cs),
(744,577,o),
(808,561,o),
(837,553,c),
(830,594,l),
(719,614,o),
(554,548,o),
(554,439,cs),
(554,356,o),
(627,305,o),
(705,283,cs),
(780,264,o),
(839,236,o),
(839,201,cs),
(839,173,o),
(805,157,o),
(766,157,cs),
(695,157,o),
(655,185,o),
(600,213,c),
(491,83,l),
(568,32,o),
(662,-10,o),
(785,-10,cs)
);
}
);
width = 1175;
},
{
anchors = (
{
name = bottom;
pos = (374,0);
},
{
name = top;
pos = (374,700);
}
);
layerId = "2B3ECD2C-4B3A-40C3-8F2B-A5E41B85E4DD";
shapes = (
{
closed = 1;
nodes = (
(601.667,-10,o),
(695,64.333,o),
(695,177,cs),
(695,289,o),
(618,336,o),
(526,384,cs),
(462,418,o),
(426,446,o),
(426,492,cs),
(426,558,o),
(496.667,589,o),
(622,616,c),
(618,658,l),
(547.333,688.667,o),
(488.333,705,o),
(415,705,cs),
(212.333,705,o),
(108,590.667,o),
(108,380,cs),
(108,0,l),
(159,0,l),
(159,374,ls),
(159,558,o),
(251.667,655,o),
(413,655,cs),
(475.667,655,o),
(522.333,646,o),
(569,622,c),
(559,644,l),
(447,628,o),
(373,567.667,o),
(373,492,cs),
(373,431,o),
(409,384,o),
(476,348,cs),
(578,293,o),
(642,262,o),
(642,180,cs),
(642,93.333,o),
(575.333,40,o),
(478,40,cs),
(416.667,40,o),
(355.333,63.667,o),
(310,117,c),
(276,75,l),
(316,23,o),
(393.667,-10,o),
(479,-10,cs)
);
}
);
userData = {
com.schriftgestaltung.Glyphs.glyph.leftMetricsKey = H;
com.schriftgestaltung.Glyphs.glyph.rightMetricsKey = S;
};
width = 748;
}
);
metricLeft = H;
metricRight = S;
unicode = 7838;
},
{
color = 6;
glyphname = Schwa;
kernLeft = C;
kernRight = D;
layers = (
{
anchors = (
{
name = bottom;
pos = (390,0);
},
{
name = top;
pos = (390,700);
}
);
layerId = "5A878C7E-547A-4951-B48F-676DBBC9B762";
shapes = (
{
closed = 1;
nodes = (
(578,-10,o),
(732,151.333,o),
(732,350,cs),
(732,548.667,o),
(576.333,710,o),
(387,710,cs),
(271,710,o),
(189.333,678,o),
(116,606,c),
(184,536,l),
(240,588,o),
(303,613,o),
(387,613,cs),
(532.333,613,o),
(629,512.333,o),
(629,351,cs),
(629,193.667,o),
(528.667,87,o),
(390,87,cs),
(274,87,o),
(172,176,o),
(152,296,c),
(695,296,l),
(686,393,l),
(48,393,l),
(48,313,l),
(57.333,127.667,o),
(208.667,-10,o),
(390,-10,cs)
);
}
);
width = 780;
},
{
anchors = (
{
name = bottom;
pos = (382,0);
},
{
name = top;
pos = (382,700);
}
);
layerId = "554F9022-F5DF-470A-8852-5D1AD00D5051";
shapes = (
{
closed = 1;
nodes = (
(570,-10,o),
(724,151.333,o),
(724,350,cs),
(724,548.667,o),
(568,710,o),
(379,710,cs),
(260,710,o),
(197,684,o),
(101,621,c),
(178,450,l),
(242,494,o),
(284,510,o),
(359,510,cs),
(445.667,510,o),
(504,448.333,o),
(504,351,cs),
(504,240.333,o),
(452.667,190,o),
(382,190,cs),
(340.667,190,o),
(296.667,213,o),
(274,261,c),
(687,261,l),
(678,427,l),
(40,427,l),
(40,313,l),
(49,128,o),
(201,-10,o),
(382,-10,cs)
);
}
);
width = 764;
},
{
anchors = (
{
name = bottom;
pos = (398,0);
},
{
name = top;
pos = (398,700);
}
);
layerId = "CCD999A9-9CE8-4787-8FD2-D5D19514269E";
shapes = (
{
closed = 1;
nodes = (
(591,-10,o),
(740,137.333,o),
(740,344,cs),
(740,553.333,o),
(581.333,710,o),
(372,710,cs),
(281.333,710,o),
(186.667,667.667,o),
(128,609,c),
(143,593,l),
(200.333,647.667,o),
(283.333,688,o),
(370,688,cs),
(567.333,688,o),
(717,542.667,o),
(717,348,cs),
(717,153.333,o),
(578.667,12,o),
(396,12,cs),
(202.667,12,o),
(77,160.333,o),
(77,343,c),
(728,343,l),
(728,365,l),
(55,365,l),
(55,353,ls),
(51,147.667,o),
(195,-10,o),
(395,-10,cs)
);
}
);
userData = {
com.schriftgestaltung.Glyphs.glyph.leftMetricsKey = O;
com.schriftgestaltung.Glyphs.glyph.rightMetricsKey = O;
};
width = 795;
},
{
anchors = (
{
name = bottom;
pos = (484,0);
},
{
name = top;
pos = (484,700);
}
);
layerId = "649E0662-786D-44F6-8E8D-A6782F19FFAA";
shapes = (
{
closed = 1;
nodes = (
(680,-10,o),
(839,151,o),
(839,350,cs),
(839,549,o),
(677,710,o),
(482,710,cs),
(365,710,o),
(276,676,o),
(196,588,c),
(264,528,l),
(327,591,o),
(398,613,o),
(482,613,cs),
(617,613,o),
(729,526,o),
(729,351,cs),
(729,190,o),
(618,87,o),
(485,87,cs),
(365,87,o),
(260,180,o),
(239,296,c),
(775,296,l),
(766,393,l),
(128,393,l),
(128,313,l),
(137,118,o),
(308,-10,o),
(485,-10,cs)
);
}
);
width = 967;
},
{
anchors = (
{
name = bottom;
pos = (488,0);
},
{
name = top;
pos = (488,700);
}
);
layerId = "9FF8E21A-ED06-4F66-AEDE-2CE647DC4B08";
shapes = (
{
closed = 1;
nodes = (
(686,-10,o),
(840,137,o),
(840,344,cs),
(840,567,o),
(683,710,o),
(470,710,cs),
(355,710,o),
(268,665,o),
(203,589,c),
(218,576,l),
(281,647,o),
(368,688,o),
(467,688,cs),
(656,688,o),
(818,561,o),
(818,348,cs),
(818,149,o),
(665,12,o),
(484,12,cs),
(293,12,o),
(158,162,o),
(157,343,c),
(831,343,l),
(831,365,l),
(135,365,l),
(135,353,ls),
(131,138,o),
(291,-10,o),
(483,-10,cs)
);
}
);
userData = {
com.schriftgestaltung.Glyphs.glyph.leftMetricsKey = O;
com.schriftgestaltung.Glyphs.glyph.rightMetricsKey = O;
};
width = 975;
},
{
anchors = (
{
name = bottom;
pos = (476,0);
},
{
name = top;
pos = (476,700);
}
);
layerId = "ED109265-B005-47B0-97BD-F1815082B32B";
shapes = (
{
closed = 1;
nodes = (
(672,-10,o),
(831,151,o),
(831,350,cs),
(831,549,o),
(669,710,o),
(474,710,cs),
(354,710,o),
(284,682,o),
(181,603,c),
(258,442,l),
(329,497,o),
(379,510,o),
(454,510,cs),
(530,510,o),
(604,462,o),
(604,351,cs),
(604,236,o),
(542,190,o),
(477,190,cs),
(432,190,o),
(385,217,o),
(361,261,c),
(767,261,l),
(758,427,l),
(120,427,l),
(120,313,l),
(129,118,o),
(300,-10,o),
(477,-10,cs)
);
}
);
width = 951;
},
{
anchors = (
{
name = bottom;
pos = (393,0);
},
{
name = top;
pos = (393,700);
}
);
layerId = "2B3ECD2C-4B3A-40C3-8F2B-A5E41B85E4DD";
shapes = (
{
closed = 1;
nodes = (
(581.667,-10,o),
(735,147.333,o),
(735,346,cs),
(735,548.667,o),
(576.667,705,o),
(374,705,cs),
(275.333,705,o),
(183.667,669.333,o),
(121,608,c),
(156,569,l),
(210.973,621.292,o),
(287.667,655,o),
(373,655,cs),
(544.779,655,o),
(682,521,o),
(682,349,cs),
(682,178.333,o),
(549.096,40,o),
(388,40,cs),
(233.583,40,o),
(104.339,167.449,o),
(103,324,c),
(705,324,l),
(705,374,l),
(50,374,l),
(50,340,ls),
(50,141.333,o),
(195,-10,o),
(387,-10,cs)
);
}
);
userData = {
com.schriftgestaltung.Glyphs.glyph.leftMetricsKey = O;
com.schriftgestaltung.Glyphs.glyph.rightMetricsKey = O;
};
width = 785;
}
);
metricLeft = O;
metricRight = O;
unicode = 399;
},
{
color = 6;
glyphname = T;
kernLeft = T;
kernRight = T;
layers = (
{
anchors = (
{
name = bottom;
pos = (288,0);
},
{
name = center;
pos = (288,350);
},
{
name = top;
pos = (288,700);
}
);
layerId = "5A878C7E-547A-4951-B48F-676DBBC9B762";
shapes = (
{
closed = 1;
nodes = (
(339,0,l),
(339,596,l),
(541,596,l),
(541,700,l),
(35,700,l),
(35,596,l),
(231,596,l),
(231,0,l)
);
}
);
width = 576;
},
{
anchors = (
{
name = bottom;
pos = (357,0);
},
{
name = center;
pos = (357,350);
},
{
name = top;
pos = (357,700);
}
);
layerId = "554F9022-F5DF-470A-8852-5D1AD00D5051";
shapes = (
{
closed = 1;
nodes = (
(462,0,l),
(462,516,l),
(684,516,l),
(684,700,l),
(30,700,l),
(30,516,l),
(246,516,l),
(246,0,l)
);
}
);
width = 714;
},
{
anchors = (
{
name = bottom;
pos = (244,0);
},
{
name = center;
pos = (244,350);
},
{
name = top;
pos = (244,700);
}
);
layerId = "CCD999A9-9CE8-4787-8FD2-D5D19514269E";
shapes = (
{
closed = 1;
nodes = (
(255,0,l),
(255,678,l),
(468,678,l),
(468,700,l),
(20,700,l),
(20,678,l),
(233,678,l),
(233,0,l)
);
}
);
width = 488;
},
{
anchors = (
{
name = bottom;
pos = (423,0);
},
{
name = center;
pos = (423,350);
},
{
name = top;
pos = (423,700);
}
);
layerId = "649E0662-786D-44F6-8E8D-A6782F19FFAA";
shapes = (
{
closed = 1;
nodes = (
(474,0,l),
(474,596,l),
(746,596,l),
(746,700,l),
(100,700,l),
(100,596,l),
(366,596,l),
(366,0,l)
);
}
);
width = 846;
},
{
anchors = (
{
name = bottom;
pos = (379,0);
},
{
name = center;
pos = (379,350);
},
{
name = top;
pos = (379,700);
}
);
layerId = "9FF8E21A-ED06-4F66-AEDE-2CE647DC4B08";
shapes = (
{
closed = 1;
nodes = (
(390,0,l),
(390,678,l),
(673,678,l),
(673,700,l),
(85,700,l),
(85,678,l),
(368,678,l),
(368,0,l)
);
}
);
width = 758;
},
{
anchors = (
{
name = bottom;
pos = (492,0);
},
{
name = center;
pos = (492,350);
},
{
name = top;
pos = (492,700);
}
);
layerId = "ED109265-B005-47B0-97BD-F1815082B32B";
shapes = (
{
closed = 1;
nodes = (
(597,0,l),
(597,516,l),
(889,516,l),
(889,700,l),
(95,700,l),
(95,516,l),
(381,516,l),
(381,0,l)
);
}
);
width = 984;
},
{
anchors = (
{
name = bottom;
pos = (254,0);
},
{
name = center;
pos = (259,350);
},
{
name = top;
pos = (259,700);
}
);
layerId = "2B3ECD2C-4B3A-40C3-8F2B-A5E41B85E4DD";
shapes = (
{
closed = 1;
nodes = (
(280,0,l),
(280,650,l),
(492,650,l),
(492,700,l),
(25,700,l),
(25,650,l),
(230,650,l),
(230,0,l)
);
}
);
width = 517;
}
);
unicode = 84;
},
{
color = 3;
glyphname = Tbar;
kernLeft = T;
kernRight = T;
layers = (
{
layerId = "5A878C7E-547A-4951-B48F-676DBBC9B762";
shapes = (
{
closed = 1;
nodes = (
(422,307,l),
(422,397,l),
(154,397,l),
(154,307,l)
);
},
{
ref = T;
}
);
width = 576;
},
{
layerId = "554F9022-F5DF-470A-8852-5D1AD00D5051";
shapes = (
{
closed = 1;
nodes = (
(548,281,l),
(548,421,l),
(180,421,l),
(180,281,l)
);
},
{
ref = T;
}
);
width = 714;
},
{
layerId = "CCD999A9-9CE8-4787-8FD2-D5D19514269E";
shapes = (
{
closed = 1;
nodes = (
(377,340,l),
(377,361,l),
(109,361,l),
(109,340,l)
);
},
{
ref = T;
}
);
userData = {
com.schriftgestaltung.Glyphs.glyph.leftMetricsKey = T;
com.schriftgestaltung.Glyphs.glyph.rightMetricsKey = T;
};
width = 488;
},
{
layerId = "649E0662-786D-44F6-8E8D-A6782F19FFAA";
shapes = (
{
closed = 1;
nodes = (
(627,308,l),
(627,394,l),
(219,394,l),
(219,308,l)
);
},
{
ref = T;
}
);
width = 846;
},
{
layerId = "9FF8E21A-ED06-4F66-AEDE-2CE647DC4B08";
shapes = (
{
closed = 1;
nodes = (
(583,341,l),
(583,358,l),
(175,358,l),
(175,341,l)
);
},
{
ref = T;
}
);
userData = {
com.schriftgestaltung.Glyphs.glyph.leftMetricsKey = T;
com.schriftgestaltung.Glyphs.glyph.rightMetricsKey = T;
};
width = 758;
},
{
layerId = "ED109265-B005-47B0-97BD-F1815082B32B";
shapes = (
{
closed = 1;
nodes = (
(753,282,l),
(753,418,l),
(245,418,l),
(245,282,l)
);
},
{
ref = T;
}
);
userData = {
com.schriftgestaltung.Glyphs.glyph.leftMetricsKey = T;
com.schriftgestaltung.Glyphs.glyph.rightMetricsKey = T;
};
width = 984;
},
{
anchors = (
{
name = bottom;
pos = (492,0);
},
{
name = center;
pos = (492,350);
},
{
name = top;
pos = (492,700);
}
);
associatedMasterId = "ED109265-B005-47B0-97BD-F1815082B32B";
layerId = "0F331783-0FF3-4BF6-85D6-ADB828A20426";
name = foreground;
shapes = (
{
closed = 1;
nodes = (
(753,282,l),
(753,418,l),
(245,418,l),
(245,282,l)
);
},
{
ref = T;
}
);
userData = {
com.schriftgestaltung.Glyphs.glyph.leftMetricsKey = T;
com.schriftgestaltung.Glyphs.glyph.rightMetricsKey = T;
};
width = 984;
},
{
layerId = "2B3ECD2C-4B3A-40C3-8F2B-A5E41B85E4DD";
shapes = (
{
closed = 1;
nodes = (
(392,329,l),
(392,374,l),
(124,374,l),
(124,329,l)
);
},
{
ref = T;
}
);
userData = {
com.schriftgestaltung.Glyphs.glyph.leftMetricsKey = T;
com.schriftgestaltung.Glyphs.glyph.rightMetricsKey = T;
};
width = 517;
}
);
unicode = 358;
},
{
color = 6;
glyphname = U;
kernLeft = U;
kernRight = U;
layers = (
{
anchors = (
{
name = bottom;
pos = (370,0);
},
{
name = ogonek;
pos = (540,0);
},
{
name = top;
pos = (370,700);
},
{
name = topright;
pos = (720,700);
}
);
layerId = "5A878C7E-547A-4951-B48F-676DBBC9B762";
shapes = (
{
closed = 1;
nodes = (
(532.667,-6,o),
(652,110.333,o),
(652,269,cs),
(652,701,l),
(549,701,l),
(549,278,ls),
(549,176.667,o),
(470,98,o),
(370,98,cs),
(275.333,98,o),
(196,176.667,o),
(196,278,cs),
(196,701,l),
(88,701,l),
(88,269,ls),
(88,110.333,o),
(207.333,-6,o),
(370,-6,cs)
);
}
);
width = 740;
},
{
anchors = (
{
name = bottom;
pos = (392,0);
},
{
name = ogonek;
pos = (585,0);
},
{
name = top;
pos = (392,700);
},
{
name = topright;
pos = (764,700);
}
);
layerId = "554F9022-F5DF-470A-8852-5D1AD00D5051";
shapes = (
{
closed = 1;
nodes = (
(573.333,-6,o),
(704,109,o),
(704,269,cs),
(704,700,l),
(491,700,l),
(491,278,ls),
(491,219.333,o),
(449.333,178,o),
(392,178,cs),
(337.333,178,o),
(298,219.333,o),
(298,278,cs),
(298,700,l),
(80,700,l),
(80,269,ls),
(80,109,o),
(210.667,-6,o),
(392,-6,cs)
);
}
);
width = 784;
},
{
anchors = (
{
name = bottom;
pos = (372,0);
},
{
name = ogonek;
pos = (523,-6);
},
{
name = top;
pos = (372,700);
},
{
name = topright;
pos = (724,700);
}
);
layerId = "CCD999A9-9CE8-4787-8FD2-D5D19514269E";
shapes = (
{
closed = 1;
nodes = (
(522.667,-6,o),
(634,109,o),
(634,269,cs),
(634,700,l),
(612,700,l),
(612,278,ls),
(612,124.667,o),
(512,16,o),
(368,16,cs),
(228,16,o),
(132,124.667,o),
(132,278,cs),
(132,700,l),
(110,700,l),
(110,269,ls),
(110,109,o),
(217.333,-6,o),
(368,-6,cs)
);
}
);
width = 744;
},
{
anchors = (
{
name = bottom;
pos = (522,0);
},
{
name = ogonek;
pos = (694,0);
},
{
name = top;
pos = (522,700);
},
{
name = topright;
pos = (942,700);
}
);
layerId = "649E0662-786D-44F6-8E8D-A6782F19FFAA";
shapes = (
{
closed = 1;
nodes = (
(734,-6,o),
(874,139,o),
(874,335,cs),
(874,701,l),
(771,701,l),
(771,339,ls),
(771,200,o),
(665,99,o),
(522,99,cs),
(386,99,o),
(278,200,o),
(278,339,cs),
(278,701,l),
(170,701,l),
(170,335,ls),
(170,139,o),
(310,-6,o),
(522,-6,cs)
);
}
);
width = 1044;
},
{
anchors = (
{
name = bottom;
pos = (524,0);
},
{
name = ogonek;
pos = (878,10);
},
{
name = top;
pos = (524,700);
},
{
name = topright;
pos = (834,700);
}
);
layerId = "9FF8E21A-ED06-4F66-AEDE-2CE647DC4B08";
shapes = (
{
closed = 1;
nodes = (
(724,-6,o),
(856,138,o),
(856,335,cs),
(856,700,l),
(834,700,l),
(834,339,ls),
(834,148,o),
(707,17,o),
(520,17,cs),
(339,17,o),
(214,148,o),
(214,339,cs),
(214,700,l),
(192,700,l),
(192,337,ls),
(192,137,o),
(320,-6,o),
(520,-6,cs)
);
}
);
width = 1048;
},
{
anchors = (
{
name = bottom;
pos = (544,0);
},
{
name = ogonek;
pos = (739,0);
},
{
name = top;
pos = (544,700);
},
{
name = topright;
pos = (986,700);
}
);
layerId = "ED109265-B005-47B0-97BD-F1815082B32B";
shapes = (
{
closed = 1;
nodes = (
(775,-6,o),
(926,138,o),
(926,335,cs),
(926,700,l),
(713,700,l),
(713,339,ls),
(713,243,o),
(644,179,o),
(544,179,cs),
(448,179,o),
(380,243,o),
(380,339,cs),
(380,700,l),
(162,700,l),
(162,335,ls),
(162,138,o),
(313,-6,o),
(544,-6,cs)
);
}
);
width = 1088;
},
{
anchors = (
{
name = bottom;
pos = (377,0);
},
{
name = ogonek;
pos = (573,0);
},
{
name = top;
pos = (377,700);
},
{
name = topright;
pos = (733,700);
}
);
layerId = "2B3ECD2C-4B3A-40C3-8F2B-A5E41B85E4DD";
shapes = (
{
closed = 1;
nodes = (
(531,-7,o),
(645,108,o),
(645,268,cs),
(645,700,l),
(596,700,l),
(596,277,ls),
(596,141,o),
(503,43,o),
(374,43,cs),
(249,43,o),
(158,141,o),
(158,277,cs),
(158,700,l),
(108,700,l),
(108,268,ls),
(108,108,o),
(219,-7,o),
(374,-7,cs)
);
}
);
width = 753;
}
);
unicode = 85;
},
{
color = 6;
glyphname = Uhorn;
kernLeft = U;
kernRight = U;
layers = (
{
anchors = (
{
name = bottom;
pos = (372,0);
},
{
name = top;
pos = (372,700);
}
);
layerId = "CCD999A9-9CE8-4787-8FD2-D5D19514269E";
shapes = (
{
closed = 1;
nodes = (
(522.667,-6,o),
(634,109,o),
(634,269,cs),
(634,692,l),
(620,679,l),
(706,679,o),
(749,721,o),
(749,799,c),
(727,799,l),
(727,732,o),
(689,700,o),
(621,700,cs),
(612,700,l),
(612,278,ls),
(612,124.667,o),
(512,16,o),
(368,16,cs),
(228,16,o),
(132,124.667,o),
(132,278,cs),
(132,700,l),
(110,700,l),
(110,269,ls),
(110,109,o),
(217.333,-6,o),
(368,-6,cs)
);
}
);
width = 744;
},
{
anchors = (
{
name = bottom;
pos = (370,0);
},
{
name = top;
pos = (370,700);
}
);
layerId = "5A878C7E-547A-4951-B48F-676DBBC9B762";
shapes = (
{
closed = 1;
nodes = (
(532.667,-6,o),
(652,110.333,o),
(652,269,cs),
(652,673,l),
(622,621,l),
(714,636,o),
(765,707,o),
(765,814,c),
(673,814,l),
(673,745.118,o),
(650,701,o),
(587,701,cs),
(549,701,l),
(549,278,ls),
(549,176.667,o),
(470,98,o),
(370,98,cs),
(275.333,98,o),
(196,176.667,o),
(196,278,cs),
(196,701,l),
(88,701,l),
(88,269,ls),
(88,110.333,o),
(207.333,-6,o),
(370,-6,cs)
);
}
);
width = 740;
},
{
anchors = (
{
name = bottom;
pos = (392,0);
},
{
name = top;
pos = (392,700);
}
);
layerId = "554F9022-F5DF-470A-8852-5D1AD00D5051";
shapes = (
{
closed = 1;
nodes = (
(573.333,-6,o),
(704,109,o),
(704,269,cs),
(704,659,l),
(645,616,l),
(764,626,o),
(811,727,o),
(811,834,c),
(659,834,l),
(659,745,o),
(630,700,o),
(570,700,cs),
(491,700,l),
(491,278,ls),
(491,219.333,o),
(449.333,178,o),
(392,178,cs),
(337.333,178,o),
(298,219.333,o),
(298,278,cs),
(298,700,l),
(80,700,l),
(80,269,ls),
(80,109,o),
(210.667,-6,o),
(392,-6,cs)
);
}
);
width = 784;
},
{
anchors = (
{
name = bottom;
pos = (522,0);
},
{
name = top;
pos = (522,700);
}
);
layerId = "649E0662-786D-44F6-8E8D-A6782F19FFAA";
shapes = (
{
closed = 1;
nodes = (
(734,-6,o),
(874,139,o),
(874,335,cs),
(874,682,l),
(844,644,l),
(939,644,o),
(984,718,o),
(984,814,c),
(892,814,l),
(892,740,o),
(871,701,o),
(792,701,cs),
(771,701,l),
(771,339,ls),
(771,200,o),
(665,99,o),
(522,99,cs),
(386,99,o),
(278,200,o),
(278,339,cs),
(278,701,l),
(170,701,l),
(170,335,ls),
(170,139,o),
(310,-6,o),
(522,-6,cs)
);
}
);
width = 1044;
},
{
anchors = (
{
name = bottom;
pos = (524,0);
},
{
name = top;
pos = (524,700);
}
);
layerId = "9FF8E21A-ED06-4F66-AEDE-2CE647DC4B08";
shapes = (
{
closed = 1;
nodes = (
(724,-6,o),
(856,138,o),
(856,335,cs),
(856,696,l),
(844,678,l),
(909,680,o),
(952,708,o),
(952,799,c),
(930,799,l),
(930,733,o),
(905,700,o),
(844,700,cs),
(834,700,l),
(834,339,ls),
(834,148,o),
(707,17,o),
(520,17,cs),
(339,17,o),
(214,148,o),
(214,339,cs),
(214,700,l),
(192,700,l),
(192,337,ls),
(192,137,o),
(320,-6,o),
(520,-6,cs)
);
}
);
width = 978;
},
{
anchors = (
{
name = bottom;
pos = (544,0);
},
{
name = top;
pos = (544,700);
}
);
layerId = "ED109265-B005-47B0-97BD-F1815082B32B";
shapes = (
{
closed = 1;
nodes = (
(775,-6,o),
(926,138,o),
(926,335,cs),
(926,668,l),
(867,639,l),
(989,634,o),
(1030,738,o),
(1030,834,c),
(878,834,l),
(878,740,o),
(851,700,o),
(775,700,cs),
(713,700,l),
(713,339,ls),
(713,243,o),
(644,179,o),
(544,179,cs),
(448,179,o),
(380,243,o),
(380,339,cs),
(380,700,l),
(162,700,l),
(162,335,ls),
(162,138,o),
(313,-6,o),
(544,-6,cs)
);
}
);
width = 1088;
},
{
anchors = (
{
name = bottom;
pos = (377,0);
},
{
name = top;
pos = (377,700);
}
);
layerId = "2B3ECD2C-4B3A-40C3-8F2B-A5E41B85E4DD";
shapes = (
{
closed = 1;
nodes = (
(531,-7,o),
(645,108,o),
(645,268,cs),
(645,690,l),
(609,663,l),
(709,668,o),
(767,724,o),
(767,810,c),
(719,810,l),
(719,740,o),
(679,700,o),
(604,700,cs),
(596,700,l),
(596,277,ls),
(596,141,o),
(503,43,o),
(374,43,cs),
(249,43,o),
(158,141,o),
(158,277,cs),
(158,700,l),
(108,700,l),
(108,268,ls),
(108,108,o),
(219,-7,o),
(374,-7,cs)
);
}
);
width = 753;
}
);
unicode = 431;
},
{
color = 3;
glyphname = Uogonek;
kernLeft = U;
kernRight = U;
layers = (
{
layerId = "CCD999A9-9CE8-4787-8FD2-D5D19514269E";
shapes = (
{
closed = 1;
nodes = (
(499,-236,o),
(533,-214,o),
(549,-182,c),
(534,-169,l),
(519,-196,o),
(494,-214,o),
(459,-214,cs),
(415,-214,o),
(381,-180,o),
(381,-129,cs),
(381,-63,o),
(439,-13,o),
(512,33,c),
(507,51,l),
(432,5,o),
(359,-47,o),
(359,-132,cs),
(359,-192,o),
(403,-236,o),
(459,-236,cs)
);
},
{
ref = U;
}
);
width = 744;
},
{
layerId = "5A878C7E-547A-4951-B48F-676DBBC9B762";
shapes = (
{
closed = 1;
nodes = (
(482,-200,o),
(529,-171,o),
(543,-138,c),
(487,-98,l),
(476,-114,o),
(464,-123,o),
(450,-123,cs),
(428,-123,o),
(416,-108,o),
(416,-84,cs),
(416,-44,o),
(455,-3,o),
(532,40,c),
(494,85,l),
(404,38,o),
(325,-16,o),
(325,-97,cs),
(325,-164,o),
(376,-200,o),
(434,-200,cs)
);
},
{
ref = U;
}
);
width = 740;
},
{
layerId = "554F9022-F5DF-470A-8852-5D1AD00D5051";
shapes = (
{
closed = 1;
nodes = (
(541,-220,o),
(588,-179,o),
(613,-133,c),
(533,-74,l),
(524,-90,o),
(516,-97,o),
(503,-97,cs),
(489,-97,o),
(479,-84,o),
(479,-67,cs),
(479,-15,o),
(543,23,o),
(594,55,c),
(562,104,l),
(442,48,o),
(353,-9,o),
(353,-103,cs),
(353,-170,o),
(401,-220,o),
(475,-220,cs)
);
},
{
ref = U;
}
);
width = 784;
},
{
layerId = "649E0662-786D-44F6-8E8D-A6782F19FFAA";
shapes = (
{
closed = 1;
nodes = (
(669,-200,o),
(713,-166,o),
(724,-138,c),
(668,-98,l),
(660,-111,o),
(648,-123,o),
(631,-123,cs),
(610,-123,o),
(597,-108,o),
(597,-81,cs),
(597,-21,o),
(676,22,o),
(703,37,c),
(682,91,l),
(644,61,o),
(506,0,o),
(506,-99,cs),
(506,-158,o),
(553,-200,o),
(615,-200,cs)
);
},
{
ref = U;
}
);
width = 1044;
},
{
layerId = "9FF8E21A-ED06-4F66-AEDE-2CE647DC4B08";
shapes = (
{
closed = 1;
nodes = (
(649,-236,o),
(678,-214,o),
(699,-182,c),
(684,-169,l),
(669,-196,o),
(644,-214,o),
(609,-214,cs),
(565,-214,o),
(531,-180,o),
(531,-135,cs),
(531,-83,o),
(564,-25,o),
(707,45,c),
(702,63,l),
(559,-6,o),
(509,-67,o),
(509,-138,cs),
(509,-192,o),
(553,-236,o),
(609,-236,cs)
);
},
{
ref = U;
}
);
width = 1048;
},
{
layerId = "ED109265-B005-47B0-97BD-F1815082B32B";
shapes = (
{
closed = 1;
nodes = (
(728,-220,o),
(772,-174,o),
(794,-133,c),
(714,-74,l),
(708,-87,o),
(700,-97,o),
(684,-97,cs),
(671,-97,o),
(660,-84,o),
(660,-64,cs),
(660,8,o),
(764,48,o),
(765,52,c),
(750,110,l),
(682,71,o),
(534,7,o),
(534,-105,cs),
(534,-164,o),
(578,-220,o),
(656,-220,cs)
);
},
{
ref = U;
}
);
width = 1088;
},
{
anchors = (
{
name = bottom;
pos = (544,0);
},
{
name = ogonek;
pos = (739,0);
},
{
name = top;
pos = (544,700);
},
{
name = topright;
pos = (986,700);
}
);
associatedMasterId = "ED109265-B005-47B0-97BD-F1815082B32B";
layerId = "3D259DE2-AEE4-4C27-911A-2FDBF605161C";
name = foreground;
shapes = (
{
closed = 1;
nodes = (
(728,-220,o),
(772,-174,o),
(794,-133,c),
(714,-74,l),
(708,-87,o),
(700,-97,o),
(684,-97,cs),
(671,-97,o),
(660,-84,o),
(660,-64,cs),
(660,8,o),
(764,48,o),
(765,52,c),
(750,110,l),
(682,71,o),
(534,7,o),
(534,-105,cs),
(534,-164,o),
(578,-220,o),
(656,-220,cs)
);
},
{
ref = U;
}
);
width = 1088;
},
{
layerId = "2B3ECD2C-4B3A-40C3-8F2B-A5E41B85E4DD";
shapes = (
{
closed = 1;
nodes = (
(524,-221,o),
(557,-203,o),
(583,-170,c),
(550,-146,l),
(534,-165,o),
(510,-178,o),
(481,-178,cs),
(442,-178,o),
(412,-152,o),
(412,-107,cs),
(412,-39,o),
(484,6,o),
(550,54,c),
(524,76,l),
(442,22,o),
(364,-24,o),
(364,-111,cs),
(364,-177,o),
(415,-221,o),
(479,-221,cs)
);
},
{
ref = U;
}
);
width = 753;
}
);
unicode = 370;
},
{
color = 6;
glyphname = V;
kernLeft = V;
kernRight = V;
layers = (
{
anchors = (
{
name = bottom;
pos = (358,0);
},
{
name = top;
pos = (358,700);
}
);
layerId = "5A878C7E-547A-4951-B48F-676DBBC9B762";
shapes = (
{
closed = 1;
nodes = (
(409,0,l),
(691,700,l),
(565,700,l),
(410,275,ls),
(380.667,196.333,o),
(364.333,146,o),
(351,98,c),
(377,99,l),
(362.333,145.667,o),
(346,192.333,o),
(314,275,cs),
(147,700,l),
(24,700,l),
(304,0,l)
);
}
);
width = 715;
},
{
anchors = (
{
name = bottom;
pos = (355,0);
},
{
name = top;
pos = (355,700);
}
);
layerId = "554F9022-F5DF-470A-8852-5D1AD00D5051";
shapes = (
{
closed = 1;
nodes = (
(439,0,l),
(720,700,l),
(511,700,l),
(399,394,ls),
(368.333,311.333,o),
(360,288,o),
(340,204,c),
(375,204,l),
(356.333,288,o),
(348.667,311.333,o),
(318,394,cs),
(206,700,l),
(-10,700,l),
(269,0,l)
);
}
);
width = 710;
},
{
anchors = (
{
name = bottom;
pos = (302,0);
},
{
name = top;
pos = (302,700);
}
);
layerId = "CCD999A9-9CE8-4787-8FD2-D5D19514269E";
shapes = (
{
closed = 1;
nodes = (
(315,0,l),
(584,700,l),
(558,700,l),
(320.35,73.892,ls),
(306,37,o),
(297.097,14.992,o),
(295,8,c),
(308,8,l),
(305.213,14.969,o),
(296.639,37.55,o),
(282.281,75.744,cs),
(46,700,l),
(20,700,l),
(288,0,l)
);
}
);
width = 604;
},
{
anchors = (
{
name = bottom;
pos = (476,0);
},
{
name = top;
pos = (476,700);
}
);
layerId = "649E0662-786D-44F6-8E8D-A6782F19FFAA";
shapes = (
{
closed = 1;
nodes = (
(545,0,l),
(860,700,l),
(733,700,l),
(560,281,ls),
(536,223,o),
(489,120,o),
(467,60,c),
(499,61,l),
(477,127,o),
(418,246,o),
(401,283,cs),
(214,700,l),
(92,700,l),
(415,0,l)
);
}
);
width = 952;
},
{
anchors = (
{
name = bottom;
pos = (450,0);
},
{
name = top;
pos = (450,700);
}
);
layerId = "9FF8E21A-ED06-4F66-AEDE-2CE647DC4B08";
shapes = (
{
closed = 1;
nodes = (
(465,0,l),
(810,700,l),
(786,701,l),
(509,137,ls),
(489,96,o),
(472,62,o),
(445,9,c),
(455,9,l),
(447,24,o),
(436,45,o),
(390,138,cs),
(114,701,l),
(90,700,l),
(434,0,l)
);
}
);
width = 900;
},
{
anchors = (
{
name = bottom;
pos = (473,0);
},
{
name = top;
pos = (473,700);
}
);
layerId = "ED109265-B005-47B0-97BD-F1815082B32B";
shapes = (
{
closed = 1;
nodes = (
(575,0,l),
(889,700,l),
(679,700,l),
(549,400,ls),
(524,338,o),
(485,262,o),
(456,166,c),
(497,166,l),
(471,269,o),
(421,365,o),
(405,402,cs),
(273,700,l),
(58,700,l),
(380,0,l)
);
}
);
width = 947;
},
{
anchors = (
{
name = bottom;
pos = (324,0);
},
{
name = top;
pos = (324,700);
}
);
layerId = "2B3ECD2C-4B3A-40C3-8F2B-A5E41B85E4DD";
shapes = (
{
closed = 1;
nodes = (
(346,0,l),
(622,700,l),
(568,700,l),
(380,222,ls),
(346.667,138,o),
(334,99.667,o),
(306,13,c),
(333,13,l),
(306.333,97,o),
(292.667,133.333,o),
(262,216,cs),
(81,700,l),
(25,700,l),
(288,0,l)
);
}
);
width = 647;
}
);
unicode = 86;
},
{
color = 6;
glyphname = W;
kernLeft = W;
kernRight = W;
layers = (
{
anchors = (
{
name = bottom;
pos = (498,0);
},
{
name = top;
pos = (498,700);
}
);
layerId = "5A878C7E-547A-4951-B48F-676DBBC9B762";
shapes = (
{
closed = 1;
nodes = (
(320,0,l),
(498,434,l),
(489,438,l),
(674,0,l),
(749,0,l),
(972,700,l),
(856,700,l),
(723,265,ls),
(696,177,o),
(705,203,o),
(688,112,c),
(714,119,l),
(700,171,o),
(690,214,o),
(670,263,cs),
(548,579,l),
(451,579,l),
(325,263,ls),
(316.809,241.939,o),
(308.257,215.047,o),
(279,110,c),
(308,109,l),
(301,140,o),
(289,218,o),
(274,262,cs),
(139,700,l),
(24,700,l),
(247,0,l)
);
}
);
width = 996;
},
{
anchors = (
{
name = bottom;
pos = (495,0);
},
{
name = top;
pos = (495,700);
}
);
layerId = "554F9022-F5DF-470A-8852-5D1AD00D5051";
shapes = (
{
closed = 1;
nodes = (
(369,0,l),
(504,377,l),
(477,377,l),
(629,0,l),
(799,0,l),
(1000,700,l),
(791,700,l),
(709,384,ls),
(687.667,301.333,o),
(690,232.667,o),
(690,194,c),
(705,194,l),
(705,246,o),
(696,304,o),
(668,384,cs),
(581,631,l),
(416,631,l),
(329,384,ls),
(301,302.667,o),
(300,244.667,o),
(300,194,c),
(316,194,l),
(316,231.333,o),
(309.333,301.333,o),
(288,384,cs),
(206,700,l),
(-10,700,l),
(189,0,l)
);
}
);
width = 990;
},
{
anchors = (
{
name = bottom;
pos = (425,0);
},
{
name = top;
pos = (425,700);
}
);
layerId = "CCD999A9-9CE8-4787-8FD2-D5D19514269E";
shapes = (
{
closed = 1;
nodes = (
(242,0,l),
(434,499,l),
(415,499,l),
(607,0,l),
(633,0,l),
(829,700,l),
(805,700,l),
(663,193,ls),
(633,84,o),
(644,123,o),
(612,15,c),
(625,15,l),
(569.338,154.037,o),
(559.671,178.829,o),
(551,202,cs),
(432,520,l),
(417,520,l),
(297,202,ls),
(279.453,155.5,o),
(263.641,112.783,o),
(224,15,c),
(236,15,l),
(212,95,o),
(208,113,o),
(186,193,cs),
(44,700,l),
(20,700,l),
(216,0,l)
);
}
);
userData = {
com.schriftgestaltung.Glyphs.glyph.leftMetricsKey = V;
com.schriftgestaltung.Glyphs.glyph.rightMetricsKey = V;
};
width = 849;
},
{
anchors = (
{
name = bottom;
pos = (638,0);
},
{
name = top;
pos = (638,700);
}
);
layerId = "649E0662-786D-44F6-8E8D-A6782F19FFAA";
shapes = (
{
closed = 1;
nodes = (
(433,0,l),
(637,467,l),
(618,471,l),
(821,0,l),
(896,0,l),
(1184,700,l),
(1068,700,l),
(904,296,ls),
(879,236,o),
(856,157,o),
(840,102,c),
(880,109,l),
(867,160,o),
(834,234,o),
(809,291,cs),
(684,579,l),
(580,579,l),
(451,289,ls),
(424,229,o),
(394,153,o),
(375,100,c),
(419,99,l),
(403,152,o),
(380,229,o),
(359,289,cs),
(211,700,l),
(92,700,l),
(350,0,l)
);
}
);
width = 1276;
},
{
anchors = (
{
name = bottom;
pos = (567,0);
},
{
name = top;
pos = (567,700);
}
);
layerId = "9FF8E21A-ED06-4F66-AEDE-2CE647DC4B08";
shapes = (
{
closed = 1;
nodes = (
(357,0,l),
(567,517,l),
(554,517,l),
(757,0,l),
(781,0,l),
(1043,700,l),
(1019,700,l),
(840,224,ls),
(817,161,o),
(800,115,o),
(762,10,c),
(776,10,l),
(768,29,o),
(755,62,o),
(738,108,cs),
(568,541,l),
(553,541,l),
(427,228,ls),
(400,165,o),
(385,126,o),
(338,10,c),
(343,10,l),
(314,100,o),
(302,130,o),
(273,220,cs),
(114,700,l),
(90,700,l),
(324,0,l)
);
}
);
userData = {
com.schriftgestaltung.Glyphs.glyph.leftMetricsKey = V;
com.schriftgestaltung.Glyphs.glyph.rightMetricsKey = V;
};
width = 1133;
},
{
anchors = (
{
name = bottom;
pos = (635,0);
},
{
name = top;
pos = (635,700);
}
);
layerId = "ED109265-B005-47B0-97BD-F1815082B32B";
shapes = (
{
closed = 1;
nodes = (
(482,0,l),
(643,410,l),
(606,410,l),
(776,0,l),
(946,0,l),
(1212,700,l),
(1003,700,l),
(890,415,ls),
(871,360,o),
(843,235,o),
(842,184,c),
(871,184,l),
(870,235,o),
(840,324,o),
(807,412,cs),
(717,631,l),
(545,631,l),
(455,410,ls),
(420,325,o),
(397,235,o),
(396,184,c),
(427,184,l),
(426,235,o),
(389,361,o),
(373,411,cs),
(278,700,l),
(58,700,l),
(292,0,l)
);
}
);
width = 1270;
},
{
anchors = (
{
name = bottom;
pos = (459,0);
},
{
name = top;
pos = (459,700);
}
);
layerId = "2B3ECD2C-4B3A-40C3-8F2B-A5E41B85E4DD";
shapes = (
{
closed = 1;
nodes = (
(281,0,l),
(467,460,l),
(441,461,l),
(634,0,l),
(689,0,l),
(892,700,l),
(838,700,l),
(701,222,ls),
(674,129,o),
(672,115.333,o),
(656,38,c),
(662,38,l),
(643,114,o),
(623,153,o),
(597,216,cs),
(480,502,l),
(429,502,l),
(319,222,ls),
(286,139,o),
(276.667,115.333,o),
(254,38,c),
(260,38,l),
(245.333,115.333,o),
(239,132,o),
(216,216,cs),
(81,700,l),
(25,700,l),
(226,0,l)
);
}
);
userData = {
com.schriftgestaltung.Glyphs.glyph.leftMetricsKey = V;
com.schriftgestaltung.Glyphs.glyph.rightMetricsKey = V;
};
width = 917;
}
);
metricLeft = V;
metricRight = V;
unicode = 87;
},
{
color = 6;
glyphname = X;
kernLeft = X;
kernRight = X;
layers = (
{
anchors = (
{
name = bottom;
pos = (343,0);
},
{
name = top;
pos = (343,700);
}
);
layerId = "5A878C7E-547A-4951-B48F-676DBBC9B762";
shapes = (
{
closed = 1;
nodes = (
(661,0,l),
(378,390,l),
(166,700,l),
(29,700,l),
(307,314,l),
(524,0,l)
);
},
{
closed = 1;
nodes = (
(151,0,l),
(358,302,l),
(291,381,l),
(24,0,l)
);
},
{
closed = 1;
nodes = (
(651,700,l),
(524,700,l),
(328,401,l),
(394,325,l)
);
}
);
width = 685;
},
{
anchors = (
{
name = bottom;
pos = (360,0);
},
{
name = top;
pos = (360,700);
}
);
layerId = "554F9022-F5DF-470A-8852-5D1AD00D5051";
shapes = (
{
closed = 1;
nodes = (
(739,0,l),
(456,390,l),
(244,700,l),
(-15,700,l),
(263,314,l),
(480,0,l)
);
},
{
closed = 1;
nodes = (
(229,0,l),
(436,302,l),
(247,381,l),
(-20,0,l)
);
},
{
closed = 1;
nodes = (
(729,700,l),
(480,700,l),
(284,401,l),
(472,325,l)
);
}
);
width = 719;
},
{
anchors = (
{
name = bottom;
pos = (292,0);
},
{
name = top;
pos = (292,700);
}
);
layerId = "CCD999A9-9CE8-4787-8FD2-D5D19514269E";
shapes = (
{
closed = 1;
nodes = (
(562,0,l),
(295,366,l),
(56,700,l),
(27,700,l),
(281,349,l),
(533,0,l)
);
},
{
closed = 1;
nodes = (
(50,0,l),
(297,350,l),
(281,363,l),
(22,0,l)
);
},
{
closed = 1;
nodes = (
(552,700,l),
(524,700,l),
(282,365,l),
(299,352,l)
);
}
);
width = 584;
},
{
anchors = (
{
name = bottom;
pos = (481,0);
},
{
name = top;
pos = (481,700);
}
);
layerId = "649E0662-786D-44F6-8E8D-A6782F19FFAA";
shapes = (
{
closed = 1;
nodes = (
(870,0,l),
(511,397,l),
(244,700,l),
(97,700,l),
(444,316,l),
(722,0,l)
);
},
{
closed = 1;
nodes = (
(233,0,l),
(486,302,l),
(425,381,l),
(92,0,l)
);
},
{
closed = 1;
nodes = (
(859,700,l),
(717,700,l),
(476,401,l),
(535,325,l)
);
}
);
width = 962;
},
{
anchors = (
{
name = bottom;
pos = (431,0);
},
{
name = top;
pos = (431,700);
}
);
layerId = "9FF8E21A-ED06-4F66-AEDE-2CE647DC4B08";
shapes = (
{
closed = 1;
nodes = (
(771,0,l),
(431,369,l),
(127,700,l),
(98,700,l),
(418,353,l),
(741,0,l)
);
},
{
closed = 1;
nodes = (
(119,0,l),
(432,350,l),
(416,366,l),
(90,0,l)
);
},
{
closed = 1;
nodes = (
(758,700,l),
(728,700,l),
(417,368,l),
(433,352,l)
);
}
);
width = 861;
},
{
anchors = (
{
name = bottom;
pos = (498,0);
},
{
name = top;
pos = (498,700);
}
);
layerId = "ED109265-B005-47B0-97BD-F1815082B32B";
shapes = (
{
closed = 1;
nodes = (
(948,0,l),
(589,397,l),
(322,700,l),
(53,700,l),
(400,316,l),
(678,0,l)
);
},
{
closed = 1;
nodes = (
(311,0,l),
(564,302,l),
(381,381,l),
(48,0,l)
);
},
{
closed = 1;
nodes = (
(937,700,l),
(673,700,l),
(432,401,l),
(613,325,l)
);
}
);
width = 996;
},
{
anchors = (
{
name = bottom;
pos = (311,0);
},
{
name = top;
pos = (311,700);
}
);
layerId = "2B3ECD2C-4B3A-40C3-8F2B-A5E41B85E4DD";
shapes = (
{
closed = 1;
nodes = (
(597,0,l),
(314,390,l),
(92,700,l),
(30,700,l),
(289,342,l),
(535,0,l)
);
},
{
closed = 1;
nodes = (
(82,0,l),
(319,338,l),
(287,374,l),
(25,0,l)
);
},
{
closed = 1;
nodes = (
(587,700,l),
(530,700,l),
(301,374,l),
(329,338,l)
);
}
);
width = 622;
}
);
unicode = 88;
},
{
color = 6;
glyphname = Y;
kernLeft = Y;
kernRight = Y;
layers = (
{
anchors = (
{
name = bottom;
pos = (330,0);
},
{
name = top;
pos = (330,700);
},
{
name = topleft;
pos = (20,700);
}
);
layerId = "5A878C7E-547A-4951-B48F-676DBBC9B762";
shapes = (
{
closed = 1;
nodes = (
(394,0,l),
(394,357,l),
(379,289,l),
(650,700,l),
(526,700,l),
(331,393,l),
(356,390,l),
(140,700,l),
(10,700,l),
(293,300,l),
(286,349,l),
(286,0,l)
);
}
);
width = 660;
},
{
anchors = (
{
name = bottom;
pos = (355,0);
},
{
name = top;
pos = (355,700);
},
{
name = topleft;
pos = (20,700);
}
);
layerId = "554F9022-F5DF-470A-8852-5D1AD00D5051";
shapes = (
{
closed = 1;
nodes = (
(474,0,l),
(474,357,l),
(459,289,l),
(730,700,l),
(496,700,l),
(301,393,l),
(436,390,l),
(220,700,l),
(-20,700,l),
(263,300,l),
(256,349,l),
(256,0,l)
);
}
);
width = 710;
},
{
anchors = (
{
name = bottom;
pos = (296,0);
},
{
name = top;
pos = (296,700);
},
{
name = topleft;
pos = (20,700);
}
);
layerId = "CCD999A9-9CE8-4787-8FD2-D5D19514269E";
shapes = (
{
closed = 1;
nodes = (
(311,0,l),
(311,339,l),
(302,300,l),
(572,700,l),
(546,700,l),
(294,327,l),
(305,327,l),
(46,700,l),
(20,700,l),
(297,300,l),
(289,339,l),
(289,0,l)
);
}
);
width = 592;
},
{
anchors = (
{
name = bottom;
pos = (480,0);
},
{
name = top;
pos = (480,700);
},
{
name = topleft;
pos = (90,700);
}
);
layerId = "649E0662-786D-44F6-8E8D-A6782F19FFAA";
shapes = (
{
closed = 1;
nodes = (
(544,0,l),
(544,321,l),
(539,263,l),
(880,700,l),
(746,700,l),
(480,347,l),
(503,347,l),
(230,700,l),
(80,700,l),
(456,236,l),
(436,313,l),
(436,0,l)
);
}
);
width = 960;
},
{
anchors = (
{
name = bottom;
pos = (446,0);
},
{
name = top;
pos = (446,700);
},
{
name = topleft;
pos = (90,700);
}
);
layerId = "9FF8E21A-ED06-4F66-AEDE-2CE647DC4B08";
shapes = (
{
closed = 1;
nodes = (
(461,0,l),
(461,276,l),
(452,255,l),
(802,700,l),
(774,700,l),
(446,281,l),
(453,281,l),
(118,700,l),
(90,700,l),
(447,255,l),
(439,276,l),
(439,0,l)
);
}
);
width = 892;
},
{
anchors = (
{
name = bottom;
pos = (505,0);
},
{
name = top;
pos = (505,700);
},
{
name = topleft;
pos = (90,700);
}
);
layerId = "ED109265-B005-47B0-97BD-F1815082B32B";
shapes = (
{
closed = 1;
nodes = (
(624,0,l),
(624,321,l),
(619,263,l),
(960,700,l),
(716,700,l),
(450,347,l),
(583,347,l),
(310,700,l),
(50,700,l),
(426,236,l),
(406,313,l),
(406,0,l)
);
}
);
width = 1010;
},
{
anchors = (
{
name = bottom;
pos = (316,0);
},
{
name = top;
pos = (316,700);
},
{
name = topleft;
pos = (20,700);
}
);
layerId = "2B3ECD2C-4B3A-40C3-8F2B-A5E41B85E4DD";
shapes = (
{
closed = 1;
nodes = (
(350,0,l),
(350,357,l),
(335,289,l),
(606,700,l),
(548,700,l),
(318,348,l),
(335,348,l),
(87,700,l),
(25,700,l),
(308,300,l),
(301,349,l),
(301,0,l)
);
}
);
width = 631;
}
);
unicode = 89;
},
{
color = 6;
glyphname = Z;
kernLeft = Z;
kernRight = Z;
layers = (
{
anchors = (
{
name = bottom;
pos = (330,0);
},
{
name = center;
pos = (330,350);
},
{
name = top;
pos = (330,700);
}
);
layerId = "5A878C7E-547A-4951-B48F-676DBBC9B762";
shapes = (
{
closed = 1;
nodes = (
(604,0,l),
(604,104,l),
(180,104,l),
(196,87,l),
(593,622,l),
(593,700,l),
(86,700,l),
(86,596,l),
(474,596,l),
(459,613,l),
(60,79,l),
(60,0,l)
);
}
);
width = 659;
},
{
anchors = (
{
name = bottom;
pos = (351,0);
},
{
name = center;
pos = (351,350);
},
{
name = top;
pos = (351,700);
}
);
layerId = "554F9022-F5DF-470A-8852-5D1AD00D5051";
shapes = (
{
closed = 1;
nodes = (
(641,0,l),
(641,182,l),
(180,182,l),
(273,87,l),
(630,562,l),
(630,700,l),
(86,700,l),
(86,506,l),
(511,506,l),
(419,613,l),
(60,139,l),
(60,0,l)
);
}
);
width = 701;
},
{
anchors = (
{
name = bottom;
pos = (317,0);
},
{
name = center;
pos = (317,350);
},
{
name = top;
pos = (317,700);
}
);
layerId = "CCD999A9-9CE8-4787-8FD2-D5D19514269E";
shapes = (
{
closed = 1;
nodes = (
(574,0,l),
(574,22,l),
(75,22,l),
(78,10,l),
(563,677.499,l),
(563,700,l),
(86,700,l),
(86,678,l),
(557,678,l),
(545,692,l),
(60,23.501,l),
(60,0,l)
);
}
);
width = 634;
},
{
anchors = (
{
name = bottom;
pos = (440,0);
},
{
name = center;
pos = (440,350);
},
{
name = top;
pos = (440,700);
}
);
layerId = "649E0662-786D-44F6-8E8D-A6782F19FFAA";
shapes = (
{
closed = 1;
nodes = (
(784,0,l),
(784,106,l),
(220,106,l),
(258,87,l),
(773,622,l),
(773,700,l),
(126,700,l),
(126,594,l),
(654,594,l),
(615,613,l),
(100,79,l),
(100,0,l)
);
}
);
width = 884;
},
{
anchors = (
{
name = bottom;
pos = (427,0);
},
{
name = center;
pos = (427,350);
},
{
name = top;
pos = (427,700);
}
);
layerId = "9FF8E21A-ED06-4F66-AEDE-2CE647DC4B08";
shapes = (
{
closed = 1;
nodes = (
(754,0,l),
(754,22,l),
(121,22,l),
(117,10,l),
(743,677,l),
(743,700,l),
(126,700,l),
(126,678,l),
(723,678,l),
(727,692,l),
(100,24,l),
(100,0,l)
);
}
);
width = 859;
},
{
anchors = (
{
name = bottom;
pos = (461,0);
},
{
name = center;
pos = (461,350);
},
{
name = top;
pos = (461,700);
}
);
layerId = "ED109265-B005-47B0-97BD-F1815082B32B";
shapes = (
{
closed = 1;
nodes = (
(821,0,l),
(821,184,l),
(220,184,l),
(335,87,l),
(810,562,l),
(810,700,l),
(126,700,l),
(126,504,l),
(691,504,l),
(575,613,l),
(100,139,l),
(100,0,l)
);
}
);
width = 926;
},
{
anchors = (
{
name = bottom;
pos = (319,0);
},
{
name = center;
pos = (319,350);
},
{
name = top;
pos = (319,700);
}
);
layerId = "2B3ECD2C-4B3A-40C3-8F2B-A5E41B85E4DD";
shapes = (
{
closed = 1;
nodes = (
(584,0,l),
(584,50,l),
(96,50,l),
(110,26,l),
(573,659,l),
(573,700,l),
(86,700,l),
(86,650,l),
(540,650,l),
(525,674,l),
(60,42,l),
(60,0,l)
);
}
);
width = 637;
}
);
unicode = 90;
},
{
color = 6;
glyphname = I.ss01;
kernLeft = H;
kernRight = H;
layers = (
{
anchors = (
{
name = bottom;
pos = (154,0);
},
{
name = ogonek;
pos = (208,0);
},
{
name = top;
pos = (154,700);
},
{
name = topleft;
pos = (20,700);
}
);
layerId = "5A878C7E-547A-4951-B48F-676DBBC9B762";
shapes = (
{
closed = 1;
nodes = (
(208,0,l),
(208,700,l),
(190,700,o),
(172,700,o),
(154,700,cs),
(100,700,l),
(100,0,l)
);
}
);
width = 308;
},
{
anchors = (
{
name = bottom;
pos = (188,0);
},
{
name = ogonek;
pos = (267,0);
},
{
name = top;
pos = (188,700);
},
{
name = topleft;
pos = (20,700);
}
);
layerId = "554F9022-F5DF-470A-8852-5D1AD00D5051";
shapes = (
{
closed = 1;
nodes = (
(296,0,l),
(296,700,l),
(260,700,o),
(224,700,o),
(188,700,cs),
(80,700,l),
(80,0,l)
);
}
);
width = 376;
},
{
anchors = (
{
name = bottom;
pos = (154,0);
},
{
name = ogonek;
pos = (165,0);
},
{
name = top;
pos = (154,700);
},
{
name = topleft;
pos = (20,700);
}
);
layerId = "CCD999A9-9CE8-4787-8FD2-D5D19514269E";
shapes = (
{
closed = 1;
nodes = (
(164.501,0,l),
(164.501,700,l),
(160.5,700,o),
(157,700,o),
(154,700,cs),
(143.499,700,l),
(143.499,0,l)
);
}
);
width = 308;
},
{
anchors = (
{
name = bottom;
pos = (246,0);
},
{
name = ogonek;
pos = (300,0);
},
{
name = top;
pos = (246,700);
},
{
name = topleft;
pos = (112,700);
}
);
layerId = "649E0662-786D-44F6-8E8D-A6782F19FFAA";
shapes = (
{
closed = 1;
nodes = (
(300,0,l),
(300,700,l),
(299,700,o),
(281,700,o),
(246,700,cs),
(192,700,l),
(192,0,l)
);
}
);
width = 492;
},
{
anchors = (
{
name = bottom;
pos = (246,0);
},
{
name = ogonek;
pos = (257,0);
},
{
name = top;
pos = (246,700);
},
{
name = topleft;
pos = (104,700);
}
);
layerId = "9FF8E21A-ED06-4F66-AEDE-2CE647DC4B08";
shapes = (
{
closed = 1;
nodes = (
(257,0,l),
(257,700,l),
(270,700,o),
(267,700,o),
(246,700,cs),
(236,700,l),
(236,0,l)
);
}
);
width = 492;
},
{
anchors = (
{
name = bottom;
pos = (280,0);
},
{
name = ogonek;
pos = (359,0);
},
{
name = top;
pos = (280,700);
},
{
name = topleft;
pos = (112,700);
}
);
layerId = "ED109265-B005-47B0-97BD-F1815082B32B";
shapes = (
{
closed = 1;
nodes = (
(388,0,l),
(388,700,l),
(369,700,o),
(333,700,o),
(280,700,cs),
(172,700,l),
(172,0,l)
);
}
);
width = 560;
},
{
anchors = (
{
name = bottom;
pos = (154,0);
},
{
name = ogonek;
pos = (178,0);
},
{
name = top;
pos = (154,700);
},
{
name = topleft;
pos = (20,700);
}
);
layerId = "2B3ECD2C-4B3A-40C3-8F2B-A5E41B85E4DD";
shapes = (
{
closed = 1;
nodes = (
(179,0,l),
(179,700,l),
(170.333,700,o),
(162,700,o),
(154,700,cs),
(129,700,l),
(129,0,l)
);
}
);
width = 308;
}
);
},
{
color = 6;
glyphname = J.ss01;
kernLeft = J;
kernRight = J;
layers = (
{
anchors = (
{
name = bottom;
pos = (291,0);
},
{
name = top;
pos = (431,700);
}
);
layerId = "5A878C7E-547A-4951-B48F-676DBBC9B762";
shapes = (
{
closed = 1;
nodes = (
(390.667,-10,o),
(484,86.333,o),
(484,213,cs),
(484,700,l),
(376,700,l),
(376,223,ls),
(376,148.333,o),
(328,95,o),
(256,95,cs),
(206.667,95,o),
(175.333,109.333,o),
(118,188,c),
(50,117,l),
(88.667,41,o),
(165.333,-10,o),
(256,-10,cs)
);
}
);
width = 582;
},
{
anchors = (
{
name = bottom;
pos = (287,0);
},
{
name = top;
pos = (391,700);
}
);
layerId = "554F9022-F5DF-470A-8852-5D1AD00D5051";
shapes = (
{
closed = 1;
nodes = (
(396.333,-10,o),
(494,70.333,o),
(494,213,cs),
(494,700,l),
(286,700,l),
(286,236,ls),
(286,196,o),
(259,174,o),
(227,174,cs),
(192.333,174,o),
(166.333,195,o),
(145,227,c),
(20,101,l),
(54.667,37,o),
(131,-10,o),
(251,-10,cs)
);
}
);
width = 574;
},
{
anchors = (
{
name = bottom;
pos = (257,0);
},
{
name = top;
pos = (392,700);
}
);
layerId = "CCD999A9-9CE8-4787-8FD2-D5D19514269E";
shapes = (
{
closed = 1;
nodes = (
(322.333,-10,o),
(403,58.333,o),
(403,213,cs),
(403,700,l),
(381,700,l),
(381,213,ls),
(381,71.667,o),
(311,12,o),
(211,12,cs),
(131,12,o),
(73.333,51,o),
(36,135,c),
(20,120,l),
(52,40,o),
(117,-10,o),
(209,-10,cs)
);
}
);
userData = {
com.schriftgestaltung.Glyphs.glyph.rightMetricsKey = H;
};
width = 514;
},
{
anchors = (
{
name = bottom;
pos = (436,0);
},
{
name = top;
pos = (646,700);
}
);
layerId = "649E0662-786D-44F6-8E8D-A6782F19FFAA";
shapes = (
{
closed = 1;
nodes = (
(592,-10,o),
(699,129,o),
(699,273,cs),
(699,700,l),
(591,700,l),
(591,283,ls),
(591,176,o),
(518,90,o),
(401,90,cs),
(296,90,o),
(246,156,o),
(197,223,c),
(125,147,l),
(146,110,o),
(230,-10,o),
(401,-10,cs)
);
}
);
width = 881;
},
{
anchors = (
{
name = bottom;
pos = (407,0);
},
{
name = top;
pos = (607,700);
}
);
layerId = "9FF8E21A-ED06-4F66-AEDE-2CE647DC4B08";
shapes = (
{
closed = 1;
nodes = (
(522,-10,o),
(618,94,o),
(618,273,cs),
(618,700,l),
(596,700,l),
(596,273,ls),
(596,104,o),
(499,13,o),
(356,13,cs),
(251,13,o),
(161,80,o),
(124,167,c),
(105,150,l),
(140,67,o),
(237,-10,o),
(354,-10,cs)
);
}
);
userData = {
com.schriftgestaltung.Glyphs.glyph.rightMetricsKey = H;
};
width = 813;
},
{
anchors = (
{
name = bottom;
pos = (432,0);
},
{
name = top;
pos = (606,700);
}
);
layerId = "ED109265-B005-47B0-97BD-F1815082B32B";
shapes = (
{
closed = 1;
nodes = (
(597,-10,o),
(709,113,o),
(709,273,cs),
(709,700,l),
(501,700,l),
(501,296,ls),
(501,224,o),
(449,169,o),
(372,169,cs),
(281,169,o),
(237,242,o),
(224,262,c),
(95,131,l),
(112,106,o),
(196,-10,o),
(396,-10,cs)
);
}
);
width = 873;
},
{
anchors = (
{
name = bottom;
pos = (295,0);
},
{
name = top;
pos = (455,700);
}
);
layerId = "2B3ECD2C-4B3A-40C3-8F2B-A5E41B85E4DD";
shapes = (
{
closed = 1;
nodes = (
(393,-10,o),
(481,83.667,o),
(481,213,cs),
(481,700,l),
(427,700,l),
(427,216,ls),
(427,113.333,o),
(362,40,o),
(270,40,cs),
(207.333,40,o),
(146.667,73.667,o),
(104,155,c),
(68,117,l),
(110.667,35.667,o),
(182.333,-10,o),
(269,-10,cs)
);
}
);
userData = {
com.schriftgestaltung.Glyphs.glyph.rightMetricsKey = H;
};
width = 589;
}
);
metricRight = H;
},
{
color = 6;
glyphname = a;
kernLeft = c;
kernRight = a;
layers = (
{
anchors = (
{
name = bottom;
pos = (317,0);
},
{
name = ogonek;
pos = (561,0);
},
{
name = top;
pos = (317,525);
}
);
layerId = "5A878C7E-547A-4951-B48F-676DBBC9B762";
shapes = (
{
closed = 1;
nodes = (
(375.333,-10,o),
(465,60,o),
(481,132,c),
(457,125,l),
(457,0,l),
(561,0,l),
(561,525,l),
(457,525,l),
(457,389,l),
(480,381,l),
(468,466.333,o),
(391,536,o),
(283,536,cs),
(145.667,536,o),
(38,422.667,o),
(38,264,cs),
(38,108,o),
(143.333,-10,o),
(274,-10,cs)
);
},
{
closed = 1;
nodes = (
(209,85,o),
(143,160,o),
(143,264,cs),
(143,366.667,o),
(209,441,o),
(301,441,cs),
(394.333,441,o),
(461,366.667,o),
(461,264,cs),
(461,160,o),
(394.333,85,o),
(301,85,cs)
);
}
);
width = 633;
},
{
anchors = (
{
name = bottom;
pos = (340,0);
},
{
name = ogonek;
pos = (554,0);
},
{
name = top;
pos = (340,535);
}
);
layerId = "554F9022-F5DF-470A-8852-5D1AD00D5051";
shapes = (
{
closed = 1;
nodes = (
(357,-9,o),
(422,49.667,o),
(450,127,c),
(405,131,l),
(405,0,l),
(609,0,l),
(609,535,l),
(410,535,l),
(410,417,l),
(451,416,l),
(420.333,488,o),
(360.333,546,o),
(263,546,cs),
(124.333,546,o),
(30,432,o),
(30,268,cs),
(30,106.667,o),
(127.667,-9,o),
(261,-9,cs)
);
},
{
closed = 1;
nodes = (
(261.667,156,o),
(229,196,o),
(229,268,cs),
(229,340,o),
(261.667,381,o),
(319,381,cs),
(377.667,381,o),
(410,340,o),
(410,268,cs),
(410,196,o),
(377.667,156,o),
(319,156,cs)
);
}
);
width = 679;
},
{
anchors = (
{
name = bottom;
pos = (301,0);
},
{
name = ogonek;
pos = (532,0);
},
{
name = top;
pos = (291,525);
}
);
background = {
shapes = (
{
closed = 1;
nodes = (
(501,519,o),
(493,509,o),
(493,498,c),
(493,348,l),
(509,322,l),
(509,444,o),
(413,536,o),
(293,536,c),
(156,536,o),
(52,422,o),
(52,265,c),
(52,108,o),
(154,-10,o),
(293,-10,c),
(415,-10,o),
(509,93,o),
(509,182,c),
(493,169,l),
(493,21,l),
(493,10,o),
(501,0,o),
(513,0,c),
(525,0,o),
(534,10,o),
(534,21,c),
(534,498,l),
(534,510,o),
(526,519,o),
(513,519,c)
);
},
{
closed = 1;
nodes = (
(178,29,o),
(94,130,o),
(94,265,c),
(94,401,o),
(180,496,o),
(295,496,c),
(412,496,o),
(497,394,o),
(497,265,c),
(497,130,o),
(412,29,o),
(295,29,c)
);
}
);
};
layerId = "CCD999A9-9CE8-4787-8FD2-D5D19514269E";
shapes = (
{
closed = 1;
nodes = (
(404.667,-10,o),
(495,67,o),
(519,175,c),
(510,172,l),
(510,0,l),
(532,0,l),
(532,525,l),
(512,525,l),
(510,353,l),
(516,350,l),
(497.333,456.667,o),
(402,530,o),
(290,530,cs),
(152.667,530,o),
(40,415.333,o),
(40,258,cs),
(40,102,o),
(147.333,-10,o),
(294,-10,cs)
);
},
{
closed = 1;
nodes = (
(156.667,12,o),
(63,116.667,o),
(63,258,cs),
(63,403.333,o),
(157.333,508,o),
(292,508,cs),
(417.333,508,o),
(511,404,o),
(511,260,cs),
(511,113.333,o),
(416.667,12,o),
(294,12,cs)
);
}
);
width = 602;
},
{
anchors = (
{
name = bottom;
pos = (469,0);
},
{
name = ogonek;
pos = (784,0);
},
{
name = top;
pos = (469,525);
}
);
layerId = "649E0662-786D-44F6-8E8D-A6782F19FFAA";
shapes = (
{
closed = 1;
nodes = (
(573,-10,o),
(701,76,o),
(701,137,c),
(681,145,l),
(681,0,l),
(784,0,l),
(784,525,l),
(681,525,l),
(681,389,l),
(711,391,l),
(711,454,o),
(593,536,o),
(438,536,cs),
(251,536,o),
(120,422,o),
(120,263,cs),
(120,104,o),
(241,-10,o),
(432,-10,cs)
);
},
{
closed = 1;
nodes = (
(320,85,o),
(225,162,o),
(225,263,cs),
(225,363,o),
(320,440,o),
(455,440,cs),
(591,440,o),
(685,363,o),
(685,263,cs),
(685,162,o),
(591,85,o),
(455,85,cs)
);
}
);
width = 984;
},
{
anchors = (
{
name = bottom;
pos = (454,0);
},
{
name = ogonek;
pos = (756,0);
},
{
name = top;
pos = (454,525);
}
);
layerId = "9FF8E21A-ED06-4F66-AEDE-2CE647DC4B08";
shapes = (
{
closed = 1;
nodes = (
(605,-10,o),
(735,85,o),
(748,210,c),
(734,192,l),
(734,0,l),
(756,0,l),
(756,525,l),
(736,525,l),
(734,320,l),
(744,321,l),
(740,418,o),
(617,536,o),
(445,536,cs),
(258,536,o),
(122,414,o),
(122,257,cs),
(122,97,o),
(241,-10,o),
(452,-10,cs)
);
},
{
closed = 1;
nodes = (
(256,12,o),
(144,113,o),
(144,257,cs),
(144,400,o),
(269,514,o),
(446,514,cs),
(614,514,o),
(735,400,o),
(735,259,cs),
(735,115,o),
(613,12,o),
(448,12,cs)
);
}
);
width = 953;
},
{
anchors = (
{
name = bottom;
pos = (492,0);
},
{
name = ogonek;
pos = (777,0);
},
{
name = top;
pos = (492,535);
}
);
layerId = "ED109265-B005-47B0-97BD-F1815082B32B";
shapes = (
{
closed = 1;
nodes = (
(555,-9,o),
(658,65,o),
(670,132,c),
(629,151,l),
(629,0,l),
(832,0,l),
(832,535,l),
(634,535,l),
(634,417,l),
(682,426,l),
(663,475,o),
(562,546,o),
(418,546,cs),
(230,546,o),
(112,431,o),
(112,267,cs),
(112,103,o),
(226,-9,o),
(419,-9,cs)
);
},
{
closed = 1;
nodes = (
(373,156,o),
(311,198,o),
(311,267,cs),
(311,336,o),
(373,380,o),
(473,380,cs),
(574,380,o),
(634,336,o),
(634,267,cs),
(634,198,o),
(574,156,o),
(473,156,cs)
);
}
);
width = 1030;
},
{
anchors = (
{
name = bottom;
pos = (304,0);
},
{
name = ogonek;
pos = (534,0);
},
{
name = top;
pos = (304,520);
}
);
layerId = "2B3ECD2C-4B3A-40C3-8F2B-A5E41B85E4DD";
shapes = (
{
closed = 1;
nodes = (
(386.667,-10,o),
(475.667,59.667,o),
(501,149,c),
(484,130,l),
(484,0,l),
(534,0,l),
(534,520,l),
(486,520,l),
(481,385,l),
(501,372,l),
(475.667,462.667,o),
(386.667,531,o),
(280,531,cs),
(142.667,531,o),
(32,417.333,o),
(32,260,cs),
(32,104,o),
(138.667,-10,o),
(280,-10,cs)
);
},
{
closed = 1;
nodes = (
(167,40,o),
(85,134.333,o),
(85,261,cs),
(85,389,o),
(168.333,481,o),
(287,481,cs),
(403,481,o),
(488,389,o),
(488,261,cs),
(488,131.667,o),
(401.667,40,o),
(287,40,cs)
);
}
);
width = 607;
}
);
unicode = 97;
},
{
color = 6;
glyphname = ae;
kernLeft = ae;
kernRight = ae;
layers = (
{
anchors = (
{
name = bottom;
pos = (450,0);
},
{
name = top;
pos = (450,525);
}
);
layerId = "5A878C7E-547A-4951-B48F-676DBBC9B762";
shapes = (
{
closed = 1;
nodes = (
(301.333,-10,o),
(383.333,37.667,o),
(430,107,c),
(386,174,l),
(358,119.333,o),
(292,78,o),
(220,78,cs),
(170.667,78,o),
(135,107,o),
(135,151,cs),
(135,205.667,o),
(179.667,237,o),
(261,237,cs),
(858,237,l),
(859,281,ls),
(859,427.667,o),
(757,534.667,o),
(621,536,cs),
(481,536,o),
(373,419.667,o),
(373,257,cs),
(373,98.333,o),
(482.667,-10,o),
(644,-10,cs),
(717.333,-10,o),
(801,22.333,o),
(849,69,c),
(799,144,l),
(747,98.667,o),
(706,84,o),
(654,84,cs),
(547.333,84,o),
(466,158.667,o),
(466,264,cs),
(466,380,o),
(521,441,o),
(621,441,cs),
(689,441,o),
(747.333,391.333,o),
(754,326,c),
(754,302,l),
(769,319,l),
(274,319,ls),
(119.333,320.333,o),
(38,261,o),
(38,149,cs),
(38,53,o),
(114.667,-10,o),
(216,-10,cs)
);
},
{
closed = 1;
nodes = (
(466,263,l),
(466,388,ls),
(466,482.667,o),
(388,536,o),
(264,536,cs),
(181.333,536,o),
(108.333,500.333,o),
(51,435,c),
(118,368,l),
(156.667,417.333,o),
(203.333,441,o),
(262,441,cs),
(320.667,441,o),
(373,405.333,o),
(373,356,cs),
(373,257,l)
);
}
);
width = 899;
},
{
anchors = (
{
name = bottom;
pos = (451,0);
},
{
name = top;
pos = (462,535);
}
);
layerId = "554F9022-F5DF-470A-8852-5D1AD00D5051";
shapes = (
{
closed = 1;
nodes = (
(298.333,-10,o),
(387.333,24.333,o),
(426,87,c),
(367,180,l),
(348.333,145.333,o),
(315.667,128,o),
(277,128,cs),
(250.333,128,o),
(232,146.333,o),
(232,169,cs),
(232,198.333,o),
(252,217,o),
(288,217,cs),
(876,217,l),
(877,268,ls),
(880,429,o),
(775.667,546,o),
(621,546,cs),
(463.667,546,o),
(350,429.333,o),
(350,268,cs),
(350,106.667,o),
(462.333,-10,o),
(649,-10,cs),
(721,-10,o),
(787.333,7.667,o),
(862,65,c),
(779,196,l),
(744.333,172,o),
(716,164,o),
(672,164,cs),
(574.667,164,o),
(525,212,o),
(525,284,cs),
(525,345.333,o),
(559.667,383,o),
(625,383,cs),
(669,383,o),
(696,357.667,o),
(696,319,cs),
(696,301,l),
(701,309,l),
(271,309,ls),
(112.333,309,o),
(30,254.333,o),
(30,149,cs),
(30,53,o),
(109,-10,o),
(213,-10,cs)
);
},
{
closed = 1;
nodes = (
(521,242,l),
(521,352,ls),
(521,488,o),
(437.667,546,o),
(307,546,cs),
(192.333,546,o),
(98.333,500,o),
(53,440,c),
(168,327,l),
(194.667,368.333,o),
(221,382,o),
(269,382,cs),
(323.667,382,o),
(345,368.333,o),
(345,315,cs),
(345,242,l)
);
}
);
width = 901;
},
{
anchors = (
{
name = bottom;
pos = (474,0);
},
{
name = top;
pos = (474,525);
}
);
layerId = "CCD999A9-9CE8-4787-8FD2-D5D19514269E";
shapes = (
{
closed = 1;
nodes = (
(330,-10,o),
(424,52.667,o),
(472,146,c),
(459,165,l),
(413.667,73,o),
(323,12,o),
(219,12,cs),
(133.667,12,o),
(62,67.667,o),
(62,149,cs),
(62,223.667,o),
(126.667,265,o),
(240,265,cs),
(910,265,l),
(912,291,l),
(912,437.667,o),
(819,529,o),
(687,529,cs),
(543,529,o),
(442,409.667,o),
(442,263,cs),
(442,104.333,o),
(547,-10,o),
(699,-10,cs),
(775,-10,o),
(836.667,19.667,o),
(886,65,c),
(874,83,l),
(827.333,39,o),
(768.333,12,o),
(699,12,cs),
(561.667,12,o),
(465.333,116.333,o),
(464,263,cs),
(465.333,405.667,o),
(554,507,o),
(690,507,cs),
(800.667,507,o),
(890,421.667,o),
(890,295,cs),
(890,272,l),
(900,287,l),
(246,287,ls),
(110,287,o),
(40,237,o),
(40,149,cs),
(40,53,o),
(116.667,-10,o),
(218,-10,cs)
);
},
{
closed = 1;
nodes = (
(464,276,l),
(464,364,ls),
(464,469.333,o),
(392,530,o),
(272,530,cs),
(188,530,o),
(117.667,494.667,o),
(63,428,c),
(79,412,l),
(127,473.333,o),
(195,508,o),
(271,508,cs),
(380.333,508,o),
(442,452.333,o),
(442,367,cs),
(442,276,l)
);
}
);
userData = {
com.schriftgestaltung.Glyphs.glyph.leftMetricsKey = a;
com.schriftgestaltung.Glyphs.glyph.rightMetricsKey = e;
};
width = 947;
},
{
anchors = (
{
name = bottom;
pos = (672,0);
},
{
name = top;
pos = (672,525);
}
);
layerId = "649E0662-786D-44F6-8E8D-A6782F19FFAA";
shapes = (
{
closed = 1;
nodes = (
(511,-10,o),
(605,71,o),
(646,116,c),
(606,185,l),
(578,146,o),
(488,78,o),
(372,78,cs),
(288,78,o),
(217,100,o),
(217,157,cs),
(217,229,o),
(332,237,o),
(413,237,cs),
(1220,237,l),
(1221,281,ls),
(1221,432,o),
(1084,535,o),
(913,536,cs),
(740,536,o),
(575,432,o),
(575,257,cs),
(575,102,o),
(717,-10,o),
(936,-10,cs),
(1044,-10,o),
(1167,27,o),
(1211,60,c),
(1161,140,l),
(1122,107,o),
(1054,80,o),
(946,80,cs),
(803,80,o),
(668,137,o),
(668,264,cs),
(668,407,o),
(785,446,o),
(913,446,cs),
(1012,446,o),
(1105,399,o),
(1116,326,c),
(1116,302,l),
(1131,319,l),
(426,319,ls),
(272,320,o),
(120,303,o),
(120,149,cs),
(120,40,o),
(221,-10,o),
(368,-10,cs)
);
},
{
closed = 1;
nodes = (
(668,263,l),
(668,388,ls),
(668,501,o),
(528,536,o),
(416,536,cs),
(300,536,o),
(215,496,o),
(143,445,c),
(200,374,l),
(263,423,o),
(341,442,o),
(414,442,cs),
(479,442,o),
(575,400,o),
(575,336,cs),
(575,257,l)
);
}
);
width = 1366;
},
{
anchors = (
{
name = bottom;
pos = (696,0);
},
{
name = top;
pos = (696,525);
}
);
layerId = "9FF8E21A-ED06-4F66-AEDE-2CE647DC4B08";
shapes = (
{
closed = 1;
nodes = (
(496,-10,o),
(626,54,o),
(682,145,c),
(670,162,l),
(613,75,o),
(486,12,o),
(368,12,cs),
(223,12,o),
(144,62,o),
(144,150,cs),
(144,257,o),
(276,265,o),
(383,265,cs),
(1272,265,l),
(1274,291,l),
(1274,443,o),
(1148,530,o),
(979,530,cs),
(799,530,o),
(644,438,o),
(644,263,cs),
(644,106,o),
(779,-10,o),
(992,-10,cs),
(1095,-10,o),
(1158,8,o),
(1246,63,c),
(1241,86,l),
(1166,36,o),
(1088,14,o),
(991,14,cs),
(802,14,o),
(667,118,o),
(666,263,cs),
(667,410,o),
(793,508,o),
(982,508,cs),
(1126,508,o),
(1252,428,o),
(1252,295,cs),
(1252,272,l),
(1262,287,l),
(389,287,ls),
(257,287,o),
(122,272,o),
(122,149,cs),
(122,52,o),
(204,-10,o),
(367,-10,cs)
);
},
{
closed = 1;
nodes = (
(666,276,l),
(666,348,ls),
(666,483,o),
(555,530,o),
(424,530,cs),
(328,530,o),
(242,501,o),
(155,438,c),
(169,421,l),
(250,478,o),
(339,509,o),
(423,509,cs),
(560,509,o),
(644,459,o),
(644,347,cs),
(644,276,l)
);
}
);
userData = {
com.schriftgestaltung.Glyphs.glyph.leftMetricsKey = a;
com.schriftgestaltung.Glyphs.glyph.rightMetricsKey = e;
};
width = 1414;
},
{
anchors = (
{
name = bottom;
pos = (673,0);
},
{
name = top;
pos = (684,535);
}
);
layerId = "ED109265-B005-47B0-97BD-F1815082B32B";
shapes = (
{
closed = 1;
nodes = (
(508,-10,o),
(614,58,o),
(647,96,c),
(587,199,l),
(568,184,o),
(512,151,o),
(429,151,cs),
(368,151,o),
(314,159,o),
(314,187,cs),
(314,222,o),
(404,223,o),
(440,223,cs),
(1238,223,l),
(1239,268,ls),
(1243,433,o),
(1103,546,o),
(913,546,cs),
(723,546,o),
(552,442,o),
(552,268,cs),
(552,110,o),
(697,-10,o),
(941,-10,cs),
(1048,-10,o),
(1146,19,o),
(1217,63,c),
(1131,184,l),
(1102,172,o),
(1048,151,o),
(964,151,cs),
(830,151,o),
(727,190,o),
(727,284,cs),
(727,372,o),
(824,393,o),
(917,393,cs),
(992,393,o),
(1054,365,o),
(1058,319,c),
(1058,301,l),
(1063,336,l),
(423,336,ls),
(265,336,o),
(112,296,o),
(112,149,cs),
(112,40,o),
(215,-10,o),
(365,-10,cs)
);
},
{
closed = 1;
nodes = (
(723,242,l),
(723,352,ls),
(723,506,o),
(578,546,o),
(459,546,cs),
(311,546,o),
(205,496,o),
(145,450,c),
(239,344,l),
(290,385,o),
(359,393,o),
(421,393,cs),
(482,393,o),
(547,363,o),
(547,295,cs),
(547,242,l)
);
}
);
width = 1368;
},
{
anchors = (
{
name = bottom;
pos = (441,0);
},
{
name = top;
pos = (441,520);
}
);
layerId = "2B3ECD2C-4B3A-40C3-8F2B-A5E41B85E4DD";
shapes = (
{
closed = 1;
nodes = (
(304.667,-10,o),
(399.333,42.667,o),
(446,124,c),
(414,161,l),
(376.667,90.333,o),
(300.667,40,o),
(214,40,cs),
(139.333,40,o),
(85,84.333,o),
(85,151,cs),
(85,217.667,o),
(145.667,257,o),
(255,257,cs),
(853,257,l),
(854,283,ls),
(854,429.667,o),
(773.667,531,o),
(635,531,cs),
(489.667,531,o),
(394,431.667,o),
(394,261,cs),
(394,99.667,o),
(499,-10,o),
(647,-10,cs),
(731,-10,o),
(797,24.333,o),
(841,67,c),
(815,104,l),
(751,52,o),
(704,40,o),
(656,40,cs),
(521.333,40,o),
(447,128,o),
(447,264,cs),
(447,405.333,o),
(526,481,o),
(634,481,cs),
(750,481,o),
(805.333,387,o),
(804,307,cs),
(804,284,l),
(826,304,l),
(268,304,ls),
(112,304,o),
(32,251.667,o),
(32,149,cs),
(32,53,o),
(108.667,-10,o),
(210,-10,cs)
);
},
{
closed = 1;
nodes = (
(438,289,l),
(438,374,ls),
(438,474,o),
(364,531,o),
(248,531,cs),
(165.333,531,o),
(96.667,498,o),
(34,430,c),
(70,395,l),
(119.333,451,o),
(174,481,o),
(246,481,cs),
(348.667,481,o),
(394,433.333,o),
(394,364,cs),
(394,289,l)
);
}
);
userData = {
com.schriftgestaltung.Glyphs.glyph.leftMetricsKey = a;
com.schriftgestaltung.Glyphs.glyph.rightMetricsKey = e;
};
width = 882;
}
);
metricLeft = a;
metricRight = e;
unicode = 230;
},
{
color = 6;
glyphname = b;
kernLeft = b;
kernRight = b;
layers = (
{
anchors = (
{
name = bottom;
pos = (315,0);
},
{
name = top;
pos = (315,740);
}
);
layerId = "5A878C7E-547A-4951-B48F-676DBBC9B762";
shapes = (
{
closed = 1;
nodes = (
(486.667,-10,o),
(590,106.667,o),
(590,264,cs),
(590,422.667,o),
(486.333,536,o),
(345,536,cs),
(259.667,536,o),
(171,474,o),
(159,414,c),
(175,405,l),
(175,740,l),
(72,740,l),
(72,3,l),
(175,3,l),
(175,131,l),
(149,117,l),
(163.667,55.667,o),
(256,-10,o),
(348,-10,cs)
);
},
{
closed = 1;
nodes = (
(237.667,84,o),
(170,160,o),
(170,264,cs),
(170,366.667,o),
(237.667,442,o),
(331,442,cs),
(424.333,442,o),
(491,366.667,o),
(491,264,cs),
(491,160,o),
(423,84,o),
(331,84,cs)
);
}
);
width = 630;
},
{
anchors = (
{
name = bottom;
pos = (340,0);
},
{
name = top;
pos = (340,740);
}
);
layerId = "554F9022-F5DF-470A-8852-5D1AD00D5051";
shapes = (
{
closed = 1;
nodes = (
(553,-11,o),
(649,103,o),
(649,267,cs),
(649,428.333,o),
(551.517,546,o),
(416,546,cs),
(325.333,546,o),
(246.333,491.333,o),
(229,418,c),
(274,404,l),
(274,740,l),
(70,740,l),
(70,0,l),
(253,0,l),
(269,118,l),
(228,109,l),
(241.333,39.667,o),
(322.333,-11,o),
(421,-11,cs)
);
},
{
closed = 1;
nodes = (
(301.333,154,o),
(269,195,o),
(269,267,cs),
(269,339,o),
(301.333,380,o),
(360,380,cs),
(417.333,380,o),
(450,339,o),
(450,267,cs),
(450,195,o),
(417.333,154,o),
(360,154,cs)
);
}
);
width = 679;
},
{
anchors = (
{
name = bottom;
pos = (301,0);
},
{
name = top;
pos = (301,740);
}
);
layerId = "CCD999A9-9CE8-4787-8FD2-D5D19514269E";
shapes = (
{
closed = 1;
nodes = (
(449.333,-10,o),
(562,104.667,o),
(562,262,cs),
(562,418,o),
(454.667,530,o),
(308,530,cs),
(200,530,o),
(109.667,453,o),
(83,345,c),
(92,348,l),
(92,740,l),
(70,740,l),
(70,0,l),
(90,0,l),
(92,167,l),
(86,170,l),
(104.667,67.333,o),
(205.333,-10,o),
(312,-10,cs)
);
},
{
closed = 1;
nodes = (
(185.667,12,o),
(92,116,o),
(92,260,cs),
(92,406.667,o),
(186.333,508,o),
(309,508,cs),
(446.333,508,o),
(540,403.333,o),
(540,262,cs),
(540,116.667,o),
(445.667,12,o),
(311,12,cs)
);
}
);
userData = {
com.schriftgestaltung.Glyphs.glyph.leftMetricsKey = n;
com.schriftgestaltung.Glyphs.glyph.rightMetricsKey = o;
};
width = 602;
},
{
anchors = (
{
name = bottom;
pos = (528,0);
},
{
name = top;
pos = (528,740);
}
);
layerId = "649E0662-786D-44F6-8E8D-A6782F19FFAA";
shapes = (
{
closed = 1;
nodes = (
(733,-10,o),
(868,105,o),
(868,264,cs),
(868,423,o),
(728,536,o),
(553,536,cs),
(414,536,o),
(302,456,o),
(287,404,c),
(323,405,l),
(323,740,l),
(220,740,l),
(220,3,l),
(323,3,l),
(323,131,l),
(277,127,l),
(293,75,o),
(406,-10,o),
(546,-10,cs)
);
},
{
closed = 1;
nodes = (
(404,86,o),
(308,164,o),
(308,264,cs),
(308,365,o),
(404,441,o),
(539,441,cs),
(672,441,o),
(768,365,o),
(768,264,cs),
(768,164,o),
(672,86,o),
(539,86,cs)
);
}
);
width = 998;
},
{
anchors = (
{
name = bottom;
pos = (511,0);
},
{
name = top;
pos = (511,740);
}
);
layerId = "9FF8E21A-ED06-4F66-AEDE-2CE647DC4B08";
shapes = (
{
closed = 1;
nodes = (
(702,-10,o),
(833,107,o),
(833,263,cs),
(833,420,o),
(708,536,o),
(531,536,cs),
(390,536,o),
(288,477,o),
(228,342,c),
(240,342,l),
(240,740,l),
(218,740,l),
(218,0,l),
(238,0,l),
(240,183,l),
(228,184,l),
(281,47,o),
(390,-10,o),
(531,-10,cs)
);
},
{
closed = 1;
nodes = (
(359,12,o),
(243,113,o),
(240,265,cs),
(241,404,o),
(354,514,o),
(531,514,cs),
(691,514,o),
(812,407,o),
(811,263,cs),
(810,114,o),
(688,12,o),
(531,12,cs)
);
}
);
userData = {
com.schriftgestaltung.Glyphs.glyph.leftMetricsKey = n;
com.schriftgestaltung.Glyphs.glyph.rightMetricsKey = o;
};
width = 963;
},
{
anchors = (
{
name = bottom;
pos = (535,0);
},
{
name = top;
pos = (535,740);
}
);
layerId = "ED109265-B005-47B0-97BD-F1815082B32B";
shapes = (
{
closed = 1;
nodes = (
(781,-11,o),
(909,102,o),
(909,267,cs),
(909,428,o),
(775,546,o),
(606,546,cs),
(462,546,o),
(359,473,o),
(339,408,c),
(404,404,l),
(404,740,l),
(200,740,l),
(200,0,l),
(383,0,l),
(399,118,l),
(338,119,l),
(353,59,o),
(454,-11,o),
(601,-11,cs)
);
},
{
closed = 1;
nodes = (
(450,156,o),
(389,199,o),
(389,267,cs),
(389,338,o),
(450,379,o),
(550,379,cs),
(647,379,o),
(709,338,o),
(709,267,cs),
(709,199,o),
(649,156,o),
(550,156,cs)
);
}
);
width = 1039;
},
{
anchors = (
{
name = bottom;
pos = (304,0);
},
{
name = top;
pos = (304,740);
}
);
layerId = "2B3ECD2C-4B3A-40C3-8F2B-A5E41B85E4DD";
shapes = (
{
closed = 1;
nodes = (
(469.333,-10,o),
(576,104,o),
(576,260,cs),
(576,417.333,o),
(465.333,531,o),
(328,531,cs),
(221.333,531,o),
(133.333,462.333,o),
(108,373,c),
(123,390,l),
(123,740,l),
(73,740,l),
(73,0,l),
(121,0,l),
(126,132,l),
(108,148,l),
(133.333,58.667,o),
(221.333,-10,o),
(328,-10,cs)
);
},
{
closed = 1;
nodes = (
(205,40,o),
(119,131.667,o),
(119,261,cs),
(119,389,o),
(203.667,481,o),
(321,481,cs),
(439.667,481,o),
(523,389,o),
(523,261,cs),
(523,134.333,o),
(441,40,o),
(321,40,cs)
);
}
);
userData = {
com.schriftgestaltung.Glyphs.glyph.leftMetricsKey = n;
com.schriftgestaltung.Glyphs.glyph.rightMetricsKey = o;
};
width = 608;
}
);
metricLeft = n;
metricRight = o;
unicode = 98;
},
{
color = 6;
glyphname = c;
kernLeft = c;
kernRight = c;
layers = (
{
anchors = (
{
name = bottom;
pos = (296,0);
},
{
name = top;
pos = (295,525);
}
);
layerId = "5A878C7E-547A-4951-B48F-676DBBC9B762";
shapes = (
{
closed = 1;
nodes = (
(380.333,-10,o),
(467.333,33,o),
(510,93,c),
(453,163,l),
(410.333,111,o),
(359.333,83,o),
(306,83,cs),
(214,83,o),
(138,161.667,o),
(138,263,cs),
(138,365.667,o),
(209,443,o),
(305,443,cs),
(357,443,o),
(421,406.667,o),
(453,360,c),
(510,430,l),
(470,495.333,o),
(388.333,536,o),
(295,536,cs),
(149.667,536,o),
(40,417.667,o),
(40,263,cs),
(40,108.333,o),
(149.667,-10,o),
(295,-10,cs)
);
}
);
width = 535;
},
{
anchors = (
{
name = bottom;
pos = (312,0);
},
{
name = top;
pos = (311,535);
}
);
layerId = "554F9022-F5DF-470A-8852-5D1AD00D5051";
shapes = (
{
closed = 1;
nodes = (
(407,-10,o),
(492.667,20.333,o),
(542,75,c),
(433,206,l),
(410.333,180.667,o),
(378.333,164,o),
(329,164,cs),
(266.333,164,o),
(230,209,o),
(230,269,cs),
(230,330.333,o),
(269,373,o),
(329,373,cs),
(378.333,373,o),
(410.333,354,o),
(433,330,c),
(543,460,l),
(492.333,516,o),
(407,546,o),
(311,546,cs),
(148.333,546,o),
(30,429.333,o),
(30,268,cs),
(30,106.667,o),
(148.333,-10,o),
(311,-10,cs)
);
}
);
width = 553;
},
{
anchors = (
{
name = bottom;
pos = (306,0);
},
{
name = top;
pos = (307,525);
}
);
layerId = "CCD999A9-9CE8-4787-8FD2-D5D19514269E";
shapes = (
{
closed = 1;
nodes = (
(388.667,-10,o),
(455.78,23.423,o),
(504,77,c),
(488,93,l),
(443.789,42.091,o),
(380.148,12,o),
(306,12,cs),
(164.493,12,o),
(63.333,116.333,o),
(62,263,cs),
(63.339,406.251,o),
(164.667,508,o),
(306,508,cs),
(382,508,o),
(445.48,477.267,o),
(490,426,c),
(506,443,l),
(458.819,496.921,o),
(390,530,o),
(306,530,cs),
(150,530,o),
(40,419.587,o),
(40,263,cs),
(40,104.333,o),
(150,-10,o),
(306,-10,cs)
);
}
);
userData = {
com.schriftgestaltung.Glyphs.glyph.leftMetricsKey = o;
};
width = 526;
},
{
anchors = (
{
name = bottom;
pos = (456,0);
},
{
name = top;
pos = (454,525);
}
);
layerId = "649E0662-786D-44F6-8E8D-A6782F19FFAA";
shapes = (
{
closed = 1;
nodes = (
(580,-10,o),
(675,31,o),
(750,76,c),
(694,156,l),
(638,123,o),
(564,83,o),
(456,83,cs),
(335,83,o),
(238,159,o),
(238,263,cs),
(238,367,o),
(326,443,o),
(455,443,cs),
(540,443,o),
(637,402,o),
(692,350,c),
(750,434,l),
(690,498,o),
(578,536,o),
(455,536,cs),
(271,536,o),
(130,418,o),
(130,263,cs),
(130,108,o),
(271,-10,o),
(455,-10,cs)
);
}
);
width = 880;
},
{
anchors = (
{
name = bottom;
pos = (466,0);
},
{
name = top;
pos = (465,525);
}
);
layerId = "9FF8E21A-ED06-4F66-AEDE-2CE647DC4B08";
shapes = (
{
closed = 1;
nodes = (
(589,-10,o),
(673,21,o),
(744,60,c),
(733,80,l),
(677,49,o),
(599,12,o),
(456,12,cs),
(292,12,o),
(152,111,o),
(152,263,cs),
(152,406,o),
(279,514,o),
(456,514,cs),
(588,514,o),
(681,468,o),
(734,429,c),
(746,447,l),
(669,500,o),
(569,536,o),
(466,536,cs),
(271,536,o),
(130,419,o),
(130,263,cs),
(130,104,o),
(267,-10,o),
(466,-10,cs)
);
}
);
userData = {
com.schriftgestaltung.Glyphs.glyph.leftMetricsKey = o;
};
width = 871;
},
{
anchors = (
{
name = bottom;
pos = (485,0);
},
{
name = top;
pos = (480,535);
}
);
layerId = "ED109265-B005-47B0-97BD-F1815082B32B";
shapes = (
{
closed = 1;
nodes = (
(617,-10,o),
(711,18,o),
(792,58,c),
(684,199,l),
(648,185,o),
(593,164,o),
(500,164,cs),
(397,164,o),
(340,206,o),
(340,269,cs),
(340,332,o),
(396,373,o),
(503,373,cs),
(572,373,o),
(637,349,o),
(682,320,c),
(793,464,l),
(711,519,o),
(606,546,o),
(481,546,cs),
(280,546,o),
(130,429,o),
(130,268,cs),
(130,107,o),
(280,-10,o),
(500,-10,cs)
);
}
);
width = 908;
},
{
anchors = (
{
name = bottom;
pos = (288,0);
},
{
name = top;
pos = (293,520);
}
);
layerId = "2B3ECD2C-4B3A-40C3-8F2B-A5E41B85E4DD";
shapes = (
{
closed = 1;
nodes = (
(369.667,-10,o),
(447,25,o),
(495,85,c),
(463,124,l),
(417.667,70.667,o),
(353.667,40,o),
(287,40,cs),
(172.333,40,o),
(85,133,o),
(85,261,cs),
(85,389,o),
(172.667,481,o),
(290,481,cs),
(358,481,o),
(422,450.333,o),
(466,397,c),
(498,436,l),
(451.333,496,o),
(379.333,531,o),
(294,531,cs),
(140.667,531,o),
(32,418.333,o),
(32,261,cs),
(32,103.667,o),
(140.333,-10,o),
(291,-10,cs)
);
}
);
userData = {
com.schriftgestaltung.Glyphs.glyph.leftMetricsKey = o;
};
width = 518;
}
);
metricLeft = o;
unicode = 99;
},
{
color = 6;
glyphname = d;
kernLeft = c;
kernRight = d;
layers = (
{
anchors = (
{
name = bottom;
pos = (317,0);
},
{
name = center;
pos = (500,634);
},
{
name = top;
pos = (317,740);
},
{
name = topright;
pos = (594,740);
}
);
layerId = "5A878C7E-547A-4951-B48F-676DBBC9B762";
shapes = (
{
closed = 1;
nodes = (
(388.333,-10,o),
(481,62.333,o),
(481,125,c),
(461,125,l),
(461,0,l),
(564,0,l),
(564,740,l),
(461,740,l),
(461,389,l),
(491,391,l),
(491,460.333,o),
(393.333,536,o),
(288,536,cs),
(146.667,536,o),
(40,420.333,o),
(40,263,cs),
(40,105.667,o),
(147,-10,o),
(291,-10,cs)
);
},
{
closed = 1;
nodes = (
(211.667,79,o),
(145,156.333,o),
(145,263,cs),
(145,369.667,o),
(211.667,447,o),
(305,447,cs),
(398.333,447,o),
(465,369.667,o),
(465,263,cs),
(465,156.333,o),
(398.333,79,o),
(305,79,cs)
);
}
);
width = 634;
},
{
anchors = (
{
name = bottom;
pos = (335,0);
},
{
name = center;
pos = (465,634);
},
{
name = top;
pos = (335,740);
},
{
name = topright;
pos = (649,740);
}
);
layerId = "554F9022-F5DF-470A-8852-5D1AD00D5051";
shapes = (
{
closed = 1;
nodes = (
(356.667,-11,o),
(437.667,39.667,o),
(451,109,c),
(410,118,l),
(426,0,l),
(609,0,l),
(609,740,l),
(405,740,l),
(405,404,l),
(450,418,l),
(432.667,491.333,o),
(353.667,546,o),
(263,546,cs),
(127,546,o),
(30,428.333,o),
(30,267,cs),
(30,103,o),
(126,-11,o),
(258,-11,cs)
);
},
{
closed = 1;
nodes = (
(261.667,154,o),
(229,195,o),
(229,267,cs),
(229,339,o),
(261.667,380,o),
(319,380,cs),
(377.667,380,o),
(410,339,o),
(410,267,cs),
(410,195,o),
(377.667,154,o),
(319,154,cs)
);
}
);
width = 669;
},
{
anchors = (
{
name = bottom;
pos = (302,0);
},
{
name = center;
pos = (501,634);
},
{
name = top;
pos = (302,740);
},
{
name = topright;
pos = (542,740);
}
);
layerId = "CCD999A9-9CE8-4787-8FD2-D5D19514269E";
shapes = (
{
closed = 1;
nodes = (
(402,-10,o),
(492.333,67,o),
(519,175,c),
(510,172,l),
(510,0,l),
(532,0,l),
(532,740,l),
(510,740,l),
(510,353,l),
(516,350,l),
(497.333,452.667,o),
(396.667,530,o),
(290,530,cs),
(152.667,530,o),
(40,415.333,o),
(40,258,cs),
(40,102,o),
(147.333,-10,o),
(294,-10,cs)
);
},
{
closed = 1;
nodes = (
(155.667,12,o),
(62,116.667,o),
(62,258,cs),
(62,403.333,o),
(156.333,508,o),
(291,508,cs),
(416.333,508,o),
(510,404,o),
(510,260,cs),
(510,113.333,o),
(415.667,12,o),
(293,12,cs)
);
}
);
width = 604;
},
{
anchors = (
{
name = bottom;
pos = (467,0);
},
{
name = center;
pos = (661,634);
},
{
name = top;
pos = (467,740);
},
{
name = topright;
pos = (834,740);
}
);
layerId = "649E0662-786D-44F6-8E8D-A6782F19FFAA";
shapes = (
{
closed = 1;
nodes = (
(573,-10,o),
(701,76,o),
(701,137,c),
(681,145,l),
(681,0,l),
(784,0,l),
(784,740,l),
(681,740,l),
(681,389,l),
(711,391,l),
(711,454,o),
(593,536,o),
(438,536,cs),
(251,536,o),
(120,422,o),
(120,263,cs),
(120,104,o),
(241,-10,o),
(432,-10,cs)
);
},
{
closed = 1;
nodes = (
(320,85,o),
(225,162,o),
(225,263,cs),
(225,363,o),
(320,440,o),
(455,440,cs),
(591,440,o),
(685,363,o),
(685,263,cs),
(685,162,o),
(591,85,o),
(455,85,cs)
);
}
);
width = 964;
},
{
anchors = (
{
name = bottom;
pos = (454,0);
},
{
name = center;
pos = (661,634);
},
{
name = top;
pos = (454,740);
},
{
name = topright;
pos = (798,740);
}
);
layerId = "9FF8E21A-ED06-4F66-AEDE-2CE647DC4B08";
shapes = (
{
closed = 1;
nodes = (
(573,-10,o),
(682,47,o),
(735,184,c),
(723,183,l),
(725,0,l),
(745,0,l),
(745,740,l),
(723,740,l),
(723,342,l),
(735,342,l),
(675,477,o),
(573,536,o),
(432,536,cs),
(255,536,o),
(130,420,o),
(130,263,cs),
(130,107,o),
(261,-10,o),
(432,-10,cs)
);
},
{
closed = 1;
nodes = (
(275,12,o),
(153,114,o),
(152,263,cs),
(151,407,o),
(272,514,o),
(432,514,cs),
(609,514,o),
(722,404,o),
(723,265,cs),
(720,113,o),
(604,12,o),
(432,12,cs)
);
}
);
width = 965;
},
{
anchors = (
{
name = bottom;
pos = (485,0);
},
{
name = center;
pos = (626,634);
},
{
name = top;
pos = (485,740);
},
{
name = topright;
pos = (889,740);
}
);
layerId = "ED109265-B005-47B0-97BD-F1815082B32B";
shapes = (
{
closed = 1;
nodes = (
(542,-11,o),
(658,53,o),
(671,121,c),
(630,138,l),
(646,0,l),
(829,0,l),
(829,740,l),
(625,740,l),
(625,404,l),
(670,418,l),
(653,485,o),
(553,546,o),
(413,546,cs),
(232,546,o),
(110,430,o),
(110,267,cs),
(110,102,o),
(220,-11,o),
(399,-11,cs)
);
},
{
closed = 1;
nodes = (
(370,160,o),
(309,200,o),
(309,267,cs),
(309,332,o),
(370,373,o),
(469,373,cs),
(570,373,o),
(630,332,o),
(630,267,cs),
(630,200,o),
(570,160,o),
(469,160,cs)
);
}
);
width = 999;
},
{
anchors = (
{
name = bottom;
pos = (305,0);
},
{
name = center;
pos = (481,634);
},
{
name = top;
pos = (305,740);
},
{
name = topright;
pos = (559,740);
}
);
layerId = "2B3ECD2C-4B3A-40C3-8F2B-A5E41B85E4DD";
shapes = (
{
closed = 1;
nodes = (
(386.667,-10,o),
(475.667,59.667,o),
(501,149,c),
(482,135,l),
(486,0,l),
(534,0,l),
(534,740,l),
(484,740,l),
(484,389,l),
(501,372,l),
(475.667,462.667,o),
(386.667,531,o),
(280,531,cs),
(142.667,531,o),
(32,417.333,o),
(32,260,cs),
(32,104,o),
(138.667,-10,o),
(280,-10,cs)
);
},
{
closed = 1;
nodes = (
(167,40,o),
(85,134.333,o),
(85,261,cs),
(85,389,o),
(168.333,481,o),
(287,481,cs),
(403,481,o),
(488,389,o),
(488,261,cs),
(488,131.667,o),
(401.667,40,o),
(287,40,cs)
);
}
);
width = 609;
}
);
unicode = 100;
},
{
color = 6;
glyphname = eth;
kernLeft = c;
kernRight = D;
layers = (
{
layerId = "5A878C7E-547A-4951-B48F-676DBBC9B762";
shapes = (
{
closed = 1;
nodes = (
(431,-7,o),
(534,110.333,o),
(534,281,cs),
(534,525,o),
(408.333,692,o),
(211,740,c),
(169,662,l),
(341,610,o),
(410,533.667,o),
(418,379,c),
(468,348,l),
(446.667,458.667,o),
(375,528,o),
(275,528,cs),
(151,528,o),
(40,406,o),
(40,262,cs),
(40,111.333,o),
(149.667,-7,o),
(287,-7,cs)
);
},
{
closed = 1;
nodes = (
(203,89,o),
(137,164.667,o),
(137,262,cs),
(137,358,o),
(203,432,o),
(287,432,cs),
(371,432,o),
(437,356.667,o),
(437,262,cs),
(437,164.667,o),
(371,89,o),
(287,89,cs)
);
},
{
closed = 1;
nodes = (
(353,574,l),
(394,591,l),
(507,617,l),
(489,683,l),
(343,650,l),
(288,630,l),
(143,593,l),
(156,528,l)
);
}
);
width = 574;
},
{
layerId = "554F9022-F5DF-470A-8852-5D1AD00D5051";
shapes = (
{
closed = 1;
nodes = (
(474.213,-7,o),
(584,115.069,o),
(584,293,cs),
(584,535.689,o),
(442.129,696.716,o),
(221,750,c),
(169,632,l),
(303.667,592,o),
(351.333,517.667,o),
(358,379,c),
(488,348,l),
(469.333,446.667,o),
(395,508,o),
(295,508,cs),
(155,508,o),
(30,390.667,o),
(30,252,cs),
(30,106.667,o),
(139.537,-7,o),
(305,-7,cs)
);
},
{
closed = 1;
nodes = (
(256.333,159,o),
(217,203.333,o),
(217,262,cs),
(217,319.333,o),
(256.333,362,o),
(307,362,cs),
(357.667,362,o),
(397,318,o),
(397,262,cs),
(397,203.333,o),
(357.667,159,o),
(307,159,cs)
);
},
{
closed = 1;
nodes = (
(368,562,l),
(413,591,l),
(526,617,l),
(508,683,l),
(362,650,l),
(303,618,l),
(133,574,l),
(146,509,l)
);
}
);
width = 614;
},
{
layerId = "CCD999A9-9CE8-4787-8FD2-D5D19514269E";
shapes = (
{
closed = 1;
nodes = (
(432,-10,o),
(536,104.333,o),
(536,259,cs),
(536,533.667,o),
(411,696.333,o),
(211,739,c),
(201,718,l),
(359.667,690,o),
(501,532.333,o),
(501,371,c),
(511,369,l),
(501.667,441,o),
(402.667,527,o),
(292,527,cs),
(145.333,527,o),
(40,421.667,o),
(40,263,cs),
(40,101.667,o),
(141.333,-10,o),
(288,-10,cs)
);
},
{
closed = 1;
nodes = (
(156,12,o),
(63,116.333,o),
(63,263,cs),
(63,405.667,o),
(156,505,o),
(288,505,cs),
(420,505,o),
(513,405.667,o),
(513,263,cs),
(513,116.333,o),
(420,12,o),
(288,12,cs)
);
},
{
closed = 1;
nodes = (
(381,633,l),
(395,637,l),
(493,663,l),
(487,684,l),
(374,653,l),
(361,650,l),
(160,596,l),
(164,574,l)
);
}
);
userData = {
com.schriftgestaltung.Glyphs.glyph.leftMetricsKey = o;
com.schriftgestaltung.Glyphs.glyph.rightMetricsKey = o;
};
width = 576;
},
{
layerId = "649E0662-786D-44F6-8E8D-A6782F19FFAA";
shapes = (
{
closed = 1;
nodes = (
(628,-7,o),
(774,103,o),
(774,283,cs),
(774,480,o),
(584,680,o),
(471,740,c),
(419,672,l),
(550,583,o),
(664,456,o),
(664,335,c),
(698,348,l),
(673,447,o),
(583,528,o),
(435,528,cs),
(264,528,o),
(130,410,o),
(130,262,cs),
(130,113,o),
(251,-7,o),
(447,-7,cs)
);
},
{
closed = 1;
nodes = (
(330,79,o),
(235,159,o),
(235,262,cs),
(235,363,o),
(325,442,o),
(437,442,cs),
(568,442,o),
(667,359,o),
(667,262,cs),
(667,159,o),
(570,79,o),
(447,79,cs)
);
},
{
closed = 1;
nodes = (
(583,574,l),
(624,591,l),
(737,597,l),
(719,663,l),
(573,650,l),
(518,630,l),
(373,613,l),
(386,548,l)
);
}
);
width = 904;
},
{
layerId = "9FF8E21A-ED06-4F66-AEDE-2CE647DC4B08";
shapes = (
{
closed = 1;
nodes = (
(639,-10,o),
(776,104,o),
(776,261,cs),
(776,489,o),
(587,684,o),
(471,739,c),
(451,728,l),
(584,663,o),
(755,458,o),
(747,327,c),
(761,333,l),
(728,444,o),
(609,527,o),
(437,527,cs),
(258,527,o),
(130,416,o),
(130,263,cs),
(130,104,o),
(263,-10,o),
(448,-10,cs)
);
},
{
closed = 1;
nodes = (
(276,12,o),
(152,116,o),
(152,263,cs),
(152,404,o),
(271,505,o),
(438,505,cs),
(621,505,o),
(753,404,o),
(753,263,cs),
(753,116,o),
(625,12,o),
(448,12,cs)
);
},
{
closed = 1;
nodes = (
(592,623,l),
(607,626,l),
(722,643,l),
(717,664,l),
(587,644,l),
(574,641,l),
(390,616,l),
(394,594,l)
);
}
);
userData = {
com.schriftgestaltung.Glyphs.glyph.leftMetricsKey = o;
com.schriftgestaltung.Glyphs.glyph.rightMetricsKey = o;
};
width = 906;
},
{
layerId = "ED109265-B005-47B0-97BD-F1815082B32B";
shapes = (
{
closed = 1;
nodes = (
(681,-7,o),
(834,108,o),
(834,295,cs),
(834,491,o),
(628,685,o),
(491,750,c),
(429,642,l),
(523,565,o),
(615,440,o),
(614,335,c),
(698,348,l),
(676,435,o),
(613,508,o),
(465,508,cs),
(278,508,o),
(130,395,o),
(130,252,cs),
(130,108,o),
(251,-7,o),
(475,-7,cs)
);
},
{
closed = 1;
nodes = (
(390,149,o),
(325,197,o),
(325,262,cs),
(325,325,o),
(386,372,o),
(467,372,cs),
(564,372,o),
(637,325,o),
(637,262,cs),
(637,197,o),
(569,149,o),
(477,149,cs)
);
},
{
closed = 1;
nodes = (
(606,576,l),
(649,607,l),
(761,620,l),
(739,685,l),
(594,663,l),
(537,628,l),
(369,593,l),
(386,529,l)
);
}
);
width = 964;
},
{
layerId = "2B3ECD2C-4B3A-40C3-8F2B-A5E41B85E4DD";
shapes = (
{
closed = 1;
nodes = (
(424,-10,o),
(527,106,o),
(527,266,cs),
(527,522,o),
(401.667,691,o),
(203,739,c),
(182,700,l),
(347.333,666.667,o),
(462.333,515.667,o),
(473,381,c),
(495,378,l),
(465.667,455.333,o),
(386.667,527,o),
(288,527,cs),
(140,527,o),
(32,416.333,o),
(32,263,cs),
(32,104.333,o),
(136,-10,o),
(280,-10,cs)
);
},
{
closed = 1;
nodes = (
(166.667,40,o),
(85,133.667,o),
(85,263,cs),
(85,389.667,o),
(166.667,481,o),
(280,481,cs),
(392,481,o),
(474,389.667,o),
(474,263,cs),
(474,133.667,o),
(392,40,o),
(280,40,cs)
);
},
{
closed = 1;
nodes = (
(372,608,l),
(394,614,l),
(488,638,l),
(477,679,l),
(359,648,l),
(335,642,l),
(144,592,l),
(152,551,l)
);
}
);
userData = {
com.schriftgestaltung.Glyphs.glyph.leftMetricsKey = o;
com.schriftgestaltung.Glyphs.glyph.rightMetricsKey = o;
};
width = 559;
}
);
metricLeft = o;
metricRight = o;
unicode = 240;
},
{
color = 3;
glyphname = dcroat;
kernLeft = c;
kernRight = d;
layers = (
{
layerId = "CCD999A9-9CE8-4787-8FD2-D5D19514269E";
shapes = (
{
closed = 1;
nodes = (
(635,623,l),
(635,644,l),
(367,644,l),
(367,623,l)
);
},
{
ref = d;
}
);
width = 604;
},
{
layerId = "5A878C7E-547A-4951-B48F-676DBBC9B762";
shapes = (
{
closed = 1;
nodes = (
(634,589,l),
(634,679,l),
(366,679,l),
(366,589,l)
);
},
{
ref = d;
}
);
width = 634;
},
{
layerId = "554F9022-F5DF-470A-8852-5D1AD00D5051";
shapes = (
{
closed = 1;
nodes = (
(649,564,l),
(649,704,l),
(281,704,l),
(281,564,l)
);
},
{
ref = d;
}
);
width = 669;
},
{
layerId = "649E0662-786D-44F6-8E8D-A6782F19FFAA";
shapes = (
{
closed = 1;
nodes = (
(865,591,l),
(865,677,l),
(457,677,l),
(457,591,l)
);
},
{
ref = d;
}
);
width = 964;
},
{
layerId = "9FF8E21A-ED06-4F66-AEDE-2CE647DC4B08";
shapes = (
{
closed = 1;
nodes = (
(865,625,l),
(865,642,l),
(457,642,l),
(457,625,l)
);
},
{
ref = d;
}
);
width = 965;
},
{
layerId = "ED109265-B005-47B0-97BD-F1815082B32B";
shapes = (
{
closed = 1;
nodes = (
(880,566,l),
(880,702,l),
(372,702,l),
(372,566,l)
);
},
{
ref = d;
}
);
width = 999;
},
{
anchors = (
{
name = _center;
pos = (626,634);
},
{
name = bottom;
pos = (485,0);
},
{
name = center;
pos = (626,634);
},
{
name = top;
pos = (485,740);
},
{
name = topright;
pos = (889,740);
}
);
associatedMasterId = "ED109265-B005-47B0-97BD-F1815082B32B";
layerId = "F2F416D7-5358-4D5E-A3BE-1488B996D54E";
name = foreground;
shapes = (
{
closed = 1;
nodes = (
(880,566,l),
(880,702,l),
(372,702,l),
(372,566,l)
);
},
{
ref = d;
}
);
width = 999;
},
{
layerId = "2B3ECD2C-4B3A-40C3-8F2B-A5E41B85E4DD";
shapes = (
{
closed = 1;
nodes = (
(615,611,l),
(615,656,l),
(347,656,l),
(347,611,l)
);
},
{
ref = d;
}
);
width = 609;
}
);
unicode = 273;
},
